G04*
G04 #@! TF.GenerationSoftware,Altium Limited,Altium Designer,24.10.1 (45)*
G04*
G04 Layer_Physical_Order=2*
G04 Layer_Color=16711680*
%FSLAX25Y25*%
%MOIN*%
G70*
G04*
G04 #@! TF.SameCoordinates,DB52723A-DFEF-4DE6-841C-BB4ED9ED53CF*
G04*
G04*
G04 #@! TF.FilePolarity,Positive*
G04*
G01*
G75*
%ADD27C,0.03150*%
%ADD31C,0.05906*%
%ADD32C,0.12598*%
%ADD33C,0.03937*%
%ADD34C,0.04724*%
%ADD35C,0.05512*%
%ADD36C,0.01968*%
G36*
X159256Y227962D02*
X161075Y227208D01*
X162713Y226114D01*
X164106Y224721D01*
X165200Y223083D01*
X165954Y221263D01*
X166339Y219331D01*
Y218347D01*
Y10000D01*
Y9015D01*
X165954Y7083D01*
X165200Y5263D01*
X164106Y3625D01*
X162713Y2232D01*
X161075Y1138D01*
X159256Y384D01*
X157324Y0D01*
X9015D01*
X7083Y384D01*
X5263Y1138D01*
X3625Y2232D01*
X2232Y3625D01*
X1138Y5263D01*
X384Y7083D01*
X0Y9015D01*
Y10000D01*
Y218347D01*
Y219331D01*
X384Y221263D01*
X1138Y223083D01*
X2232Y224721D01*
X3625Y226114D01*
X5263Y227208D01*
X7083Y227962D01*
X9015Y228346D01*
X157324D01*
X159256Y227962D01*
D02*
G37*
%LPC*%
G36*
X157175Y225394D02*
X155817D01*
X154486Y225129D01*
X153233Y224610D01*
X152104Y223856D01*
X151144Y222896D01*
X150390Y221767D01*
X149871Y220514D01*
X149606Y219182D01*
Y217825D01*
X149871Y216494D01*
X150390Y215240D01*
X151144Y214112D01*
X152104Y213152D01*
X153233Y212398D01*
X154486Y211879D01*
X155817Y211614D01*
X157175D01*
X158506Y211879D01*
X159760Y212398D01*
X160888Y213152D01*
X161848Y214112D01*
X162602Y215240D01*
X163121Y216494D01*
X163386Y217825D01*
Y219182D01*
X163121Y220514D01*
X162602Y221767D01*
X161848Y222896D01*
X160888Y223856D01*
X159760Y224610D01*
X158506Y225129D01*
X157175Y225394D01*
D02*
G37*
G36*
X103813Y205394D02*
X102880D01*
X101979Y205152D01*
X101171Y204686D01*
X100511Y204026D01*
X100045Y203218D01*
X99803Y202317D01*
Y201384D01*
X100045Y200483D01*
X100511Y199675D01*
X101171Y199015D01*
X101979Y198549D01*
X102880Y198307D01*
X103813D01*
X104714Y198549D01*
X105522Y199015D01*
X106182Y199675D01*
X106648Y200483D01*
X106890Y201384D01*
Y202317D01*
X106648Y203218D01*
X106182Y204026D01*
X105522Y204686D01*
X104714Y205152D01*
X103813Y205394D01*
D02*
G37*
G36*
X16018D02*
X15085D01*
X14184Y205152D01*
X13375Y204686D01*
X12716Y204026D01*
X12249Y203218D01*
X12008Y202317D01*
Y201384D01*
X12249Y200483D01*
X12716Y199675D01*
X13375Y199015D01*
X14184Y198549D01*
X15085Y198307D01*
X16018D01*
X16919Y198549D01*
X17727Y199015D01*
X18386Y199675D01*
X18853Y200483D01*
X19094Y201384D01*
Y202317D01*
X18853Y203218D01*
X18386Y204026D01*
X17727Y204686D01*
X16919Y205152D01*
X16018Y205394D01*
D02*
G37*
G36*
X103813Y195394D02*
X102880D01*
X101979Y195152D01*
X101171Y194686D01*
X100511Y194026D01*
X100045Y193218D01*
X99803Y192317D01*
Y191384D01*
X100045Y190483D01*
X100511Y189675D01*
X101171Y189015D01*
X101979Y188549D01*
X102880Y188307D01*
X103813D01*
X104714Y188549D01*
X105522Y189015D01*
X106182Y189675D01*
X106648Y190483D01*
X106890Y191384D01*
Y192317D01*
X106648Y193218D01*
X106182Y194026D01*
X105522Y194686D01*
X104714Y195152D01*
X103813Y195394D01*
D02*
G37*
G36*
X16018D02*
X15085D01*
X14184Y195152D01*
X13375Y194686D01*
X12716Y194026D01*
X12249Y193218D01*
X12008Y192317D01*
Y191384D01*
X12249Y190483D01*
X12716Y189675D01*
X13375Y189015D01*
X14184Y188549D01*
X15085Y188307D01*
X16018D01*
X16919Y188549D01*
X17727Y189015D01*
X18386Y189675D01*
X18853Y190483D01*
X19094Y191384D01*
Y192317D01*
X18853Y193218D01*
X18386Y194026D01*
X17727Y194686D01*
X16919Y195152D01*
X16018Y195394D01*
D02*
G37*
G36*
X103813Y185394D02*
X102880D01*
X101979Y185152D01*
X101171Y184686D01*
X100511Y184026D01*
X100045Y183218D01*
X99803Y182317D01*
Y181384D01*
X100045Y180483D01*
X100511Y179675D01*
X101171Y179015D01*
X101979Y178549D01*
X102880Y178307D01*
X103813D01*
X104714Y178549D01*
X105522Y179015D01*
X106182Y179675D01*
X106648Y180483D01*
X106890Y181384D01*
Y182317D01*
X106648Y183218D01*
X106182Y184026D01*
X105522Y184686D01*
X104714Y185152D01*
X103813Y185394D01*
D02*
G37*
G36*
X16018D02*
X15085D01*
X14184Y185152D01*
X13375Y184686D01*
X12716Y184026D01*
X12249Y183218D01*
X12008Y182317D01*
Y181384D01*
X12249Y180483D01*
X12716Y179675D01*
X13375Y179015D01*
X14184Y178549D01*
X15085Y178307D01*
X16018D01*
X16919Y178549D01*
X17727Y179015D01*
X18386Y179675D01*
X18853Y180483D01*
X19094Y181384D01*
Y182317D01*
X18853Y183218D01*
X18386Y184026D01*
X17727Y184686D01*
X16919Y185152D01*
X16018Y185394D01*
D02*
G37*
G36*
X103813Y175394D02*
X102880D01*
X101979Y175152D01*
X101171Y174686D01*
X100511Y174026D01*
X100045Y173218D01*
X99803Y172317D01*
Y171384D01*
X100045Y170483D01*
X100511Y169675D01*
X101171Y169015D01*
X101979Y168549D01*
X102880Y168307D01*
X103813D01*
X104714Y168549D01*
X105522Y169015D01*
X106182Y169675D01*
X106648Y170483D01*
X106890Y171384D01*
Y172317D01*
X106648Y173218D01*
X106182Y174026D01*
X105522Y174686D01*
X104714Y175152D01*
X103813Y175394D01*
D02*
G37*
G36*
X16018D02*
X15085D01*
X14184Y175152D01*
X13375Y174686D01*
X12716Y174026D01*
X12249Y173218D01*
X12008Y172317D01*
Y171384D01*
X12249Y170483D01*
X12716Y169675D01*
X13375Y169015D01*
X14184Y168549D01*
X15085Y168307D01*
X16018D01*
X16919Y168549D01*
X17727Y169015D01*
X18386Y169675D01*
X18853Y170483D01*
X19094Y171384D01*
Y172317D01*
X18853Y173218D01*
X18386Y174026D01*
X17727Y174686D01*
X16919Y175152D01*
X16018Y175394D01*
D02*
G37*
G36*
X103813Y165394D02*
X102880D01*
X101979Y165152D01*
X101171Y164686D01*
X100511Y164026D01*
X100045Y163218D01*
X99803Y162317D01*
Y161384D01*
X100045Y160483D01*
X100511Y159675D01*
X101171Y159015D01*
X101979Y158549D01*
X102880Y158307D01*
X103813D01*
X104714Y158549D01*
X105522Y159015D01*
X106182Y159675D01*
X106648Y160483D01*
X106890Y161384D01*
Y162317D01*
X106648Y163218D01*
X106182Y164026D01*
X105522Y164686D01*
X104714Y165152D01*
X103813Y165394D01*
D02*
G37*
G36*
X16018D02*
X15085D01*
X14184Y165152D01*
X13375Y164686D01*
X12716Y164026D01*
X12249Y163218D01*
X12008Y162317D01*
Y161384D01*
X12249Y160483D01*
X12716Y159675D01*
X13375Y159015D01*
X14184Y158549D01*
X15085Y158307D01*
X16018D01*
X16919Y158549D01*
X17727Y159015D01*
X18386Y159675D01*
X18853Y160483D01*
X19094Y161384D01*
Y162317D01*
X18853Y163218D01*
X18386Y164026D01*
X17727Y164686D01*
X16919Y165152D01*
X16018Y165394D01*
D02*
G37*
G36*
X127409Y151969D02*
X127362D01*
Y149016D01*
X130315D01*
Y149063D01*
X130087Y149914D01*
X129646Y150677D01*
X129023Y151300D01*
X128260Y151741D01*
X127409Y151969D01*
D02*
G37*
G36*
X126575D02*
X126528D01*
X125677Y151741D01*
X124914Y151300D01*
X124291Y150677D01*
X123850Y149914D01*
X123622Y149063D01*
Y149016D01*
X126575D01*
Y151969D01*
D02*
G37*
G36*
X16018Y155394D02*
X15085D01*
X14184Y155152D01*
X13375Y154686D01*
X12716Y154026D01*
X12249Y153218D01*
X12008Y152317D01*
Y151384D01*
X12249Y150483D01*
X12716Y149675D01*
X13375Y149015D01*
X14184Y148549D01*
X15085Y148307D01*
X16018D01*
X16919Y148549D01*
X17727Y149015D01*
X18386Y149675D01*
X18853Y150483D01*
X19094Y151384D01*
Y152317D01*
X18853Y153218D01*
X18386Y154026D01*
X17727Y154686D01*
X16919Y155152D01*
X16018Y155394D01*
D02*
G37*
G36*
X147094Y151969D02*
X146213D01*
X145362Y151741D01*
X144599Y151300D01*
X143976Y150677D01*
X143535Y149914D01*
X143307Y149063D01*
Y148181D01*
X143535Y147330D01*
X143976Y146567D01*
X144599Y145944D01*
X145362Y145504D01*
X146213Y145276D01*
X147094D01*
X147945Y145504D01*
X148708Y145944D01*
X149331Y146567D01*
X149772Y147330D01*
X150000Y148181D01*
Y149063D01*
X149772Y149914D01*
X149331Y150677D01*
X148708Y151300D01*
X147945Y151741D01*
X147094Y151969D01*
D02*
G37*
G36*
X137252D02*
X136371D01*
X135519Y151741D01*
X134756Y151300D01*
X134133Y150677D01*
X133693Y149914D01*
X133465Y149063D01*
Y148181D01*
X133693Y147330D01*
X134133Y146567D01*
X134756Y145944D01*
X135519Y145504D01*
X136371Y145276D01*
X137252D01*
X138103Y145504D01*
X138866Y145944D01*
X139489Y146567D01*
X139929Y147330D01*
X140157Y148181D01*
Y149063D01*
X139929Y149914D01*
X139489Y150677D01*
X138866Y151300D01*
X138103Y151741D01*
X137252Y151969D01*
D02*
G37*
G36*
X130315Y148228D02*
X127362D01*
Y145276D01*
X127409D01*
X128260Y145504D01*
X129023Y145944D01*
X129646Y146567D01*
X130087Y147330D01*
X130315Y148181D01*
Y148228D01*
D02*
G37*
G36*
X126575D02*
X123622D01*
Y148181D01*
X123850Y147330D01*
X124291Y146567D01*
X124914Y145944D01*
X125677Y145504D01*
X126528Y145276D01*
X126575D01*
Y148228D01*
D02*
G37*
G36*
X103813Y155394D02*
X102880D01*
X101979Y155152D01*
X101171Y154686D01*
X100511Y154026D01*
X100045Y153218D01*
X99803Y152317D01*
Y151384D01*
X99994Y150670D01*
X99929Y150572D01*
X99860Y150226D01*
X52573Y102939D01*
X52094Y102223D01*
X51926Y101378D01*
Y31806D01*
X51749Y31500D01*
X51575Y30849D01*
Y30175D01*
X51749Y29524D01*
X52086Y28940D01*
X52563Y28464D01*
X53146Y28127D01*
X53797Y27953D01*
X54471D01*
X55122Y28127D01*
X55705Y28464D01*
X56182Y28940D01*
X56519Y29524D01*
X56693Y30175D01*
Y30849D01*
X56519Y31500D01*
X56342Y31806D01*
Y100463D01*
X99974Y144096D01*
X100374Y143789D01*
X100045Y143218D01*
X99803Y142317D01*
Y141384D01*
X100045Y140483D01*
X100511Y139675D01*
X101171Y139015D01*
X101979Y138549D01*
X102880Y138307D01*
X103813D01*
X104714Y138549D01*
X105522Y139015D01*
X106182Y139675D01*
X106648Y140483D01*
X106890Y141384D01*
Y142317D01*
X106648Y143218D01*
X106182Y144026D01*
X105522Y144686D01*
X104714Y145152D01*
X103813Y145394D01*
X102880D01*
X101979Y145152D01*
X101408Y144823D01*
X101101Y145223D01*
X103530Y147652D01*
X104001Y148358D01*
X104714Y148549D01*
X105522Y149015D01*
X106182Y149675D01*
X106648Y150483D01*
X106890Y151384D01*
Y152317D01*
X106648Y153218D01*
X106182Y154026D01*
X105522Y154686D01*
X104714Y155152D01*
X103813Y155394D01*
D02*
G37*
G36*
X16018Y145394D02*
X15085D01*
X14184Y145152D01*
X13375Y144686D01*
X12716Y144026D01*
X12249Y143218D01*
X12008Y142317D01*
Y141384D01*
X12249Y140483D01*
X12716Y139675D01*
X13375Y139015D01*
X14184Y138549D01*
X15085Y138307D01*
X16018D01*
X16919Y138549D01*
X17727Y139015D01*
X18386Y139675D01*
X18853Y140483D01*
X19094Y141384D01*
Y142317D01*
X18853Y143218D01*
X18386Y144026D01*
X17727Y144686D01*
X16919Y145152D01*
X16018Y145394D01*
D02*
G37*
G36*
X103813Y135394D02*
X102880D01*
X101979Y135152D01*
X101171Y134686D01*
X100511Y134026D01*
X100045Y133218D01*
X99803Y132317D01*
Y131384D01*
X100045Y130483D01*
X100511Y129675D01*
X101171Y129015D01*
X101979Y128549D01*
X102880Y128307D01*
X103813D01*
X104714Y128549D01*
X105522Y129015D01*
X106182Y129675D01*
X106648Y130483D01*
X106890Y131384D01*
Y132317D01*
X106648Y133218D01*
X106182Y134026D01*
X105522Y134686D01*
X104714Y135152D01*
X103813Y135394D01*
D02*
G37*
G36*
X16018D02*
X15085D01*
X14184Y135152D01*
X13375Y134686D01*
X12716Y134026D01*
X12249Y133218D01*
X12008Y132317D01*
Y131384D01*
X12249Y130483D01*
X12716Y129675D01*
X13375Y129015D01*
X14184Y128549D01*
X15085Y128307D01*
X16018D01*
X16919Y128549D01*
X17727Y129015D01*
X18386Y129675D01*
X18853Y130483D01*
X19094Y131384D01*
Y132317D01*
X18853Y133218D01*
X18386Y134026D01*
X17727Y134686D01*
X16919Y135152D01*
X16018Y135394D01*
D02*
G37*
G36*
X103813Y125394D02*
X102880D01*
X101979Y125152D01*
X101171Y124686D01*
X100511Y124026D01*
X100045Y123218D01*
X99803Y122317D01*
Y121384D01*
X100045Y120483D01*
X100511Y119675D01*
X101171Y119015D01*
X101979Y118549D01*
X102880Y118307D01*
X103813D01*
X104714Y118549D01*
X105522Y119015D01*
X106182Y119675D01*
X106648Y120483D01*
X106890Y121384D01*
Y122317D01*
X106648Y123218D01*
X106182Y124026D01*
X105522Y124686D01*
X104714Y125152D01*
X103813Y125394D01*
D02*
G37*
G36*
X16018D02*
X15085D01*
X14184Y125152D01*
X13375Y124686D01*
X12716Y124026D01*
X12249Y123218D01*
X12008Y122317D01*
Y121384D01*
X12249Y120483D01*
X12716Y119675D01*
X13375Y119015D01*
X14184Y118549D01*
X15085Y118307D01*
X16018D01*
X16919Y118549D01*
X17727Y119015D01*
X18386Y119675D01*
X18853Y120483D01*
X19094Y121384D01*
Y122317D01*
X18853Y123218D01*
X18386Y124026D01*
X17727Y124686D01*
X16919Y125152D01*
X16018Y125394D01*
D02*
G37*
G36*
X103813Y115394D02*
X102880D01*
X101979Y115152D01*
X101171Y114686D01*
X100511Y114026D01*
X100045Y113218D01*
X99803Y112317D01*
Y111384D01*
X100045Y110483D01*
X100511Y109675D01*
X101171Y109015D01*
X101979Y108549D01*
X102880Y108307D01*
X103813D01*
X104714Y108549D01*
X105522Y109015D01*
X106182Y109675D01*
X106648Y110483D01*
X106890Y111384D01*
Y112317D01*
X106648Y113218D01*
X106182Y114026D01*
X105522Y114686D01*
X104714Y115152D01*
X103813Y115394D01*
D02*
G37*
G36*
X16018D02*
X15085D01*
X14184Y115152D01*
X13375Y114686D01*
X12716Y114026D01*
X12249Y113218D01*
X12008Y112317D01*
Y111384D01*
X12249Y110483D01*
X12716Y109675D01*
X13375Y109015D01*
X14184Y108549D01*
X15085Y108307D01*
X16018D01*
X16919Y108549D01*
X17727Y109015D01*
X18386Y109675D01*
X18853Y110483D01*
X19094Y111384D01*
Y112317D01*
X18853Y113218D01*
X18386Y114026D01*
X17727Y114686D01*
X16919Y115152D01*
X16018Y115394D01*
D02*
G37*
G36*
Y105394D02*
X15085D01*
X14184Y105152D01*
X13375Y104686D01*
X12716Y104026D01*
X12249Y103218D01*
X12008Y102317D01*
Y101384D01*
X12249Y100483D01*
X12716Y99675D01*
X13375Y99015D01*
X14184Y98549D01*
X15085Y98307D01*
X16018D01*
X16919Y98549D01*
X17727Y99015D01*
X18386Y99675D01*
X18853Y100483D01*
X19094Y101384D01*
Y102317D01*
X18853Y103218D01*
X18386Y104026D01*
X17727Y104686D01*
X16919Y105152D01*
X16018Y105394D01*
D02*
G37*
G36*
X103813D02*
X102880D01*
X101979Y105152D01*
X101171Y104686D01*
X100511Y104026D01*
X100045Y103218D01*
X99803Y102317D01*
Y101384D01*
X100045Y100483D01*
X100511Y99675D01*
X101171Y99015D01*
X101979Y98549D01*
X102880Y98307D01*
X103813D01*
X104714Y98549D01*
X105522Y99015D01*
X106036Y99529D01*
X134070D01*
X134339Y99261D01*
X135012Y98873D01*
X135763Y98671D01*
X136200D01*
X136407Y98171D01*
X132294Y94058D01*
X106150D01*
X105522Y94686D01*
X104714Y95152D01*
X103813Y95394D01*
X102880D01*
X101979Y95152D01*
X101171Y94686D01*
X100511Y94026D01*
X100045Y93218D01*
X99803Y92317D01*
Y91384D01*
X100045Y90483D01*
X100511Y89675D01*
X101171Y89015D01*
X101979Y88549D01*
X102880Y88307D01*
X103813D01*
X104714Y88549D01*
X105522Y89015D01*
X106150Y89643D01*
X133209D01*
X134054Y89811D01*
X134770Y90289D01*
X143152Y98671D01*
X143371D01*
X144122Y98873D01*
X144795Y99261D01*
X145345Y99811D01*
X145734Y100484D01*
X145935Y101235D01*
Y102013D01*
X145734Y102764D01*
X145345Y103437D01*
X144795Y103987D01*
X144122Y104376D01*
X143371Y104577D01*
X142594D01*
X141843Y104376D01*
X141169Y103987D01*
X140620Y103437D01*
X140231Y102764D01*
X140030Y102013D01*
Y101794D01*
X139604Y101368D01*
X139104Y101576D01*
Y102013D01*
X138903Y102764D01*
X138514Y103437D01*
X137965Y103987D01*
X137291Y104376D01*
X136540Y104577D01*
X135763D01*
X135012Y104376D01*
X134339Y103987D01*
X134297Y103945D01*
X106229D01*
X106182Y104026D01*
X105522Y104686D01*
X104714Y105152D01*
X103813Y105394D01*
D02*
G37*
G36*
X16018Y95394D02*
X15085D01*
X14184Y95152D01*
X13375Y94686D01*
X12716Y94026D01*
X12249Y93218D01*
X12008Y92317D01*
Y91384D01*
X12249Y90483D01*
X12716Y89675D01*
X13375Y89015D01*
X14184Y88549D01*
X15085Y88307D01*
X16018D01*
X16919Y88549D01*
X17727Y89015D01*
X18386Y89675D01*
X18853Y90483D01*
X19094Y91384D01*
Y92317D01*
X18853Y93218D01*
X18386Y94026D01*
X17727Y94686D01*
X16919Y95152D01*
X16018Y95394D01*
D02*
G37*
G36*
X143482Y85699D02*
Y82852D01*
X146329D01*
X146115Y83650D01*
X145673Y84417D01*
X145047Y85043D01*
X144280Y85485D01*
X143482Y85699D01*
D02*
G37*
G36*
X142482Y85699D02*
X141684Y85485D01*
X140918Y85043D01*
X140292Y84417D01*
X139849Y83650D01*
X139635Y82852D01*
X142482D01*
Y85699D01*
D02*
G37*
G36*
X136540Y85305D02*
X135763D01*
X135012Y85104D01*
X134339Y84715D01*
X133789Y84165D01*
X133400Y83492D01*
X133199Y82741D01*
Y81964D01*
X133400Y81213D01*
X133789Y80539D01*
X134339Y79990D01*
X135012Y79601D01*
X135763Y79400D01*
X136540D01*
X137291Y79601D01*
X137965Y79990D01*
X138514Y80539D01*
X138903Y81213D01*
X139104Y81964D01*
Y82741D01*
X138903Y83492D01*
X138514Y84165D01*
X137965Y84715D01*
X137291Y85104D01*
X136540Y85305D01*
D02*
G37*
G36*
X142482Y81852D02*
X139635D01*
X139849Y81055D01*
X140292Y80288D01*
X140918Y79662D01*
X141684Y79219D01*
X142482Y79005D01*
Y81852D01*
D02*
G37*
G36*
X146329D02*
X143482D01*
Y79005D01*
X144280Y79219D01*
X145047Y79662D01*
X145673Y80288D01*
X146115Y81055D01*
X146329Y81852D01*
D02*
G37*
G36*
X103813Y85394D02*
X102880D01*
X101979Y85152D01*
X101171Y84686D01*
X100511Y84026D01*
X100045Y83218D01*
X99803Y82317D01*
Y81384D01*
X100045Y80483D01*
X100511Y79675D01*
X101171Y79015D01*
X101979Y78549D01*
X102880Y78307D01*
X103813D01*
X104714Y78549D01*
X105522Y79015D01*
X106182Y79675D01*
X106648Y80483D01*
X106890Y81384D01*
Y82317D01*
X106648Y83218D01*
X106182Y84026D01*
X105522Y84686D01*
X104714Y85152D01*
X103813Y85394D01*
D02*
G37*
G36*
X16018D02*
X15085D01*
X14184Y85152D01*
X13375Y84686D01*
X12716Y84026D01*
X12249Y83218D01*
X12008Y82317D01*
Y81384D01*
X12249Y80483D01*
X12716Y79675D01*
X13375Y79015D01*
X14184Y78549D01*
X15085Y78307D01*
X16018D01*
X16919Y78549D01*
X17727Y79015D01*
X18386Y79675D01*
X18853Y80483D01*
X19094Y81384D01*
Y82317D01*
X18853Y83218D01*
X18386Y84026D01*
X17727Y84686D01*
X16919Y85152D01*
X16018Y85394D01*
D02*
G37*
G36*
X103813Y75394D02*
X102880D01*
X101979Y75152D01*
X101171Y74686D01*
X100511Y74026D01*
X100045Y73218D01*
X99803Y72317D01*
Y71384D01*
X100045Y70483D01*
X100511Y69675D01*
X101171Y69015D01*
X101979Y68549D01*
X102880Y68307D01*
X103813D01*
X104714Y68549D01*
X105522Y69015D01*
X106182Y69675D01*
X106648Y70483D01*
X106890Y71384D01*
Y72317D01*
X106648Y73218D01*
X106182Y74026D01*
X105522Y74686D01*
X104714Y75152D01*
X103813Y75394D01*
D02*
G37*
G36*
X16018D02*
X15085D01*
X14184Y75152D01*
X13375Y74686D01*
X12716Y74026D01*
X12249Y73218D01*
X12008Y72317D01*
Y71384D01*
X12249Y70483D01*
X12716Y69675D01*
X13375Y69015D01*
X14184Y68549D01*
X15085Y68307D01*
X16018D01*
X16919Y68549D01*
X17727Y69015D01*
X18386Y69675D01*
X18853Y70483D01*
X19094Y71384D01*
Y72317D01*
X18853Y73218D01*
X18386Y74026D01*
X17727Y74686D01*
X16919Y75152D01*
X16018Y75394D01*
D02*
G37*
G36*
X122813Y61669D02*
Y59230D01*
X125252D01*
X125079Y59876D01*
X124688Y60553D01*
X124136Y61106D01*
X123459Y61497D01*
X122813Y61669D01*
D02*
G37*
G36*
X121813Y61670D02*
X121167Y61497D01*
X120490Y61106D01*
X119938Y60553D01*
X119547Y59876D01*
X119374Y59230D01*
X121813D01*
Y61670D01*
D02*
G37*
G36*
X103813Y65394D02*
X102880D01*
X101979Y65152D01*
X101171Y64686D01*
X100511Y64026D01*
X100045Y63218D01*
X99803Y62317D01*
Y61384D01*
X100045Y60483D01*
X100511Y59675D01*
X101171Y59015D01*
X101979Y58549D01*
X102880Y58307D01*
X103813D01*
X104714Y58549D01*
X105522Y59015D01*
X106182Y59675D01*
X106648Y60483D01*
X106890Y61384D01*
Y62317D01*
X106648Y63218D01*
X106182Y64026D01*
X105522Y64686D01*
X104714Y65152D01*
X103813Y65394D01*
D02*
G37*
G36*
X16018D02*
X15085D01*
X14184Y65152D01*
X13375Y64686D01*
X12716Y64026D01*
X12249Y63218D01*
X12008Y62317D01*
Y61384D01*
X12249Y60483D01*
X12716Y59675D01*
X13375Y59015D01*
X14184Y58549D01*
X15085Y58307D01*
X16018D01*
X16919Y58549D01*
X17727Y59015D01*
X18386Y59675D01*
X18853Y60483D01*
X19094Y61384D01*
Y62317D01*
X18853Y63218D01*
X18386Y64026D01*
X17727Y64686D01*
X16919Y65152D01*
X16018Y65394D01*
D02*
G37*
G36*
X125252Y58230D02*
X122813D01*
Y55791D01*
X123459Y55964D01*
X124136Y56355D01*
X124688Y56908D01*
X125079Y57585D01*
X125252Y58230D01*
D02*
G37*
G36*
X121813D02*
X119374D01*
X119547Y57585D01*
X119938Y56908D01*
X120490Y56355D01*
X121167Y55964D01*
X121813Y55791D01*
Y58230D01*
D02*
G37*
G36*
X122650Y54459D02*
X121976D01*
X121325Y54284D01*
X120742Y53947D01*
X120265Y53471D01*
X119928Y52887D01*
X119754Y52236D01*
Y51563D01*
X119928Y50912D01*
X120265Y50328D01*
X120742Y49852D01*
X121325Y49515D01*
X121976Y49341D01*
X122650D01*
X123301Y49515D01*
X123884Y49852D01*
X124361Y50328D01*
X124698Y50912D01*
X124872Y51563D01*
Y52236D01*
X124698Y52887D01*
X124361Y53471D01*
X123884Y53947D01*
X123301Y54284D01*
X122650Y54459D01*
D02*
G37*
G36*
X103813Y55394D02*
X102880D01*
X101979Y55152D01*
X101171Y54686D01*
X100511Y54026D01*
X100045Y53218D01*
X99803Y52317D01*
Y51384D01*
X100045Y50483D01*
X100511Y49675D01*
X101171Y49015D01*
X101979Y48549D01*
X102880Y48307D01*
X103813D01*
X104714Y48549D01*
X105522Y49015D01*
X106182Y49675D01*
X106648Y50483D01*
X106890Y51384D01*
Y52317D01*
X106648Y53218D01*
X106182Y54026D01*
X105522Y54686D01*
X104714Y55152D01*
X103813Y55394D01*
D02*
G37*
G36*
X16018D02*
X15085D01*
X14184Y55152D01*
X13375Y54686D01*
X12716Y54026D01*
X12249Y53218D01*
X12008Y52317D01*
Y51384D01*
X12249Y50483D01*
X12716Y49675D01*
X13375Y49015D01*
X14184Y48549D01*
X15085Y48307D01*
X16018D01*
X16919Y48549D01*
X17727Y49015D01*
X18386Y49675D01*
X18853Y50483D01*
X19094Y51384D01*
Y52317D01*
X18853Y53218D01*
X18386Y54026D01*
X17727Y54686D01*
X16919Y55152D01*
X16018Y55394D01*
D02*
G37*
G36*
X103813Y45394D02*
X102880D01*
X101979Y45152D01*
X101171Y44686D01*
X100511Y44026D01*
X100045Y43218D01*
X99803Y42317D01*
Y41384D01*
X100045Y40483D01*
X100511Y39675D01*
X101171Y39015D01*
X101979Y38549D01*
X102880Y38307D01*
X103813D01*
X104714Y38549D01*
X105522Y39015D01*
X106182Y39675D01*
X106648Y40483D01*
X106890Y41384D01*
Y42317D01*
X106648Y43218D01*
X106182Y44026D01*
X105522Y44686D01*
X104714Y45152D01*
X103813Y45394D01*
D02*
G37*
G36*
X16018D02*
X15085D01*
X14184Y45152D01*
X13375Y44686D01*
X12716Y44026D01*
X12249Y43218D01*
X12008Y42317D01*
Y41384D01*
X12249Y40483D01*
X12716Y39675D01*
X13375Y39015D01*
X14184Y38549D01*
X15085Y38307D01*
X16018D01*
X16919Y38549D01*
X17727Y39015D01*
X18386Y39675D01*
X18853Y40483D01*
X19094Y41384D01*
Y42317D01*
X18853Y43218D01*
X18386Y44026D01*
X17727Y44686D01*
X16919Y45152D01*
X16018Y45394D01*
D02*
G37*
G36*
X103867Y35803D02*
X103847D01*
Y32350D01*
X107299D01*
Y32371D01*
X107030Y33376D01*
X106509Y34277D01*
X105773Y35013D01*
X104872Y35534D01*
X103867Y35803D01*
D02*
G37*
G36*
X102847D02*
X102826D01*
X101821Y35534D01*
X100919Y35013D01*
X100183Y34277D01*
X99663Y33376D01*
X99394Y32371D01*
Y32350D01*
X102847D01*
Y35803D01*
D02*
G37*
G36*
X16072D02*
X16051D01*
Y32350D01*
X19504D01*
Y32371D01*
X19234Y33376D01*
X18714Y34277D01*
X17978Y35013D01*
X17077Y35534D01*
X16072Y35803D01*
D02*
G37*
G36*
X15051D02*
X15031D01*
X14026Y35534D01*
X13124Y35013D01*
X12388Y34277D01*
X11868Y33376D01*
X11598Y32371D01*
Y32350D01*
X15051D01*
Y35803D01*
D02*
G37*
G36*
X107299Y31350D02*
X103847D01*
Y27898D01*
X103867D01*
X104872Y28167D01*
X105773Y28687D01*
X106509Y29423D01*
X107030Y30325D01*
X107299Y31330D01*
Y31350D01*
D02*
G37*
G36*
X102847D02*
X99394D01*
Y31330D01*
X99663Y30325D01*
X100183Y29423D01*
X100919Y28687D01*
X101821Y28167D01*
X102826Y27898D01*
X102847D01*
Y31350D01*
D02*
G37*
G36*
X19504D02*
X16051D01*
Y27898D01*
X16072D01*
X17077Y28167D01*
X17978Y28687D01*
X18714Y29423D01*
X19234Y30325D01*
X19504Y31330D01*
Y31350D01*
D02*
G37*
G36*
X15051D02*
X11598D01*
Y31330D01*
X11868Y30325D01*
X12388Y29423D01*
X13124Y28687D01*
X14026Y28167D01*
X15031Y27898D01*
X15051D01*
Y31350D01*
D02*
G37*
G36*
X157175Y16732D02*
X155817D01*
X154486Y16467D01*
X153233Y15948D01*
X152104Y15194D01*
X151144Y14234D01*
X150390Y13106D01*
X149871Y11852D01*
X149606Y10521D01*
Y9164D01*
X149871Y7833D01*
X150390Y6579D01*
X151144Y5451D01*
X152104Y4491D01*
X153233Y3737D01*
X154486Y3218D01*
X155817Y2953D01*
X157175D01*
X158506Y3218D01*
X159760Y3737D01*
X160888Y4491D01*
X161848Y5451D01*
X162602Y6579D01*
X163121Y7833D01*
X163386Y9164D01*
Y10521D01*
X163121Y11852D01*
X162602Y13106D01*
X161848Y14234D01*
X160888Y15194D01*
X159760Y15948D01*
X158506Y16467D01*
X157175Y16732D01*
D02*
G37*
%LPD*%
D27*
X103347Y101850D02*
X103460Y101737D01*
X136038D02*
X136152Y101624D01*
X103460Y101737D02*
X136038D01*
X133209Y91850D02*
X142982Y101624D01*
X103347Y91850D02*
X133209D01*
X54134Y30512D02*
Y101378D01*
X101969Y149213D01*
X103347Y151105D02*
Y151850D01*
X101969Y149213D02*
Y149727D01*
X103347Y151105D01*
D31*
Y31850D02*
D03*
Y41850D02*
D03*
Y51850D02*
D03*
Y61850D02*
D03*
Y71850D02*
D03*
Y81850D02*
D03*
Y91850D02*
D03*
Y101850D02*
D03*
Y111850D02*
D03*
Y121850D02*
D03*
Y131850D02*
D03*
Y141850D02*
D03*
Y151850D02*
D03*
Y161850D02*
D03*
Y171850D02*
D03*
Y181850D02*
D03*
Y191850D02*
D03*
Y201850D02*
D03*
X15551Y111850D02*
D03*
Y71850D02*
D03*
Y101850D02*
D03*
Y31850D02*
D03*
Y51850D02*
D03*
Y91850D02*
D03*
Y41850D02*
D03*
Y81850D02*
D03*
Y61850D02*
D03*
Y151850D02*
D03*
Y161850D02*
D03*
Y191850D02*
D03*
Y141850D02*
D03*
Y181850D02*
D03*
Y201850D02*
D03*
Y131850D02*
D03*
Y171850D02*
D03*
Y121850D02*
D03*
D32*
X156496Y9843D02*
D03*
Y218504D02*
D03*
D33*
X122313Y58730D02*
D03*
Y51900D02*
D03*
X54134Y30512D02*
D03*
D34*
X136152Y82352D02*
D03*
X142982D02*
D03*
X136152Y101624D02*
D03*
X142982D02*
D03*
D35*
X126969Y148622D02*
D03*
X136811D02*
D03*
X146653D02*
D03*
D36*
X162433Y205472D02*
D03*
Y193472D02*
D03*
Y181472D02*
D03*
Y169472D02*
D03*
Y157472D02*
D03*
Y145472D02*
D03*
Y133472D02*
D03*
Y121472D02*
D03*
Y109472D02*
D03*
Y97472D02*
D03*
Y85472D02*
D03*
Y73472D02*
D03*
Y61472D02*
D03*
Y49472D02*
D03*
Y37472D02*
D03*
Y25472D02*
D03*
X156433Y205472D02*
D03*
X159433Y199472D02*
D03*
X156433Y193472D02*
D03*
X159433Y187472D02*
D03*
X156433Y181472D02*
D03*
X159433Y175472D02*
D03*
X156433Y169472D02*
D03*
X159433Y163472D02*
D03*
X156433Y157472D02*
D03*
X159433Y151472D02*
D03*
X156433Y145472D02*
D03*
X159433Y139472D02*
D03*
X156433Y133472D02*
D03*
X159433Y127472D02*
D03*
X156433Y121472D02*
D03*
X159433Y115472D02*
D03*
X156433Y109472D02*
D03*
X159433Y103472D02*
D03*
X156433Y97472D02*
D03*
X159433Y91472D02*
D03*
X156433Y85472D02*
D03*
X159433Y79472D02*
D03*
X156433Y73472D02*
D03*
X159433Y67472D02*
D03*
X156433Y61472D02*
D03*
X159433Y55472D02*
D03*
X156433Y49472D02*
D03*
X159433Y43472D02*
D03*
X156433Y37472D02*
D03*
X159433Y31472D02*
D03*
X156433Y25472D02*
D03*
X159433Y19472D02*
D03*
X156433Y1472D02*
D03*
X150433Y205472D02*
D03*
X153433Y199472D02*
D03*
X150433Y193472D02*
D03*
X153433Y187472D02*
D03*
X150433Y181472D02*
D03*
X153433Y175472D02*
D03*
X150433Y169472D02*
D03*
X153433Y163472D02*
D03*
X150433Y157472D02*
D03*
X153433Y151472D02*
D03*
X150433Y145472D02*
D03*
X153433Y139472D02*
D03*
X150433Y133472D02*
D03*
X153433Y127472D02*
D03*
Y115472D02*
D03*
X150433Y109472D02*
D03*
X153433Y103472D02*
D03*
X150433Y97472D02*
D03*
X153433Y91472D02*
D03*
X150433Y85472D02*
D03*
X153433Y79472D02*
D03*
X150433Y73472D02*
D03*
X153433Y67472D02*
D03*
X150433Y61472D02*
D03*
X153433Y55472D02*
D03*
X150433Y49472D02*
D03*
X153433Y43472D02*
D03*
X150433Y37472D02*
D03*
X153433Y31472D02*
D03*
X150433Y25472D02*
D03*
X153433Y19472D02*
D03*
X150433Y1472D02*
D03*
X144433Y205472D02*
D03*
X147433Y199472D02*
D03*
X144433Y193472D02*
D03*
X147433Y187472D02*
D03*
X144433Y181472D02*
D03*
X147433Y175472D02*
D03*
X144433Y169472D02*
D03*
X147433Y163472D02*
D03*
X144433Y157472D02*
D03*
X147433Y139472D02*
D03*
X144433Y133472D02*
D03*
X147433Y103472D02*
D03*
X144433Y97472D02*
D03*
X147433Y91472D02*
D03*
Y79472D02*
D03*
X144433Y73472D02*
D03*
X147433Y67472D02*
D03*
X144433Y61472D02*
D03*
X147433Y55472D02*
D03*
X144433Y49472D02*
D03*
X147433Y43472D02*
D03*
X144433Y37472D02*
D03*
X147433Y31472D02*
D03*
X144433Y25472D02*
D03*
X147433Y19472D02*
D03*
X144433Y13472D02*
D03*
X147433Y7472D02*
D03*
X144433Y1472D02*
D03*
X138433Y205472D02*
D03*
X141433Y199472D02*
D03*
X138433Y193472D02*
D03*
X141433Y187472D02*
D03*
X138433Y181472D02*
D03*
X141433Y175472D02*
D03*
X138433Y169472D02*
D03*
X141433Y163472D02*
D03*
X138433Y157472D02*
D03*
X141433Y151472D02*
D03*
X138433Y133472D02*
D03*
X141433Y91472D02*
D03*
Y67472D02*
D03*
Y55472D02*
D03*
X138433Y49472D02*
D03*
X141433Y43472D02*
D03*
X138433Y37472D02*
D03*
X141433Y31472D02*
D03*
X138433Y25472D02*
D03*
X141433Y19472D02*
D03*
X138433Y13472D02*
D03*
X141433Y7472D02*
D03*
X138433Y1472D02*
D03*
X132433Y205472D02*
D03*
X135433Y199472D02*
D03*
X132433Y193472D02*
D03*
X135433Y187472D02*
D03*
X132433Y181472D02*
D03*
X135433Y175472D02*
D03*
X132433Y169472D02*
D03*
X135433Y163472D02*
D03*
X132433Y157472D02*
D03*
Y97472D02*
D03*
Y49472D02*
D03*
X135433Y43472D02*
D03*
X132433Y37472D02*
D03*
X135433Y31472D02*
D03*
X132433Y25472D02*
D03*
X135433Y19472D02*
D03*
X132433Y13472D02*
D03*
X135433Y7472D02*
D03*
X132433Y1472D02*
D03*
X126433Y205472D02*
D03*
X129433Y199472D02*
D03*
X126433Y193472D02*
D03*
X129433Y187472D02*
D03*
X126433Y181472D02*
D03*
X129433Y175472D02*
D03*
X126433Y169472D02*
D03*
X129433Y163472D02*
D03*
X126433Y157472D02*
D03*
Y133472D02*
D03*
Y85472D02*
D03*
X129433Y79472D02*
D03*
X126433Y73472D02*
D03*
X129433Y67472D02*
D03*
X126433Y61472D02*
D03*
X129433Y43472D02*
D03*
X126433Y37472D02*
D03*
X129433Y31472D02*
D03*
X126433Y25472D02*
D03*
X129433Y19472D02*
D03*
X126433Y13472D02*
D03*
X129433Y7472D02*
D03*
X126433Y1472D02*
D03*
X120433Y205472D02*
D03*
X123433Y199472D02*
D03*
X120433Y193472D02*
D03*
X123433Y187472D02*
D03*
X120433Y181472D02*
D03*
X123433Y175472D02*
D03*
X120433Y169472D02*
D03*
X123433Y163472D02*
D03*
X120433Y157472D02*
D03*
X123433Y151472D02*
D03*
X120433Y145472D02*
D03*
Y109472D02*
D03*
Y97472D02*
D03*
Y85472D02*
D03*
X123433Y79472D02*
D03*
X120433Y73472D02*
D03*
X123433Y67472D02*
D03*
Y43472D02*
D03*
X120433Y37472D02*
D03*
X123433Y31472D02*
D03*
X120433Y25472D02*
D03*
X123433Y19472D02*
D03*
X120433Y13472D02*
D03*
X123433Y7472D02*
D03*
X120433Y1472D02*
D03*
X117433Y223472D02*
D03*
X114433Y205472D02*
D03*
X117433Y199472D02*
D03*
X114433Y193472D02*
D03*
X117433Y187472D02*
D03*
X114433Y181472D02*
D03*
X117433Y175472D02*
D03*
X114433Y169472D02*
D03*
X117433Y163472D02*
D03*
X114433Y157472D02*
D03*
X117433Y151472D02*
D03*
X114433Y145472D02*
D03*
X117433Y139472D02*
D03*
X114433Y133472D02*
D03*
Y121472D02*
D03*
X117433Y115472D02*
D03*
X114433Y109472D02*
D03*
Y97472D02*
D03*
Y85472D02*
D03*
X117433Y79472D02*
D03*
X114433Y73472D02*
D03*
X117433Y67472D02*
D03*
X114433Y61472D02*
D03*
X117433Y43472D02*
D03*
X114433Y37472D02*
D03*
X117433Y31472D02*
D03*
X114433Y25472D02*
D03*
X117433Y19472D02*
D03*
X114433Y13472D02*
D03*
X117433Y7472D02*
D03*
X114433Y1472D02*
D03*
X111433Y223472D02*
D03*
X108433Y205472D02*
D03*
X111433Y199472D02*
D03*
X108433Y193472D02*
D03*
X111433Y187472D02*
D03*
X108433Y181472D02*
D03*
X111433Y175472D02*
D03*
X108433Y169472D02*
D03*
X111433Y163472D02*
D03*
X108433Y157472D02*
D03*
X111433Y151472D02*
D03*
X108433Y145472D02*
D03*
X111433Y139472D02*
D03*
X108433Y133472D02*
D03*
X111433Y115472D02*
D03*
X108433Y109472D02*
D03*
Y97472D02*
D03*
Y85472D02*
D03*
X111433Y79472D02*
D03*
X108433Y73472D02*
D03*
X111433Y67472D02*
D03*
X108433Y61472D02*
D03*
X111433Y43472D02*
D03*
X108433Y37472D02*
D03*
X111433Y31472D02*
D03*
X108433Y25472D02*
D03*
X111433Y19472D02*
D03*
X108433Y13472D02*
D03*
X111433Y7472D02*
D03*
X108433Y1472D02*
D03*
X105433Y223472D02*
D03*
Y187472D02*
D03*
Y127472D02*
D03*
Y67472D02*
D03*
X102433Y25472D02*
D03*
X105433Y19472D02*
D03*
X102433Y13472D02*
D03*
X105433Y7472D02*
D03*
X102433Y1472D02*
D03*
X99433Y223472D02*
D03*
X96433Y205472D02*
D03*
X99433Y199472D02*
D03*
X96433Y193472D02*
D03*
X99433Y187472D02*
D03*
X96433Y181472D02*
D03*
X99433Y175472D02*
D03*
X96433Y169472D02*
D03*
Y157472D02*
D03*
X99433Y139472D02*
D03*
X96433Y133472D02*
D03*
X99433Y127472D02*
D03*
X96433Y121472D02*
D03*
X99433Y115472D02*
D03*
X96433Y109472D02*
D03*
Y97472D02*
D03*
Y85472D02*
D03*
X99433Y79472D02*
D03*
X96433Y73472D02*
D03*
X99433Y67472D02*
D03*
X96433Y61472D02*
D03*
X99433Y55472D02*
D03*
X96433Y49472D02*
D03*
Y37472D02*
D03*
Y25472D02*
D03*
X99433Y19472D02*
D03*
X96433Y13472D02*
D03*
X99433Y7472D02*
D03*
X96433Y1472D02*
D03*
X93433Y223472D02*
D03*
X90433Y205472D02*
D03*
X93433Y199472D02*
D03*
X90433Y193472D02*
D03*
X93433Y187472D02*
D03*
X90433Y181472D02*
D03*
X93433Y175472D02*
D03*
X90433Y169472D02*
D03*
X93433Y163472D02*
D03*
X90433Y145472D02*
D03*
X93433Y127472D02*
D03*
X90433Y121472D02*
D03*
X93433Y115472D02*
D03*
X90433Y109472D02*
D03*
X93433Y103472D02*
D03*
X90433Y97472D02*
D03*
X93433Y91472D02*
D03*
X90433Y85472D02*
D03*
X93433Y79472D02*
D03*
X90433Y73472D02*
D03*
X93433Y67472D02*
D03*
X90433Y61472D02*
D03*
X93433Y55472D02*
D03*
X90433Y49472D02*
D03*
X93433Y31472D02*
D03*
X90433Y25472D02*
D03*
X93433Y19472D02*
D03*
X90433Y13472D02*
D03*
X93433Y7472D02*
D03*
X90433Y1472D02*
D03*
X87433Y223472D02*
D03*
X84433Y205472D02*
D03*
X87433Y199472D02*
D03*
X84433Y193472D02*
D03*
X87433Y187472D02*
D03*
X84433Y181472D02*
D03*
X87433Y175472D02*
D03*
X84433Y169472D02*
D03*
X87433Y163472D02*
D03*
X84433Y145472D02*
D03*
X87433Y139472D02*
D03*
Y127472D02*
D03*
X84433Y121472D02*
D03*
X87433Y115472D02*
D03*
X84433Y109472D02*
D03*
X87433Y103472D02*
D03*
X84433Y97472D02*
D03*
X87433Y91472D02*
D03*
X84433Y85472D02*
D03*
X87433Y79472D02*
D03*
X84433Y73472D02*
D03*
X87433Y67472D02*
D03*
X84433Y61472D02*
D03*
X87433Y55472D02*
D03*
X84433Y49472D02*
D03*
X87433Y31472D02*
D03*
X84433Y25472D02*
D03*
X87433Y19472D02*
D03*
X84433Y13472D02*
D03*
X87433Y7472D02*
D03*
X84433Y1472D02*
D03*
X81433Y223472D02*
D03*
X78433Y205472D02*
D03*
X81433Y199472D02*
D03*
X78433Y193472D02*
D03*
X81433Y187472D02*
D03*
X78433Y181472D02*
D03*
X81433Y175472D02*
D03*
X78433Y169472D02*
D03*
X81433Y163472D02*
D03*
X78433Y145472D02*
D03*
X81433Y139472D02*
D03*
X78433Y133472D02*
D03*
X81433Y115472D02*
D03*
X78433Y109472D02*
D03*
X81433Y103472D02*
D03*
X78433Y97472D02*
D03*
X81433Y91472D02*
D03*
X78433Y85472D02*
D03*
X81433Y79472D02*
D03*
X78433Y73472D02*
D03*
X81433Y67472D02*
D03*
X78433Y61472D02*
D03*
X81433Y55472D02*
D03*
X78433Y49472D02*
D03*
X81433Y31472D02*
D03*
X78433Y25472D02*
D03*
X81433Y19472D02*
D03*
X78433Y13472D02*
D03*
X81433Y7472D02*
D03*
X78433Y1472D02*
D03*
X75433Y223472D02*
D03*
X72433Y205472D02*
D03*
X75433Y199472D02*
D03*
X72433Y193472D02*
D03*
X75433Y187472D02*
D03*
X72433Y181472D02*
D03*
X75433Y175472D02*
D03*
X72433Y169472D02*
D03*
X75433Y163472D02*
D03*
X72433Y157472D02*
D03*
Y145472D02*
D03*
X75433Y139472D02*
D03*
X72433Y133472D02*
D03*
X75433Y127472D02*
D03*
Y115472D02*
D03*
X72433Y109472D02*
D03*
X75433Y103472D02*
D03*
X72433Y97472D02*
D03*
X75433Y91472D02*
D03*
X72433Y85472D02*
D03*
X75433Y79472D02*
D03*
X72433Y73472D02*
D03*
X75433Y67472D02*
D03*
X72433Y61472D02*
D03*
X75433Y55472D02*
D03*
X72433Y49472D02*
D03*
Y37472D02*
D03*
X75433Y31472D02*
D03*
X72433Y25472D02*
D03*
X75433Y19472D02*
D03*
X72433Y13472D02*
D03*
X75433Y7472D02*
D03*
X72433Y1472D02*
D03*
X69433Y223472D02*
D03*
X66433Y217472D02*
D03*
X69433Y199472D02*
D03*
X66433Y193472D02*
D03*
X69433Y187472D02*
D03*
X66433Y181472D02*
D03*
X69433Y175472D02*
D03*
X66433Y169472D02*
D03*
X69433Y163472D02*
D03*
X66433Y157472D02*
D03*
X69433Y151472D02*
D03*
X66433Y145472D02*
D03*
X69433Y139472D02*
D03*
X66433Y133472D02*
D03*
X69433Y127472D02*
D03*
X66433Y121472D02*
D03*
X69433Y103472D02*
D03*
X66433Y97472D02*
D03*
X69433Y91472D02*
D03*
X66433Y85472D02*
D03*
X69433Y79472D02*
D03*
X66433Y73472D02*
D03*
X69433Y67472D02*
D03*
X66433Y61472D02*
D03*
X69433Y55472D02*
D03*
X66433Y49472D02*
D03*
X69433Y43472D02*
D03*
X66433Y37472D02*
D03*
X69433Y31472D02*
D03*
X66433Y25472D02*
D03*
X69433Y19472D02*
D03*
X66433Y13472D02*
D03*
X69433Y7472D02*
D03*
X66433Y1472D02*
D03*
X63433Y223472D02*
D03*
X60433Y217472D02*
D03*
Y193472D02*
D03*
X63433Y187472D02*
D03*
X60433Y181472D02*
D03*
X63433Y175472D02*
D03*
X60433Y169472D02*
D03*
X63433Y163472D02*
D03*
X60433Y157472D02*
D03*
X63433Y151472D02*
D03*
X60433Y145472D02*
D03*
X63433Y139472D02*
D03*
X60433Y133472D02*
D03*
X63433Y127472D02*
D03*
X60433Y121472D02*
D03*
X63433Y115472D02*
D03*
Y103472D02*
D03*
X60433Y97472D02*
D03*
X63433Y91472D02*
D03*
X60433Y85472D02*
D03*
X63433Y79472D02*
D03*
X60433Y73472D02*
D03*
X63433Y67472D02*
D03*
X60433Y61472D02*
D03*
X63433Y55472D02*
D03*
X60433Y49472D02*
D03*
X63433Y43472D02*
D03*
X60433Y37472D02*
D03*
X63433Y31472D02*
D03*
X60433Y25472D02*
D03*
X57433Y223472D02*
D03*
X54433Y217472D02*
D03*
X57433Y211472D02*
D03*
X54433Y205472D02*
D03*
X57433Y187472D02*
D03*
X54433Y181472D02*
D03*
X57433Y175472D02*
D03*
X54433Y169472D02*
D03*
X57433Y163472D02*
D03*
X54433Y157472D02*
D03*
X57433Y151472D02*
D03*
X54433Y145472D02*
D03*
X57433Y139472D02*
D03*
X54433Y133472D02*
D03*
X57433Y127472D02*
D03*
X54433Y121472D02*
D03*
X57433Y115472D02*
D03*
X54433Y109472D02*
D03*
X57433Y91472D02*
D03*
Y79472D02*
D03*
Y67472D02*
D03*
Y55472D02*
D03*
Y43472D02*
D03*
X54433Y25472D02*
D03*
X51433Y223472D02*
D03*
X48433Y217472D02*
D03*
X51433Y211472D02*
D03*
X48433Y205472D02*
D03*
Y181472D02*
D03*
X51433Y175472D02*
D03*
X48433Y169472D02*
D03*
X51433Y163472D02*
D03*
X48433Y157472D02*
D03*
X51433Y151472D02*
D03*
X48433Y145472D02*
D03*
X51433Y139472D02*
D03*
X48433Y133472D02*
D03*
X51433Y127472D02*
D03*
X48433Y121472D02*
D03*
X51433Y115472D02*
D03*
X48433Y109472D02*
D03*
X51433Y103472D02*
D03*
X48433Y97472D02*
D03*
Y85472D02*
D03*
Y73472D02*
D03*
Y61472D02*
D03*
Y49472D02*
D03*
Y37472D02*
D03*
Y25472D02*
D03*
X45433Y223472D02*
D03*
X42433Y217472D02*
D03*
X45433Y211472D02*
D03*
X42433Y205472D02*
D03*
X45433Y199472D02*
D03*
X42433Y193472D02*
D03*
X45433Y175472D02*
D03*
X42433Y169472D02*
D03*
X45433Y163472D02*
D03*
Y151472D02*
D03*
X42433Y145472D02*
D03*
X45433Y139472D02*
D03*
X42433Y133472D02*
D03*
X45433Y127472D02*
D03*
X42433Y121472D02*
D03*
X45433Y115472D02*
D03*
X42433Y109472D02*
D03*
X45433Y103472D02*
D03*
X42433Y97472D02*
D03*
X45433Y91472D02*
D03*
X42433Y85472D02*
D03*
X45433Y79472D02*
D03*
X42433Y73472D02*
D03*
X45433Y67472D02*
D03*
X42433Y61472D02*
D03*
X45433Y55472D02*
D03*
X42433Y49472D02*
D03*
X45433Y43472D02*
D03*
X39433Y223472D02*
D03*
X36433Y217472D02*
D03*
X39433Y211472D02*
D03*
X36433Y205472D02*
D03*
X39433Y199472D02*
D03*
X36433Y193472D02*
D03*
X39433Y163472D02*
D03*
X36433Y145472D02*
D03*
X39433Y139472D02*
D03*
X36433Y133472D02*
D03*
X39433Y127472D02*
D03*
X36433Y121472D02*
D03*
X39433Y115472D02*
D03*
X36433Y109472D02*
D03*
X39433Y103472D02*
D03*
X36433Y97472D02*
D03*
X39433Y91472D02*
D03*
X36433Y85472D02*
D03*
X39433Y79472D02*
D03*
X36433Y73472D02*
D03*
X39433Y67472D02*
D03*
X36433Y61472D02*
D03*
X39433Y55472D02*
D03*
X36433Y49472D02*
D03*
X39433Y31472D02*
D03*
X36433Y25472D02*
D03*
Y13472D02*
D03*
Y1472D02*
D03*
X33433Y223472D02*
D03*
X30433Y217472D02*
D03*
X33433Y211472D02*
D03*
X30433Y205472D02*
D03*
X33433Y199472D02*
D03*
X30433Y193472D02*
D03*
X33433Y187472D02*
D03*
X30433Y181472D02*
D03*
Y145472D02*
D03*
X33433Y139472D02*
D03*
X30433Y133472D02*
D03*
X33433Y127472D02*
D03*
X30433Y121472D02*
D03*
X33433Y115472D02*
D03*
X30433Y109472D02*
D03*
X33433Y103472D02*
D03*
X30433Y97472D02*
D03*
X33433Y91472D02*
D03*
X30433Y85472D02*
D03*
X33433Y79472D02*
D03*
X30433Y73472D02*
D03*
X33433Y67472D02*
D03*
X30433Y61472D02*
D03*
X33433Y55472D02*
D03*
X30433Y49472D02*
D03*
X27433Y223472D02*
D03*
X24433Y217472D02*
D03*
X27433Y211472D02*
D03*
X24433Y205472D02*
D03*
X27433Y199472D02*
D03*
X24433Y193472D02*
D03*
X27433Y187472D02*
D03*
X24433Y181472D02*
D03*
X27433Y175472D02*
D03*
X24433Y169472D02*
D03*
X27433Y163472D02*
D03*
X24433Y145472D02*
D03*
X27433Y139472D02*
D03*
X24433Y133472D02*
D03*
X27433Y127472D02*
D03*
X24433Y121472D02*
D03*
X27433Y115472D02*
D03*
X24433Y109472D02*
D03*
X27433Y103472D02*
D03*
X24433Y97472D02*
D03*
X27433Y91472D02*
D03*
X24433Y85472D02*
D03*
X27433Y79472D02*
D03*
X24433Y73472D02*
D03*
X27433Y67472D02*
D03*
X24433Y61472D02*
D03*
X27433Y55472D02*
D03*
X24433Y49472D02*
D03*
X21433Y223472D02*
D03*
X18433Y217472D02*
D03*
X21433Y211472D02*
D03*
X18433Y205472D02*
D03*
X21433Y199472D02*
D03*
Y187472D02*
D03*
Y175472D02*
D03*
Y163472D02*
D03*
X18433Y157472D02*
D03*
X21433Y151472D02*
D03*
X18433Y145472D02*
D03*
X21433Y139472D02*
D03*
Y127472D02*
D03*
Y115472D02*
D03*
Y103472D02*
D03*
X18433Y97472D02*
D03*
X21433Y91472D02*
D03*
X18433Y85472D02*
D03*
X21433Y79472D02*
D03*
Y67472D02*
D03*
Y55472D02*
D03*
Y31472D02*
D03*
X18433Y25472D02*
D03*
X21433Y19472D02*
D03*
X18433Y13472D02*
D03*
X21433Y7472D02*
D03*
X18433Y1472D02*
D03*
X15433Y223472D02*
D03*
X12433Y217472D02*
D03*
X15433Y211472D02*
D03*
X12433Y205472D02*
D03*
Y157472D02*
D03*
Y145472D02*
D03*
Y97472D02*
D03*
Y85472D02*
D03*
Y37472D02*
D03*
Y25472D02*
D03*
X15433Y19472D02*
D03*
X12433Y13472D02*
D03*
X15433Y7472D02*
D03*
X12433Y1472D02*
D03*
X9433Y223472D02*
D03*
X6433Y217472D02*
D03*
X9433Y211472D02*
D03*
X6433Y205472D02*
D03*
X9433Y199472D02*
D03*
X6433Y193472D02*
D03*
X9433Y187472D02*
D03*
X6433Y181472D02*
D03*
X9433Y175472D02*
D03*
X6433Y169472D02*
D03*
X9433Y163472D02*
D03*
X6433Y157472D02*
D03*
X9433Y151472D02*
D03*
X6433Y145472D02*
D03*
X9433Y139472D02*
D03*
X6433Y133472D02*
D03*
X9433Y127472D02*
D03*
X6433Y121472D02*
D03*
X9433Y115472D02*
D03*
X6433Y109472D02*
D03*
X9433Y103472D02*
D03*
X6433Y97472D02*
D03*
X9433Y91472D02*
D03*
X6433Y85472D02*
D03*
X9433Y79472D02*
D03*
X6433Y73472D02*
D03*
X9433Y67472D02*
D03*
X6433Y61472D02*
D03*
X9433Y55472D02*
D03*
X6433Y49472D02*
D03*
X9433Y43472D02*
D03*
X6433Y37472D02*
D03*
X9433Y31472D02*
D03*
X6433Y25472D02*
D03*
X9433Y19472D02*
D03*
X6433Y13472D02*
D03*
X9433Y7472D02*
D03*
M02*
