G04*
G04 #@! TF.GenerationSoftware,Altium Limited,Altium Designer,24.10.1 (45)*
G04*
G04 Layer_Color=16711935*
%FSLAX25Y25*%
%MOIN*%
G70*
G04*
G04 #@! TF.SameCoordinates,DB52723A-DFEF-4DE6-841C-BB4ED9ED53CF*
G04*
G04*
G04 #@! TF.FilePolarity,Positive*
G04*
G01*
G75*
%ADD10C,0.01181*%
D10*
X0Y10000D02*
X48Y9020D01*
X192Y8049D01*
X431Y7097D01*
X761Y6173D01*
X1181Y5286D01*
X1685Y4444D01*
X2270Y3656D01*
X2929Y2929D01*
X3656Y2270D01*
X4444Y1685D01*
X5286Y1181D01*
X6173Y761D01*
X7097Y431D01*
X8049Y192D01*
X9020Y48D01*
X10000Y0D01*
X156339D02*
X157319Y48D01*
X158290Y192D01*
X159241Y431D01*
X160165Y761D01*
X161053Y1181D01*
X161894Y1685D01*
X162682Y2270D01*
X163410Y2929D01*
X164069Y3656D01*
X164653Y4444D01*
X165158Y5286D01*
X165577Y6173D01*
X165908Y7097D01*
X166146Y8049D01*
X166290Y9020D01*
X166339Y10000D01*
Y218347D02*
X166290Y219327D01*
X166146Y220297D01*
X165908Y221249D01*
X165577Y222173D01*
X165158Y223060D01*
X164653Y223902D01*
X164069Y224690D01*
X163410Y225417D01*
X162682Y226077D01*
X161894Y226661D01*
X161053Y227166D01*
X160165Y227585D01*
X159241Y227916D01*
X158290Y228154D01*
X157319Y228298D01*
X156339Y228346D01*
X10000D02*
X9020Y228298D01*
X8049Y228154D01*
X7097Y227916D01*
X6173Y227585D01*
X5286Y227166D01*
X4444Y226661D01*
X3656Y226077D01*
X2929Y225417D01*
X2270Y224690D01*
X1685Y223902D01*
X1181Y223060D01*
X761Y222173D01*
X431Y221249D01*
X192Y220297D01*
X48Y219327D01*
X0Y218347D01*
X10000Y228346D02*
X47244D01*
X55118D02*
X156339D01*
X65945Y0D02*
X156339D01*
X166339Y41339D02*
Y218347D01*
X47244Y228346D02*
X55118D01*
X10000Y0D02*
X65945D01*
X0Y10000D02*
Y157480D01*
Y218347D01*
X166339Y10000D02*
Y41339D01*
M02*
