M48
;Layer_Color=9474304
;FILE_FORMAT=2:4
INCH,TZ
;TYPE=PLATED
T01F00S00C0.0118
T02F00S00C0.0236
T03F00S00C0.0315
T04F00S00C0.0354
T05F00S00C0.0472
;TYPE=NON_PLATED
T06F00S00C0.1260
%
T01
X1243Y147
X1843
X3643
X6643
X7243
X7843
X8443
X9043
X9643
X10243
X10843
X11443
X12043
X12643
X13243
X13843
X14443
X15043
X15643
X14743Y747
X14143
X13543
X12943
X12343
X11743
X11143
X10543
X9943
X10243Y1347
X10843
X11443
X12043
X12643
X13243
X13843
X14443
X14743Y1947
X15343
X15943
X16243Y2547
X15643
X15043
X14443
X13843
X13243
X12643
X12043
X11443
X10843
X10243
X10543Y1947
X11143
X11743
X12343
X12943
X13543
X14143
Y3147
X14743
X15343
X15943
X16243Y3747
X15643
X15043
X14443
X13843
X13243
X12643
X12043
X11443
X10843
X11143Y4347
X11743
X12343
X12943
X13543
X14143
X14743
X15343
X15943
X16243Y4947
X15643
X15043
X14443
X13843
X13243
X14143Y5547
X14743
X15343
X15943
X16243Y6147
X15643
X15043
X14443
X14743Y6747
X15343
X15943
X16243Y7347
X15643
X15043
X14443
X14743Y7947
X15343
X15943
X16243Y8547
X15643
X15043
X15343Y9147
X15943
X16243Y9747
X15643
X15043
X14443
X14743Y10347
X15343
X15943
X16243Y10947
X15643
X15043
X15343Y11547
X15943
X16243Y12147
X15643
X15943Y12747
X15343
X15643Y13347
X16243
X15943Y13947
X15343
X14743
X15043Y14547
X15643
X16243
X15943Y15147
X15343
X15643Y15747
X16243
X15043
X14443
X13843
X13243
X12643
X12043
X11443
X10843
X11143Y15147
X11743
X12343
X12043Y14547
X11443
X10843
X11143Y13947
X11743
X11443Y13347
X10843
X10543Y12747
X9943
Y13947
Y11547
X11143
X11743
X12043Y10947
X11443
X10843
Y9747
X11443
X12043
X13243
X14143Y9147
X14743
X12643Y8547
X12043
X11443
X10843
X11143Y7947
X11743
X12343
X12943
X12643Y7347
X12043
X11443
X10843
X11143Y6747
X11743
X12343
X12943
X12643Y6147
X11443
X10843
X10543Y6747
X9943
Y7947
Y5547
X11143Y3147
X11743
X12343
X12943
X13543
X14143Y6747
X14443Y13347
X15043
X13843
X12643
X11443Y12147
X14143Y15147
X9943Y1947
X9343
X8743
X8143
X7543
X6943
X7243Y2547
X7843
X8443
X9043
X9643
X9343Y3147
X8743
X8143
X7543
X6943
X6343
X6643Y3747
X7243
X6943Y4347
X6343
X5743
X6043Y4947
X6643
X7243
X7843
X8443
X9043
X9643
X9343Y5547
X8743
X8143
X7543
X6943
X6343
X5743
X6043Y6147
X6643
X7243
X7843
X8443
X9043
X9643
X9343Y6747
X8743
X8143
X7543
X6943
X6343
X5743
X6043Y7347
X6643
X7243
X7843
X8443
X9043
X9643
X9343Y7947
X8743
X8143
X7543
X6943
X6343
X5743
X6043Y8547
X6643
X7243
X7843
X8443
X9043
X9643
X9343Y9147
X8743
X8143
X7543
X6943
X6343
X5743
X6043Y9747
X6643
X7243
X7843
X8443
X9043
X9643
X9343Y10347
X8743
X8143
X7543
X6943
X6343
Y11547
X5743
X5143
X4543
X3943
X3343
X2743
X2143
X2443Y12147
X3043
X3643
X4243
X4843
X5443
X6043
X6643
X6943Y12747
X7543
X7843Y13347
X7243
X6643
X6043
X5443
X4843
X4243
X3643
X3043
X2443
X2743Y13947
X3343
X3943
X4543
X5143
X5743
X6343
X6943
X7543
X8143
X8743
X9043Y14547
X8443
X7843
X7243
X6643
X6043
X5443
X4843
X4243
X3643
X3043
X2443
X1843
X1243
X643
X943Y15147
X1243Y15747
X1843
X2143Y15147
Y13947
Y12747
X2743
X3343
X3943
X4543
X5143
X5743
X6343
X8743
X9343
X9643Y13347
Y12147
X9043
X8443
X8743Y11547
X9343
X9643Y10947
X9043
X8443
X7843
X7243
X7543Y11547
X8143
X5443Y10947
X4843
X4243
X3643
X3043
X2443
X2743Y10347
X3343
X3943
X4543
X5143
X4843Y9747
X4243
X3643
X3043
X2443
X1843
X1243
X643
X943Y10347
X643Y10947
X943Y11547
X643Y12147
X943Y12747
X643Y13347
X943Y13947
X643Y15747
X4843
X5443
X6043
X6643
X7243
X6943Y15147
X6343
X5743
X5143
X4543
X9643Y15747
X4543Y9147
X3943
X3343
X2743
X2143
X2443Y8547
X3043
X3643
X4243
X4843
X4543Y7947
X3943
X3343
X2743
X2143
X2443Y7347
X3043
X3643
X4243
X4843
X4543Y6747
X3943
X3343
X2743
X2143
X2443Y6147
X3043
X3643
X4243
X4843
X4543Y5547
X3943
X3343
X2743
X2143
X2443Y4947
X3043
X3643
X4243
X4843
X4543Y4347
X4843Y3747
X6043
Y2547
X6643
Y1347
X7243
X7843
X8443
X9043
X9643
X9343Y747
X8743
X8143
X7543
X6943
X5443Y2547
X4843
X3643
X3943Y3147
X2143
X1843Y2547
X1243
X643
X943Y3147
X1243Y3747
X643
X943Y4347
X643Y4947
X943Y5547
X643Y6147
X943Y6747
X643Y7347
X943Y7947
X1243Y8547
X1843
X643
X943Y9147
X2143Y10347
Y1947
X1543
X943
X1243Y1347
X1843
X2143Y747
X1543
X943
X643Y1347
X3643
X9643Y3747
X9343Y16347
X8743
X8143
X7543
X6943
X6343
X5743
X5143
X4543
X3943
X4243Y16947
X4843
X5443
X6043
X6643
X7243
X7843
X8443
X9043
X9643
X9343Y17547
X8743
X8143
X7543
X6943
X6343
X5743
X5143
X4543
X4843Y18147
X5443
X6043
X6643
X7243
X7843
X8443
X9043
X9643
X9343Y18747
X8743
X8143
X7543
X6943
X6343
X5743
X6043Y19347
X6643
X7243
X7843
X8443
X9043
X9643
X9343Y19947
X8743
X8143
X7543
X6943
X7243Y20547
X7843
X8443
X9043
X9643
X9343Y22347
X8743
X8143
X7543
X6943
X6343
X5743
X5143
X4543
X3943
X3343
X2743
X2143
X1543
X943
X1243Y21747
X1843
X2443
X3043
X3643
X4243
X4843
X5443
X6043
X6643
X5743Y21147
X5143
X4543
X3943
X3343
X2743
X2143
X1543
X943
X1243Y20547
X1843
X2443
X3043
X3643
X4243
X4843
X5443
X4543Y19947
X3943
X3343
X2743
X2143
X2443Y19347
X3043
X3643
X4243
X3343Y18747
X2743
X2143
X2443Y18147
X3043
X2743Y17547
X2143
X2443Y16947
X2743Y16347
X2143
X943
X643Y16947
X943Y17547
X643Y18147
X943Y18747
X643Y19347
X943Y19947
X643Y20547
Y21747
X9943Y22347
X10543
X11143
X11743
X12043Y20547
X12643
X13243
X13843
X14443
X15043
X15643
X16243
X15943Y19947
X15343
X14743
X14143
X13543
X12943
X12343
X11743
X11143
X11443Y20547
X10843
Y19347
X11443
X12043
X12643
X13243
X13843
X14443
X15043
X15643
X16243
X15943Y18747
X15343
X14743
X14143
X13543
X12943
X12343
X11743
X11143
X10543
X9943
Y19947
Y17547
X11143
X11743
X12343
X12943
X13543
X14143
X14743
X15343
X15943
X16243Y18147
X15643
X15043
X14443
X13843
X13243
X12643
X12043
X11443
X10843
Y16947
X11443
X12043
X12643
X13243
X13843
X14443
X15043
X15643
X16243
X15943Y16347
X15343
X14743
X14143
X13543
X12943
X12343
X11743
X11143
T02
X13615Y8235
X14298
Y10162
X13615
T03
X12231Y5190
Y5873
X5413Y3051
T04
X12697Y14862
X13681
X14665
T05
X10335Y3185
Y4185
Y5185
Y6185
Y7185
Y8185
Y9185
Y10185
Y11185
Y12185
Y13185
Y14185
Y15185
X1555
Y14185
Y13185
Y12185
Y11185
Y10185
Y9185
Y8185
Y7185
Y6185
Y5185
Y4185
Y3185
Y16185
Y17185
Y18185
Y19185
Y20185
X10335
Y19185
Y18185
Y17185
Y16185
T06
X15650Y984
Y21850
M30
