G04*
G04 #@! TF.GenerationSoftware,Altium Limited,Altium Designer,24.10.1 (45)*
G04*
G04 Layer_Color=16711935*
%FSLAX25Y25*%
%MOIN*%
G70*
G04*
G04 #@! TF.SameCoordinates,DB52723A-DFEF-4DE6-841C-BB4ED9ED53CF*
G04*
G04*
G04 #@! TF.FilePolarity,Negative*
G04*
G01*
G75*
%ADD16C,0.06706*%
%ADD17C,0.13398*%
%ADD18C,0.04737*%
%ADD19C,0.05524*%
%ADD20C,0.06312*%
D16*
X103347Y31850D02*
D03*
Y41850D02*
D03*
Y51850D02*
D03*
Y61850D02*
D03*
Y71850D02*
D03*
Y81850D02*
D03*
Y91850D02*
D03*
Y101850D02*
D03*
Y111850D02*
D03*
Y121850D02*
D03*
Y131850D02*
D03*
Y141850D02*
D03*
Y151850D02*
D03*
Y161850D02*
D03*
Y171850D02*
D03*
Y181850D02*
D03*
Y191850D02*
D03*
Y201850D02*
D03*
X15551Y111850D02*
D03*
Y71850D02*
D03*
Y101850D02*
D03*
Y31850D02*
D03*
Y51850D02*
D03*
Y91850D02*
D03*
Y41850D02*
D03*
Y81850D02*
D03*
Y61850D02*
D03*
Y151850D02*
D03*
Y161850D02*
D03*
Y191850D02*
D03*
Y141850D02*
D03*
Y181850D02*
D03*
Y201850D02*
D03*
Y131850D02*
D03*
Y171850D02*
D03*
Y121850D02*
D03*
D17*
X156496Y9843D02*
D03*
Y218504D02*
D03*
D18*
X122313Y58730D02*
D03*
Y51900D02*
D03*
D19*
X136152Y82352D02*
D03*
X142982D02*
D03*
X136152Y101624D02*
D03*
X142982D02*
D03*
D20*
X126969Y148622D02*
D03*
X136811D02*
D03*
X146653D02*
D03*
M02*
