%TF.GenerationSoftware,KiCad,Pcbnew,10.0.0*%
%TF.CreationDate,2026-04-06T13:10:34+08:00*%
%TF.ProjectId,CrowdAware Node v1.0,43726f77-6441-4776-9172-65204e6f6465,B*%
%TF.SameCoordinates,Original*%
%TF.FileFunction,Copper,L2,Bot*%
%TF.FilePolarity,Positive*%
%FSLAX46Y46*%
G04 Gerber Fmt 4.6, Leading zero omitted, Abs format (unit mm)*
G04 Created by KiCad (PCBNEW 10.0.0) date 2026-04-06 13:10:34*
%MOMM*%
%LPD*%
G01*
G04 APERTURE LIST*
%TA.AperFunction,ComponentPad*%
%ADD10R,1.100000X1.100000*%
%TD*%
%TA.AperFunction,ComponentPad*%
%ADD11C,1.100000*%
%TD*%
%TA.AperFunction,ComponentPad*%
%ADD12C,1.700000*%
%TD*%
%TA.AperFunction,ComponentPad*%
%ADD13R,1.700000X1.700000*%
%TD*%
G04 APERTURE END LIST*
D10*
%TO.P,A1,1,SDA_1*%
%TO.N,/SDA*%
X90017434Y-77008725D03*
D11*
%TO.P,A1,2,VDD_2*%
%TO.N,V_EXT*%
X90017436Y-71613273D03*
%TO.P,A1,3,GND_3*%
%TO.N,GND*%
X87782566Y-71613275D03*
%TO.P,A1,4,SCL_4*%
%TO.N,/SCL*%
X87782564Y-77008727D03*
%TD*%
D12*
%TO.P,J1,1,Pin_1_1*%
%TO.N,unconnected-(J1-Pin_1-Pad1)*%
X125730000Y-84328000D03*
%TO.P,J1,2,Pin_2_2*%
%TO.N,unconnected-(J1-Pin_2-Pad2)*%
X125730000Y-61468000D03*
%TO.P,J1,3,Pin_3_3*%
%TO.N,unconnected-(J1-Pin_3-Pad3)*%
X123190000Y-84328000D03*
%TO.P,J1,4,Pin_4_4*%
%TO.N,unconnected-(J1-Pin_4-Pad4)*%
X123190000Y-61468000D03*
%TO.P,J1,5,Pin_5_5*%
%TO.N,unconnected-(J1-Pin_5-Pad5)*%
X120650000Y-84328000D03*
%TO.P,J1,6,Pin_6_6*%
%TO.N,unconnected-(J1-Pin_6-Pad6)*%
X120650000Y-61468000D03*
%TO.P,J1,7,Pin_7_7*%
%TO.N,unconnected-(J1-Pin_7-Pad7)*%
X118110000Y-84328000D03*
%TO.P,J1,8,Pin_8_8*%
%TO.N,unconnected-(J1-Pin_8-Pad8)*%
X118110000Y-61468000D03*
%TO.P,J1,9,Pin_9_9*%
%TO.N,unconnected-(J1-Pin_9-Pad9)*%
X115570000Y-84328000D03*
%TO.P,J1,10,Pin_10_10*%
%TO.N,unconnected-(J1-Pin_10-Pad10)*%
X115570000Y-61468000D03*
%TO.P,J1,11,Pin_11_11*%
%TO.N,unconnected-(J1-Pin_11-Pad11)*%
X113030000Y-84328000D03*
%TO.P,J1,12,Pin_12_12*%
%TO.N,unconnected-(J1-Pin_12-Pad12)*%
X113030000Y-61468000D03*
%TO.P,J1,13,Pin_13_13*%
%TO.N,unconnected-(J1-Pin_13-Pad13)*%
X110490000Y-84328000D03*
%TO.P,J1,14,Pin_14_14*%
%TO.N,unconnected-(J1-Pin_14-Pad14)*%
X110490000Y-61468000D03*
%TO.P,J1,15,Pin_15_15*%
%TO.N,unconnected-(J1-Pin_15-Pad15)*%
X107950000Y-84328000D03*
%TO.P,J1,16,Pin_16_16*%
%TO.N,unconnected-(J1-Pin_16-Pad16)*%
X107950000Y-61468000D03*
%TO.P,J1,17,Pin_17_17*%
%TO.N,unconnected-(J1-Pin_17-Pad17)*%
X105410000Y-84328000D03*
%TO.P,J1,18,Pin_18_18*%
%TO.N,unconnected-(J1-Pin_18-Pad18)*%
X105410000Y-61468000D03*
%TO.P,J1,19,Pin_19_19*%
%TO.N,unconnected-(J1-Pin_19-Pad19)*%
X102870000Y-84328000D03*
%TO.P,J1,20,Pin_20_20*%
%TO.N,unconnected-(J1-Pin_20-Pad20)*%
X102870000Y-61468000D03*
%TO.P,J1,21,Pin_21_21*%
%TO.N,/SCL*%
X100330000Y-84328000D03*
%TO.P,J1,22,Pin_22_22*%
%TO.N,unconnected-(J1-Pin_22-Pad22)*%
X100330000Y-61468000D03*
%TO.P,J1,23,Pin_23_23*%
%TO.N,/SDA*%
X97790000Y-84328000D03*
%TO.P,J1,24,Pin_24_24*%
%TO.N,unconnected-(J1-Pin_24-Pad24)*%
X97790000Y-61468000D03*
%TO.P,J1,25,Pin_25_25*%
%TO.N,unconnected-(J1-Pin_25-Pad25)*%
X95250000Y-84328000D03*
%TO.P,J1,26,Pin_26_26*%
%TO.N,unconnected-(J1-Pin_26-Pad26)*%
X95250000Y-61468000D03*
%TO.P,J1,27,Pin_27_27*%
%TO.N,unconnected-(J1-Pin_27-Pad27)*%
X92710000Y-84328000D03*
%TO.P,J1,28,Pin_28_28*%
%TO.N,unconnected-(J1-Pin_28-Pad28)*%
X92710000Y-61468000D03*
%TO.P,J1,29,Pin_29_29*%
%TO.N,unconnected-(J1-Pin_29-Pad29)*%
X90170000Y-84328000D03*
%TO.P,J1,30,Pin_30_30*%
%TO.N,V_EXT*%
X90170000Y-61468000D03*
%TO.P,J1,31,Pin_31_31*%
%TO.N,+3V3*%
X87630000Y-84328000D03*
%TO.P,J1,32,Pin_32_32*%
%TO.N,V_EXT*%
X87630000Y-61468000D03*
%TO.P,J1,33,Pin_33_33*%
%TO.N,+3V3*%
X85090000Y-84328000D03*
%TO.P,J1,34,Pin_34_34*%
%TO.N,unconnected-(J1-Pin_34-Pad34)*%
X85090000Y-61468000D03*
D13*
%TO.P,J1,35,Pin_35_35*%
%TO.N,GND*%
X82550000Y-84328000D03*
%TO.P,J1,36,Pin_36_36*%
X82550000Y-61468000D03*
%TD*%
%TA.AperFunction,Conductor*%
%TO.N,GND*%
G36*
X77483895Y-55191970D02*
G01*
X77497693Y-55193524D01*
X77815584Y-55247536D01*
X77829140Y-55250630D01*
X78138983Y-55339895D01*
X78152109Y-55344488D01*
X78450006Y-55467881D01*
X78462520Y-55473907D01*
X78479312Y-55483188D01*
X78744734Y-55629882D01*
X78756508Y-55637280D01*
X78967562Y-55787030D01*
X79019477Y-55823865D01*
X79030349Y-55832535D01*
X79270774Y-56047392D01*
X79280607Y-56057225D01*
X79495464Y-56297650D01*
X79504134Y-56308522D01*
X79690719Y-56571491D01*
X79698117Y-56583265D01*
X79854088Y-56865472D01*
X79860121Y-56878000D01*
X79983511Y-57175891D01*
X79988104Y-57189016D01*
X80077368Y-57498858D01*
X80080462Y-57512415D01*
X80134473Y-57830296D01*
X80136030Y-57844113D01*
X80154109Y-58166046D01*
X80154305Y-58169527D01*
X80154500Y-58176480D01*
X80154500Y-58238891D01*
X80188608Y-58366187D01*
X80221554Y-58423250D01*
X80254500Y-58480314D01*
X80347686Y-58573500D01*
X80461814Y-58639392D01*
X80589108Y-58673500D01*
X80589110Y-58673500D01*
X127720890Y-58673500D01*
X127720892Y-58673500D01*
X127848186Y-58639392D01*
X127962314Y-58573500D01*
X128055500Y-58480314D01*
X128121392Y-58366186D01*
X128155500Y-58238892D01*
X128155500Y-58176480D01*
X128155695Y-58169528D01*
X128162311Y-58051711D01*
X129304500Y-58051711D01*
X129304500Y-58294288D01*
X129336161Y-58534785D01*
X129398947Y-58769104D01*
X129428500Y-58840451D01*
X129491776Y-58993212D01*
X129613064Y-59203289D01*
X129613066Y-59203292D01*
X129613067Y-59203293D01*
X129760733Y-59395736D01*
X129760739Y-59395743D01*
X129932256Y-59567260D01*
X129932262Y-59567265D01*
X130124711Y-59714936D01*
X130334788Y-59836224D01*
X130558900Y-59929054D01*
X130793211Y-59991838D01*
X130973586Y-60015584D01*
X131033711Y-60023500D01*
X131033712Y-60023500D01*
X131276289Y-60023500D01*
X131324388Y-60017167D01*
X131516789Y-59991838D01*
X131751100Y-59929054D01*
X131975212Y-59836224D01*
X132185289Y-59714936D01*
X132377738Y-59567265D01*
X132549265Y-59395738D01*
X132696936Y-59203289D01*
X132818224Y-58993212D01*
X132911054Y-58769100D01*
X132973838Y-58534789D01*
X133005500Y-58294288D01*
X133005500Y-58051712D01*
X133004050Y-58040701D01*
X132995594Y-57976468D01*
X132973838Y-57811211D01*
X132911054Y-57576900D01*
X132818224Y-57352788D01*
X132696936Y-57142711D01*
X132549265Y-56950262D01*
X132549260Y-56950256D01*
X132377743Y-56778739D01*
X132377736Y-56778733D01*
X132185293Y-56631067D01*
X132185292Y-56631066D01*
X132185289Y-56631064D01*
X131975212Y-56509776D01*
X131975205Y-56509773D01*
X131751104Y-56416947D01*
X131516785Y-56354161D01*
X131276289Y-56322500D01*
X131276288Y-56322500D01*
X131033712Y-56322500D01*
X131033711Y-56322500D01*
X130793214Y-56354161D01*
X130558895Y-56416947D01*
X130334794Y-56509773D01*
X130334785Y-56509777D01*
X130124706Y-56631067D01*
X129932263Y-56778733D01*
X129932256Y-56778739D01*
X129760739Y-56950256D01*
X129760733Y-56950263D01*
X129613067Y-57142706D01*
X129491777Y-57352785D01*
X129491773Y-57352794D01*
X129398947Y-57576895D01*
X129336161Y-57811214D01*
X129304500Y-58051711D01*
X128162311Y-58051711D01*
X128173970Y-57844102D01*
X128175524Y-57830309D01*
X128229537Y-57512410D01*
X128232631Y-57498858D01*
X128274712Y-57352794D01*
X128321896Y-57189012D01*
X128326488Y-57175891D01*
X128340234Y-57142706D01*
X128449884Y-56877985D01*
X128455903Y-56865486D01*
X128611885Y-56583259D01*
X128619280Y-56571491D01*
X128805872Y-56308512D01*
X128814527Y-56297658D01*
X129029402Y-56057214D01*
X129039214Y-56047402D01*
X129279658Y-55832527D01*
X129290512Y-55823872D01*
X129553496Y-55637276D01*
X129565259Y-55629885D01*
X129847486Y-55473903D01*
X129859985Y-55467884D01*
X130157895Y-55344486D01*
X130171012Y-55339896D01*
X130480865Y-55250628D01*
X130494411Y-55247537D01*
X130812308Y-55193524D01*
X130826102Y-55191970D01*
X131148055Y-55173890D01*
X131161945Y-55173890D01*
X131483896Y-55191970D01*
X131497694Y-55193524D01*
X131815585Y-55247536D01*
X131829139Y-55250629D01*
X132138997Y-55339899D01*
X132152094Y-55344482D01*
X132450006Y-55467881D01*
X132462520Y-55473907D01*
X132479312Y-55483188D01*
X132744734Y-55629881D01*
X132756508Y-55637279D01*
X133019477Y-55823865D01*
X133030349Y-55832535D01*
X133270774Y-56047392D01*
X133280607Y-56057225D01*
X133495464Y-56297650D01*
X133504134Y-56308522D01*
X133690720Y-56571491D01*
X133698118Y-56583265D01*
X133854088Y-56865472D01*
X133860121Y-56878000D01*
X133983512Y-57175891D01*
X133988105Y-57189016D01*
X134077369Y-57498858D01*
X134080463Y-57512415D01*
X134134473Y-57830295D01*
X134136030Y-57844113D01*
X134154109Y-58166046D01*
X134154109Y-58179952D01*
X134136030Y-58501885D01*
X134134473Y-58515703D01*
X134080463Y-58833583D01*
X134077369Y-58847140D01*
X133988104Y-59156983D01*
X133983511Y-59170108D01*
X133860121Y-59467999D01*
X133854088Y-59480527D01*
X133698117Y-59762734D01*
X133690719Y-59774508D01*
X133504134Y-60037477D01*
X133495464Y-60048349D01*
X133280607Y-60288774D01*
X133270774Y-60298607D01*
X133030349Y-60513464D01*
X133019477Y-60522134D01*
X132756508Y-60708719D01*
X132744734Y-60716117D01*
X132462527Y-60872088D01*
X132449999Y-60878121D01*
X132152108Y-61001511D01*
X132138983Y-61006104D01*
X131829141Y-61095368D01*
X131815584Y-61098462D01*
X131497703Y-61152473D01*
X131483885Y-61154030D01*
X131158472Y-61172305D01*
X131151519Y-61172500D01*
X131089108Y-61172500D01*
X130961812Y-61206608D01*
X130847686Y-61272500D01*
X130847683Y-61272502D01*
X130754502Y-61365683D01*
X130754500Y-61365686D01*
X130688608Y-61479812D01*
X130663294Y-61574287D01*
X130654500Y-61607108D01*
X130654500Y-84107108D01*
X130654500Y-84238892D01*
X130671554Y-84302539D01*
X130688608Y-84366187D01*
X130704566Y-84393826D01*
X130754500Y-84480314D01*
X130847686Y-84573500D01*
X130961814Y-84639392D01*
X131089108Y-84673500D01*
X131151519Y-84673500D01*
X131158471Y-84673695D01*
X131198628Y-84675950D01*
X131483893Y-84691970D01*
X131497692Y-84693524D01*
X131815584Y-84747537D01*
X131829141Y-84750631D01*
X132138983Y-84839895D01*
X132152109Y-84844488D01*
X132450006Y-84967881D01*
X132462520Y-84973907D01*
X132479312Y-84983188D01*
X132744734Y-85129882D01*
X132756508Y-85137280D01*
X133019477Y-85323865D01*
X133030349Y-85332535D01*
X133257116Y-85535187D01*
X133270774Y-85547392D01*
X133280607Y-85557225D01*
X133495464Y-85797650D01*
X133504134Y-85808522D01*
X133690719Y-86071491D01*
X133698117Y-86083265D01*
X133854088Y-86365472D01*
X133860121Y-86378000D01*
X133983511Y-86675891D01*
X133988104Y-86689016D01*
X134077369Y-86998859D01*
X134080463Y-87012416D01*
X134134473Y-87330296D01*
X134136030Y-87344114D01*
X134154109Y-87666047D01*
X134154109Y-87679953D01*
X134136030Y-88001886D01*
X134134473Y-88015704D01*
X134080463Y-88333584D01*
X134077369Y-88347141D01*
X133988105Y-88656983D01*
X133983512Y-88670108D01*
X133860121Y-88967999D01*
X133854088Y-88980527D01*
X133698118Y-89262734D01*
X133690720Y-89274508D01*
X133504134Y-89537477D01*
X133495464Y-89548349D01*
X133280607Y-89788774D01*
X133270774Y-89798607D01*
X133030349Y-90013464D01*
X133019477Y-90022134D01*
X132756508Y-90208720D01*
X132744734Y-90216118D01*
X132462527Y-90372088D01*
X132449999Y-90378121D01*
X132152108Y-90501512D01*
X132138983Y-90506105D01*
X131829141Y-90595369D01*
X131815584Y-90598463D01*
X131497704Y-90652473D01*
X131483886Y-90654030D01*
X131161953Y-90672109D01*
X131148047Y-90672109D01*
X130826114Y-90654030D01*
X130812296Y-90652473D01*
X130494416Y-90598463D01*
X130480859Y-90595369D01*
X130171016Y-90506104D01*
X130157891Y-90501511D01*
X129860000Y-90378121D01*
X129847472Y-90372088D01*
X129565265Y-90216117D01*
X129553491Y-90208719D01*
X129290522Y-90022134D01*
X129279650Y-90013464D01*
X129039225Y-89798607D01*
X129029392Y-89788774D01*
X128814535Y-89548349D01*
X128805865Y-89537477D01*
X128619280Y-89274508D01*
X128611882Y-89262734D01*
X128455911Y-88980527D01*
X128449881Y-88968006D01*
X128326488Y-88670108D01*
X128321895Y-88656983D01*
X128232631Y-88347141D01*
X128229537Y-88333584D01*
X128217154Y-88260703D01*
X128175524Y-88015692D01*
X128173970Y-88001893D01*
X128155500Y-87673000D01*
X128155500Y-87607108D01*
X128140657Y-87551711D01*
X129304500Y-87551711D01*
X129304500Y-87794288D01*
X129336161Y-88034785D01*
X129398947Y-88269104D01*
X129491773Y-88493205D01*
X129491776Y-88493212D01*
X129613064Y-88703289D01*
X129613066Y-88703292D01*
X129613067Y-88703293D01*
X129760733Y-88895736D01*
X129760739Y-88895743D01*
X129932256Y-89067260D01*
X129932262Y-89067265D01*
X130124711Y-89214936D01*
X130334788Y-89336224D01*
X130558900Y-89429054D01*
X130793211Y-89491838D01*
X130973586Y-89515584D01*
X131033711Y-89523500D01*
X131033712Y-89523500D01*
X131276289Y-89523500D01*
X131324388Y-89517167D01*
X131516789Y-89491838D01*
X131751100Y-89429054D01*
X131975212Y-89336224D01*
X132185289Y-89214936D01*
X132377738Y-89067265D01*
X132549265Y-88895738D01*
X132696936Y-88703289D01*
X132818224Y-88493212D01*
X132911054Y-88269100D01*
X132973838Y-88034789D01*
X133005500Y-87794288D01*
X133005500Y-87551712D01*
X133004050Y-87540701D01*
X132995594Y-87476468D01*
X132973838Y-87311211D01*
X132911054Y-87076900D01*
X132818224Y-86852788D01*
X132696936Y-86642711D01*
X132549265Y-86450262D01*
X132549260Y-86450256D01*
X132377743Y-86278739D01*
X132377736Y-86278733D01*
X132185293Y-86131067D01*
X132185292Y-86131066D01*
X132185289Y-86131064D01*
X131975212Y-86009776D01*
X131975205Y-86009773D01*
X131751104Y-85916947D01*
X131516785Y-85854161D01*
X131276289Y-85822500D01*
X131276288Y-85822500D01*
X131033712Y-85822500D01*
X131033711Y-85822500D01*
X130793214Y-85854161D01*
X130558895Y-85916947D01*
X130334794Y-86009773D01*
X130334785Y-86009777D01*
X130124706Y-86131067D01*
X129932263Y-86278733D01*
X129932256Y-86278739D01*
X129760739Y-86450256D01*
X129760733Y-86450263D01*
X129613067Y-86642706D01*
X129491777Y-86852785D01*
X129491773Y-86852794D01*
X129398947Y-87076895D01*
X129336161Y-87311214D01*
X129304500Y-87551711D01*
X128140657Y-87551711D01*
X128121392Y-87479814D01*
X128055500Y-87365686D01*
X127962314Y-87272500D01*
X127905250Y-87239554D01*
X127848187Y-87206608D01*
X127784539Y-87189554D01*
X127720892Y-87172500D01*
X80720892Y-87172500D01*
X80589108Y-87172500D01*
X80461812Y-87206608D01*
X80347686Y-87272500D01*
X80347683Y-87272502D01*
X80254502Y-87365683D01*
X80254500Y-87365686D01*
X80188608Y-87479812D01*
X80154500Y-87607108D01*
X80154500Y-87669519D01*
X80154305Y-87676472D01*
X80136030Y-88001885D01*
X80134473Y-88015703D01*
X80080462Y-88333584D01*
X80077368Y-88347141D01*
X79988104Y-88656983D01*
X79983511Y-88670108D01*
X79860121Y-88967999D01*
X79854088Y-88980527D01*
X79698117Y-89262734D01*
X79690719Y-89274508D01*
X79504134Y-89537477D01*
X79495464Y-89548349D01*
X79280607Y-89788774D01*
X79270774Y-89798607D01*
X79030349Y-90013464D01*
X79019477Y-90022134D01*
X78756508Y-90208719D01*
X78744734Y-90216117D01*
X78462527Y-90372088D01*
X78449999Y-90378121D01*
X78152108Y-90501511D01*
X78138983Y-90506104D01*
X77829140Y-90595369D01*
X77815583Y-90598463D01*
X77497703Y-90652473D01*
X77483885Y-90654030D01*
X77161952Y-90672109D01*
X77148046Y-90672109D01*
X76826113Y-90654030D01*
X76812295Y-90652473D01*
X76494415Y-90598463D01*
X76480858Y-90595369D01*
X76246491Y-90527849D01*
X76171012Y-90506103D01*
X76157895Y-90501513D01*
X75860000Y-90378121D01*
X75847472Y-90372088D01*
X75565265Y-90216118D01*
X75553491Y-90208720D01*
X75290522Y-90022134D01*
X75279650Y-90013464D01*
X75039225Y-89798607D01*
X75029392Y-89788774D01*
X74814535Y-89548349D01*
X74805865Y-89537477D01*
X74773482Y-89491838D01*
X74619279Y-89274508D01*
X74611881Y-89262734D01*
X74503850Y-89067266D01*
X74455907Y-88980520D01*
X74449881Y-88968006D01*
X74326482Y-88670094D01*
X74321899Y-88656997D01*
X74232629Y-88347139D01*
X74229536Y-88333584D01*
X74175524Y-88015694D01*
X74173970Y-88001896D01*
X74155890Y-87679944D01*
X74155890Y-87666048D01*
X74159200Y-87607108D01*
X74162311Y-87551711D01*
X75304500Y-87551711D01*
X75304500Y-87794288D01*
X75336161Y-88034785D01*
X75398947Y-88269104D01*
X75491773Y-88493205D01*
X75491776Y-88493212D01*
X75613064Y-88703289D01*
X75613066Y-88703292D01*
X75613067Y-88703293D01*
X75760733Y-88895736D01*
X75760739Y-88895743D01*
X75932256Y-89067260D01*
X75932262Y-89067265D01*
X76124711Y-89214936D01*
X76334788Y-89336224D01*
X76558900Y-89429054D01*
X76793211Y-89491838D01*
X76973586Y-89515584D01*
X77033711Y-89523500D01*
X77033712Y-89523500D01*
X77276289Y-89523500D01*
X77324388Y-89517167D01*
X77516789Y-89491838D01*
X77751100Y-89429054D01*
X77975212Y-89336224D01*
X78185289Y-89214936D01*
X78377738Y-89067265D01*
X78549265Y-88895738D01*
X78696936Y-88703289D01*
X78818224Y-88493212D01*
X78911054Y-88269100D01*
X78973838Y-88034789D01*
X79005500Y-87794288D01*
X79005500Y-87551712D01*
X79004050Y-87540701D01*
X78995594Y-87476468D01*
X78973838Y-87311211D01*
X78911054Y-87076900D01*
X78818224Y-86852788D01*
X78696936Y-86642711D01*
X78549265Y-86450262D01*
X78549260Y-86450256D01*
X78377743Y-86278739D01*
X78377736Y-86278733D01*
X78185293Y-86131067D01*
X78185292Y-86131066D01*
X78185289Y-86131064D01*
X77975212Y-86009776D01*
X77975205Y-86009773D01*
X77751104Y-85916947D01*
X77516785Y-85854161D01*
X77276289Y-85822500D01*
X77276288Y-85822500D01*
X77033712Y-85822500D01*
X77033711Y-85822500D01*
X76793214Y-85854161D01*
X76558895Y-85916947D01*
X76334794Y-86009773D01*
X76334785Y-86009777D01*
X76124706Y-86131067D01*
X75932263Y-86278733D01*
X75932256Y-86278739D01*
X75760739Y-86450256D01*
X75760733Y-86450263D01*
X75613067Y-86642706D01*
X75491777Y-86852785D01*
X75491773Y-86852794D01*
X75398947Y-87076895D01*
X75336161Y-87311214D01*
X75304500Y-87551711D01*
X74162311Y-87551711D01*
X74173970Y-87344102D01*
X74175524Y-87330308D01*
X74229537Y-87012411D01*
X74232630Y-86998859D01*
X74318793Y-86699785D01*
X74321896Y-86689012D01*
X74326488Y-86675891D01*
X74340234Y-86642706D01*
X74449884Y-86377985D01*
X74455903Y-86365486D01*
X74611885Y-86083259D01*
X74619280Y-86071491D01*
X74805872Y-85808512D01*
X74814527Y-85797658D01*
X75029402Y-85557214D01*
X75039214Y-85547402D01*
X75279658Y-85332527D01*
X75290512Y-85323872D01*
X75553496Y-85137276D01*
X75565259Y-85129885D01*
X75847486Y-84973903D01*
X75859985Y-84967884D01*
X76157895Y-84844486D01*
X76171012Y-84839896D01*
X76480863Y-84750629D01*
X76494410Y-84747537D01*
X76812309Y-84693524D01*
X76826104Y-84691970D01*
X77114772Y-84675759D01*
X77151529Y-84673695D01*
X77158481Y-84673500D01*
X77220890Y-84673500D01*
X77220892Y-84673500D01*
X77348186Y-84639392D01*
X77462314Y-84573500D01*
X77555500Y-84480314D01*
X77621392Y-84366186D01*
X77655500Y-84238892D01*
X77655500Y-84107108D01*
X77655500Y-83430155D01*
X81200000Y-83430155D01*
X81200000Y-84078000D01*
X82116988Y-84078000D01*
X82084075Y-84135007D01*
X82050000Y-84262174D01*
X82050000Y-84393826D01*
X82084075Y-84520993D01*
X82116988Y-84578000D01*
X81200000Y-84578000D01*
X81200000Y-85225844D01*
X81206401Y-85285372D01*
X81206403Y-85285379D01*
X81256645Y-85420086D01*
X81256649Y-85420093D01*
X81342809Y-85535187D01*
X81342812Y-85535190D01*
X81457906Y-85621350D01*
X81457913Y-85621354D01*
X81592620Y-85671596D01*
X81592627Y-85671598D01*
X81652155Y-85677999D01*
X81652172Y-85678000D01*
X82300000Y-85678000D01*
X82300000Y-84761012D01*
X82357007Y-84793925D01*
X82484174Y-84828000D01*
X82615826Y-84828000D01*
X82742993Y-84793925D01*
X82800000Y-84761012D01*
X82800000Y-85678000D01*
X83447828Y-85678000D01*
X83447844Y-85677999D01*
X83507372Y-85671598D01*
X83507379Y-85671596D01*
X83642086Y-85621354D01*
X83642093Y-85621350D01*
X83757187Y-85535190D01*
X83757190Y-85535187D01*
X83843350Y-85420093D01*
X83843354Y-85420086D01*
X83892422Y-85288529D01*
X83934293Y-85232595D01*
X83999757Y-85208178D01*
X84068030Y-85223030D01*
X84096285Y-85244181D01*
X84210213Y-85358109D01*
X84382179Y-85483048D01*
X84382181Y-85483049D01*
X84382184Y-85483051D01*
X84571588Y-85579557D01*
X84773757Y-85645246D01*
X84983713Y-85678500D01*
X84983714Y-85678500D01*
X85196286Y-85678500D01*
X85196287Y-85678500D01*
X85406243Y-85645246D01*
X85608412Y-85579557D01*
X85797816Y-85483051D01*
X85884471Y-85420093D01*
X85969786Y-85358109D01*
X85969788Y-85358106D01*
X85969792Y-85358104D01*
X86120104Y-85207792D01*
X86120106Y-85207788D01*
X86120109Y-85207786D01*
X86245048Y-85035820D01*
X86245047Y-85035820D01*
X86245051Y-85035816D01*
X86249514Y-85027054D01*
X86297488Y-84976259D01*
X86365308Y-84959463D01*
X86431444Y-84981999D01*
X86470486Y-85027056D01*
X86474951Y-85035820D01*
X86599890Y-85207786D01*
X86750213Y-85358109D01*
X86922179Y-85483048D01*
X86922181Y-85483049D01*
X86922184Y-85483051D01*
X87111588Y-85579557D01*
X87313757Y-85645246D01*
X87523713Y-85678500D01*
X87523714Y-85678500D01*
X87736286Y-85678500D01*
X87736287Y-85678500D01*
X87946243Y-85645246D01*
X88148412Y-85579557D01*
X88337816Y-85483051D01*
X88424471Y-85420093D01*
X88509786Y-85358109D01*
X88509788Y-85358106D01*
X88509792Y-85358104D01*
X88660104Y-85207792D01*
X88660106Y-85207788D01*
X88660109Y-85207786D01*
X88785048Y-85035820D01*
X88785047Y-85035820D01*
X88785051Y-85035816D01*
X88789514Y-85027054D01*
X88837488Y-84976259D01*
X88905308Y-84959463D01*
X88971444Y-84981999D01*
X89010486Y-85027056D01*
X89014951Y-85035820D01*
X89139890Y-85207786D01*
X89290213Y-85358109D01*
X89462179Y-85483048D01*
X89462181Y-85483049D01*
X89462184Y-85483051D01*
X89651588Y-85579557D01*
X89853757Y-85645246D01*
X90063713Y-85678500D01*
X90063714Y-85678500D01*
X90276286Y-85678500D01*
X90276287Y-85678500D01*
X90486243Y-85645246D01*
X90688412Y-85579557D01*
X90877816Y-85483051D01*
X90964471Y-85420093D01*
X91049786Y-85358109D01*
X91049788Y-85358106D01*
X91049792Y-85358104D01*
X91200104Y-85207792D01*
X91200106Y-85207788D01*
X91200109Y-85207786D01*
X91325048Y-85035820D01*
X91325047Y-85035820D01*
X91325051Y-85035816D01*
X91329514Y-85027054D01*
X91377488Y-84976259D01*
X91445308Y-84959463D01*
X91511444Y-84981999D01*
X91550486Y-85027056D01*
X91554951Y-85035820D01*
X91679890Y-85207786D01*
X91830213Y-85358109D01*
X92002179Y-85483048D01*
X92002181Y-85483049D01*
X92002184Y-85483051D01*
X92191588Y-85579557D01*
X92393757Y-85645246D01*
X92603713Y-85678500D01*
X92603714Y-85678500D01*
X92816286Y-85678500D01*
X92816287Y-85678500D01*
X93026243Y-85645246D01*
X93228412Y-85579557D01*
X93417816Y-85483051D01*
X93504471Y-85420093D01*
X93589786Y-85358109D01*
X93589788Y-85358106D01*
X93589792Y-85358104D01*
X93740104Y-85207792D01*
X93740106Y-85207788D01*
X93740109Y-85207786D01*
X93865048Y-85035820D01*
X93865047Y-85035820D01*
X93865051Y-85035816D01*
X93869514Y-85027054D01*
X93917488Y-84976259D01*
X93985308Y-84959463D01*
X94051444Y-84981999D01*
X94090486Y-85027056D01*
X94094951Y-85035820D01*
X94219890Y-85207786D01*
X94370213Y-85358109D01*
X94542179Y-85483048D01*
X94542181Y-85483049D01*
X94542184Y-85483051D01*
X94731588Y-85579557D01*
X94933757Y-85645246D01*
X95143713Y-85678500D01*
X95143714Y-85678500D01*
X95356286Y-85678500D01*
X95356287Y-85678500D01*
X95566243Y-85645246D01*
X95768412Y-85579557D01*
X95957816Y-85483051D01*
X96044471Y-85420093D01*
X96129786Y-85358109D01*
X96129788Y-85358106D01*
X96129792Y-85358104D01*
X96280104Y-85207792D01*
X96280106Y-85207788D01*
X96280109Y-85207786D01*
X96405048Y-85035820D01*
X96405047Y-85035820D01*
X96405051Y-85035816D01*
X96409514Y-85027054D01*
X96457488Y-84976259D01*
X96525308Y-84959463D01*
X96591444Y-84981999D01*
X96630486Y-85027056D01*
X96634951Y-85035820D01*
X96759890Y-85207786D01*
X96910213Y-85358109D01*
X97082179Y-85483048D01*
X97082181Y-85483049D01*
X97082184Y-85483051D01*
X97271588Y-85579557D01*
X97473757Y-85645246D01*
X97683713Y-85678500D01*
X97683714Y-85678500D01*
X97896286Y-85678500D01*
X97896287Y-85678500D01*
X98106243Y-85645246D01*
X98308412Y-85579557D01*
X98497816Y-85483051D01*
X98584471Y-85420093D01*
X98669786Y-85358109D01*
X98669788Y-85358106D01*
X98669792Y-85358104D01*
X98820104Y-85207792D01*
X98820106Y-85207788D01*
X98820109Y-85207786D01*
X98945048Y-85035820D01*
X98945047Y-85035820D01*
X98945051Y-85035816D01*
X98949514Y-85027054D01*
X98997488Y-84976259D01*
X99065308Y-84959463D01*
X99131444Y-84981999D01*
X99170486Y-85027056D01*
X99174951Y-85035820D01*
X99299890Y-85207786D01*
X99450213Y-85358109D01*
X99622179Y-85483048D01*
X99622181Y-85483049D01*
X99622184Y-85483051D01*
X99811588Y-85579557D01*
X100013757Y-85645246D01*
X100223713Y-85678500D01*
X100223714Y-85678500D01*
X100436286Y-85678500D01*
X100436287Y-85678500D01*
X100646243Y-85645246D01*
X100848412Y-85579557D01*
X101037816Y-85483051D01*
X101124471Y-85420093D01*
X101209786Y-85358109D01*
X101209788Y-85358106D01*
X101209792Y-85358104D01*
X101360104Y-85207792D01*
X101360106Y-85207788D01*
X101360109Y-85207786D01*
X101485048Y-85035820D01*
X101485047Y-85035820D01*
X101485051Y-85035816D01*
X101489514Y-85027054D01*
X101537488Y-84976259D01*
X101605308Y-84959463D01*
X101671444Y-84981999D01*
X101710486Y-85027056D01*
X101714951Y-85035820D01*
X101839890Y-85207786D01*
X101990213Y-85358109D01*
X102162179Y-85483048D01*
X102162181Y-85483049D01*
X102162184Y-85483051D01*
X102351588Y-85579557D01*
X102553757Y-85645246D01*
X102763713Y-85678500D01*
X102763714Y-85678500D01*
X102976286Y-85678500D01*
X102976287Y-85678500D01*
X103186243Y-85645246D01*
X103388412Y-85579557D01*
X103577816Y-85483051D01*
X103664471Y-85420093D01*
X103749786Y-85358109D01*
X103749788Y-85358106D01*
X103749792Y-85358104D01*
X103900104Y-85207792D01*
X103900106Y-85207788D01*
X103900109Y-85207786D01*
X104025048Y-85035820D01*
X104025047Y-85035820D01*
X104025051Y-85035816D01*
X104029514Y-85027054D01*
X104077488Y-84976259D01*
X104145308Y-84959463D01*
X104211444Y-84981999D01*
X104250486Y-85027056D01*
X104254951Y-85035820D01*
X104379890Y-85207786D01*
X104530213Y-85358109D01*
X104702179Y-85483048D01*
X104702181Y-85483049D01*
X104702184Y-85483051D01*
X104891588Y-85579557D01*
X105093757Y-85645246D01*
X105303713Y-85678500D01*
X105303714Y-85678500D01*
X105516286Y-85678500D01*
X105516287Y-85678500D01*
X105726243Y-85645246D01*
X105928412Y-85579557D01*
X106117816Y-85483051D01*
X106204471Y-85420093D01*
X106289786Y-85358109D01*
X106289788Y-85358106D01*
X106289792Y-85358104D01*
X106440104Y-85207792D01*
X106440106Y-85207788D01*
X106440109Y-85207786D01*
X106565048Y-85035820D01*
X106565047Y-85035820D01*
X106565051Y-85035816D01*
X106569514Y-85027054D01*
X106617488Y-84976259D01*
X106685308Y-84959463D01*
X106751444Y-84981999D01*
X106790486Y-85027056D01*
X106794951Y-85035820D01*
X106919890Y-85207786D01*
X107070213Y-85358109D01*
X107242179Y-85483048D01*
X107242181Y-85483049D01*
X107242184Y-85483051D01*
X107431588Y-85579557D01*
X107633757Y-85645246D01*
X107843713Y-85678500D01*
X107843714Y-85678500D01*
X108056286Y-85678500D01*
X108056287Y-85678500D01*
X108266243Y-85645246D01*
X108468412Y-85579557D01*
X108657816Y-85483051D01*
X108744471Y-85420093D01*
X108829786Y-85358109D01*
X108829788Y-85358106D01*
X108829792Y-85358104D01*
X108980104Y-85207792D01*
X108980106Y-85207788D01*
X108980109Y-85207786D01*
X109105048Y-85035820D01*
X109105047Y-85035820D01*
X109105051Y-85035816D01*
X109109514Y-85027054D01*
X109157488Y-84976259D01*
X109225308Y-84959463D01*
X109291444Y-84981999D01*
X109330486Y-85027056D01*
X109334951Y-85035820D01*
X109459890Y-85207786D01*
X109610213Y-85358109D01*
X109782179Y-85483048D01*
X109782181Y-85483049D01*
X109782184Y-85483051D01*
X109971588Y-85579557D01*
X110173757Y-85645246D01*
X110383713Y-85678500D01*
X110383714Y-85678500D01*
X110596286Y-85678500D01*
X110596287Y-85678500D01*
X110806243Y-85645246D01*
X111008412Y-85579557D01*
X111197816Y-85483051D01*
X111284471Y-85420093D01*
X111369786Y-85358109D01*
X111369788Y-85358106D01*
X111369792Y-85358104D01*
X111520104Y-85207792D01*
X111520106Y-85207788D01*
X111520109Y-85207786D01*
X111645048Y-85035820D01*
X111645047Y-85035820D01*
X111645051Y-85035816D01*
X111649514Y-85027054D01*
X111697488Y-84976259D01*
X111765308Y-84959463D01*
X111831444Y-84981999D01*
X111870486Y-85027056D01*
X111874951Y-85035820D01*
X111999890Y-85207786D01*
X112150213Y-85358109D01*
X112322179Y-85483048D01*
X112322181Y-85483049D01*
X112322184Y-85483051D01*
X112511588Y-85579557D01*
X112713757Y-85645246D01*
X112923713Y-85678500D01*
X112923714Y-85678500D01*
X113136286Y-85678500D01*
X113136287Y-85678500D01*
X113346243Y-85645246D01*
X113548412Y-85579557D01*
X113737816Y-85483051D01*
X113824471Y-85420093D01*
X113909786Y-85358109D01*
X113909788Y-85358106D01*
X113909792Y-85358104D01*
X114060104Y-85207792D01*
X114060106Y-85207788D01*
X114060109Y-85207786D01*
X114185048Y-85035820D01*
X114185047Y-85035820D01*
X114185051Y-85035816D01*
X114189514Y-85027054D01*
X114237488Y-84976259D01*
X114305308Y-84959463D01*
X114371444Y-84981999D01*
X114410486Y-85027056D01*
X114414951Y-85035820D01*
X114539890Y-85207786D01*
X114690213Y-85358109D01*
X114862179Y-85483048D01*
X114862181Y-85483049D01*
X114862184Y-85483051D01*
X115051588Y-85579557D01*
X115253757Y-85645246D01*
X115463713Y-85678500D01*
X115463714Y-85678500D01*
X115676286Y-85678500D01*
X115676287Y-85678500D01*
X115886243Y-85645246D01*
X116088412Y-85579557D01*
X116277816Y-85483051D01*
X116364471Y-85420093D01*
X116449786Y-85358109D01*
X116449788Y-85358106D01*
X116449792Y-85358104D01*
X116600104Y-85207792D01*
X116600106Y-85207788D01*
X116600109Y-85207786D01*
X116725048Y-85035820D01*
X116725047Y-85035820D01*
X116725051Y-85035816D01*
X116729514Y-85027054D01*
X116777488Y-84976259D01*
X116845308Y-84959463D01*
X116911444Y-84981999D01*
X116950486Y-85027056D01*
X116954951Y-85035820D01*
X117079890Y-85207786D01*
X117230213Y-85358109D01*
X117402179Y-85483048D01*
X117402181Y-85483049D01*
X117402184Y-85483051D01*
X117591588Y-85579557D01*
X117793757Y-85645246D01*
X118003713Y-85678500D01*
X118003714Y-85678500D01*
X118216286Y-85678500D01*
X118216287Y-85678500D01*
X118426243Y-85645246D01*
X118628412Y-85579557D01*
X118817816Y-85483051D01*
X118904471Y-85420093D01*
X118989786Y-85358109D01*
X118989788Y-85358106D01*
X118989792Y-85358104D01*
X119140104Y-85207792D01*
X119140106Y-85207788D01*
X119140109Y-85207786D01*
X119265048Y-85035820D01*
X119265047Y-85035820D01*
X119265051Y-85035816D01*
X119269514Y-85027054D01*
X119317488Y-84976259D01*
X119385308Y-84959463D01*
X119451444Y-84981999D01*
X119490486Y-85027056D01*
X119494951Y-85035820D01*
X119619890Y-85207786D01*
X119770213Y-85358109D01*
X119942179Y-85483048D01*
X119942181Y-85483049D01*
X119942184Y-85483051D01*
X120131588Y-85579557D01*
X120333757Y-85645246D01*
X120543713Y-85678500D01*
X120543714Y-85678500D01*
X120756286Y-85678500D01*
X120756287Y-85678500D01*
X120966243Y-85645246D01*
X121168412Y-85579557D01*
X121357816Y-85483051D01*
X121444471Y-85420093D01*
X121529786Y-85358109D01*
X121529788Y-85358106D01*
X121529792Y-85358104D01*
X121680104Y-85207792D01*
X121680106Y-85207788D01*
X121680109Y-85207786D01*
X121805048Y-85035820D01*
X121805047Y-85035820D01*
X121805051Y-85035816D01*
X121809514Y-85027054D01*
X121857488Y-84976259D01*
X121925308Y-84959463D01*
X121991444Y-84981999D01*
X122030486Y-85027056D01*
X122034951Y-85035820D01*
X122159890Y-85207786D01*
X122310213Y-85358109D01*
X122482179Y-85483048D01*
X122482181Y-85483049D01*
X122482184Y-85483051D01*
X122671588Y-85579557D01*
X122873757Y-85645246D01*
X123083713Y-85678500D01*
X123083714Y-85678500D01*
X123296286Y-85678500D01*
X123296287Y-85678500D01*
X123506243Y-85645246D01*
X123708412Y-85579557D01*
X123897816Y-85483051D01*
X123984471Y-85420093D01*
X124069786Y-85358109D01*
X124069788Y-85358106D01*
X124069792Y-85358104D01*
X124220104Y-85207792D01*
X124220106Y-85207788D01*
X124220109Y-85207786D01*
X124345048Y-85035820D01*
X124345047Y-85035820D01*
X124345051Y-85035816D01*
X124349514Y-85027054D01*
X124397488Y-84976259D01*
X124465308Y-84959463D01*
X124531444Y-84981999D01*
X124570486Y-85027056D01*
X124574951Y-85035820D01*
X124699890Y-85207786D01*
X124850213Y-85358109D01*
X125022179Y-85483048D01*
X125022181Y-85483049D01*
X125022184Y-85483051D01*
X125211588Y-85579557D01*
X125413757Y-85645246D01*
X125623713Y-85678500D01*
X125623714Y-85678500D01*
X125836286Y-85678500D01*
X125836287Y-85678500D01*
X126046243Y-85645246D01*
X126248412Y-85579557D01*
X126437816Y-85483051D01*
X126524471Y-85420093D01*
X126609786Y-85358109D01*
X126609788Y-85358106D01*
X126609792Y-85358104D01*
X126760104Y-85207792D01*
X126760106Y-85207788D01*
X126760109Y-85207786D01*
X126885048Y-85035820D01*
X126885047Y-85035820D01*
X126885051Y-85035816D01*
X126981557Y-84846412D01*
X127047246Y-84644243D01*
X127080500Y-84434287D01*
X127080500Y-84221713D01*
X127047246Y-84011757D01*
X126981557Y-83809588D01*
X126885051Y-83620184D01*
X126885049Y-83620181D01*
X126885048Y-83620179D01*
X126760109Y-83448213D01*
X126609786Y-83297890D01*
X126437820Y-83172951D01*
X126248414Y-83076444D01*
X126248413Y-83076443D01*
X126248412Y-83076443D01*
X126046243Y-83010754D01*
X126046241Y-83010753D01*
X126046240Y-83010753D01*
X125884957Y-82985208D01*
X125836287Y-82977500D01*
X125623713Y-82977500D01*
X125575042Y-82985208D01*
X125413760Y-83010753D01*
X125211585Y-83076444D01*
X125022179Y-83172951D01*
X124850213Y-83297890D01*
X124699890Y-83448213D01*
X124574949Y-83620182D01*
X124570484Y-83628946D01*
X124522509Y-83679742D01*
X124454688Y-83696536D01*
X124388553Y-83673998D01*
X124349516Y-83628946D01*
X124345050Y-83620182D01*
X124220109Y-83448213D01*
X124069786Y-83297890D01*
X123897820Y-83172951D01*
X123708414Y-83076444D01*
X123708413Y-83076443D01*
X123708412Y-83076443D01*
X123506243Y-83010754D01*
X123506241Y-83010753D01*
X123506240Y-83010753D01*
X123344957Y-82985208D01*
X123296287Y-82977500D01*
X123083713Y-82977500D01*
X123035042Y-82985208D01*
X122873760Y-83010753D01*
X122671585Y-83076444D01*
X122482179Y-83172951D01*
X122310213Y-83297890D01*
X122159890Y-83448213D01*
X122034949Y-83620182D01*
X122030484Y-83628946D01*
X121982509Y-83679742D01*
X121914688Y-83696536D01*
X121848553Y-83673998D01*
X121809516Y-83628946D01*
X121805050Y-83620182D01*
X121680109Y-83448213D01*
X121529786Y-83297890D01*
X121357820Y-83172951D01*
X121168414Y-83076444D01*
X121168413Y-83076443D01*
X121168412Y-83076443D01*
X120966243Y-83010754D01*
X120966241Y-83010753D01*
X120966240Y-83010753D01*
X120804957Y-82985208D01*
X120756287Y-82977500D01*
X120543713Y-82977500D01*
X120495042Y-82985208D01*
X120333760Y-83010753D01*
X120131585Y-83076444D01*
X119942179Y-83172951D01*
X119770213Y-83297890D01*
X119619890Y-83448213D01*
X119494949Y-83620182D01*
X119490484Y-83628946D01*
X119442509Y-83679742D01*
X119374688Y-83696536D01*
X119308553Y-83673998D01*
X119269516Y-83628946D01*
X119265050Y-83620182D01*
X119140109Y-83448213D01*
X118989786Y-83297890D01*
X118817820Y-83172951D01*
X118628414Y-83076444D01*
X118628413Y-83076443D01*
X118628412Y-83076443D01*
X118426243Y-83010754D01*
X118426241Y-83010753D01*
X118426240Y-83010753D01*
X118264957Y-82985208D01*
X118216287Y-82977500D01*
X118003713Y-82977500D01*
X117955042Y-82985208D01*
X117793760Y-83010753D01*
X117591585Y-83076444D01*
X117402179Y-83172951D01*
X117230213Y-83297890D01*
X117079890Y-83448213D01*
X116954949Y-83620182D01*
X116950484Y-83628946D01*
X116902509Y-83679742D01*
X116834688Y-83696536D01*
X116768553Y-83673998D01*
X116729516Y-83628946D01*
X116725050Y-83620182D01*
X116600109Y-83448213D01*
X116449786Y-83297890D01*
X116277820Y-83172951D01*
X116088414Y-83076444D01*
X116088413Y-83076443D01*
X116088412Y-83076443D01*
X115886243Y-83010754D01*
X115886241Y-83010753D01*
X115886240Y-83010753D01*
X115724957Y-82985208D01*
X115676287Y-82977500D01*
X115463713Y-82977500D01*
X115415042Y-82985208D01*
X115253760Y-83010753D01*
X115051585Y-83076444D01*
X114862179Y-83172951D01*
X114690213Y-83297890D01*
X114539890Y-83448213D01*
X114414949Y-83620182D01*
X114410484Y-83628946D01*
X114362509Y-83679742D01*
X114294688Y-83696536D01*
X114228553Y-83673998D01*
X114189516Y-83628946D01*
X114185050Y-83620182D01*
X114060109Y-83448213D01*
X113909786Y-83297890D01*
X113737820Y-83172951D01*
X113548414Y-83076444D01*
X113548413Y-83076443D01*
X113548412Y-83076443D01*
X113346243Y-83010754D01*
X113346241Y-83010753D01*
X113346240Y-83010753D01*
X113184957Y-82985208D01*
X113136287Y-82977500D01*
X112923713Y-82977500D01*
X112875042Y-82985208D01*
X112713760Y-83010753D01*
X112511585Y-83076444D01*
X112322179Y-83172951D01*
X112150213Y-83297890D01*
X111999890Y-83448213D01*
X111874949Y-83620182D01*
X111870484Y-83628946D01*
X111822509Y-83679742D01*
X111754688Y-83696536D01*
X111688553Y-83673998D01*
X111649516Y-83628946D01*
X111645050Y-83620182D01*
X111520109Y-83448213D01*
X111369786Y-83297890D01*
X111197820Y-83172951D01*
X111008414Y-83076444D01*
X111008413Y-83076443D01*
X111008412Y-83076443D01*
X110806243Y-83010754D01*
X110806241Y-83010753D01*
X110806240Y-83010753D01*
X110644957Y-82985208D01*
X110596287Y-82977500D01*
X110383713Y-82977500D01*
X110335042Y-82985208D01*
X110173760Y-83010753D01*
X109971585Y-83076444D01*
X109782179Y-83172951D01*
X109610213Y-83297890D01*
X109459890Y-83448213D01*
X109334949Y-83620182D01*
X109330484Y-83628946D01*
X109282509Y-83679742D01*
X109214688Y-83696536D01*
X109148553Y-83673998D01*
X109109516Y-83628946D01*
X109105050Y-83620182D01*
X108980109Y-83448213D01*
X108829786Y-83297890D01*
X108657820Y-83172951D01*
X108468414Y-83076444D01*
X108468413Y-83076443D01*
X108468412Y-83076443D01*
X108266243Y-83010754D01*
X108266241Y-83010753D01*
X108266240Y-83010753D01*
X108104957Y-82985208D01*
X108056287Y-82977500D01*
X107843713Y-82977500D01*
X107795042Y-82985208D01*
X107633760Y-83010753D01*
X107431585Y-83076444D01*
X107242179Y-83172951D01*
X107070213Y-83297890D01*
X106919890Y-83448213D01*
X106794949Y-83620182D01*
X106790484Y-83628946D01*
X106742509Y-83679742D01*
X106674688Y-83696536D01*
X106608553Y-83673998D01*
X106569516Y-83628946D01*
X106565050Y-83620182D01*
X106440109Y-83448213D01*
X106289786Y-83297890D01*
X106117820Y-83172951D01*
X105928414Y-83076444D01*
X105928413Y-83076443D01*
X105928412Y-83076443D01*
X105726243Y-83010754D01*
X105726241Y-83010753D01*
X105726240Y-83010753D01*
X105564957Y-82985208D01*
X105516287Y-82977500D01*
X105303713Y-82977500D01*
X105255042Y-82985208D01*
X105093760Y-83010753D01*
X104891585Y-83076444D01*
X104702179Y-83172951D01*
X104530213Y-83297890D01*
X104379890Y-83448213D01*
X104254949Y-83620182D01*
X104250484Y-83628946D01*
X104202509Y-83679742D01*
X104134688Y-83696536D01*
X104068553Y-83673998D01*
X104029516Y-83628946D01*
X104025050Y-83620182D01*
X103900109Y-83448213D01*
X103749786Y-83297890D01*
X103577820Y-83172951D01*
X103388414Y-83076444D01*
X103388413Y-83076443D01*
X103388412Y-83076443D01*
X103186243Y-83010754D01*
X103186241Y-83010753D01*
X103186240Y-83010753D01*
X103024957Y-82985208D01*
X102976287Y-82977500D01*
X102763713Y-82977500D01*
X102715042Y-82985208D01*
X102553760Y-83010753D01*
X102351585Y-83076444D01*
X102162179Y-83172951D01*
X101990213Y-83297890D01*
X101839890Y-83448213D01*
X101714949Y-83620182D01*
X101710484Y-83628946D01*
X101662509Y-83679742D01*
X101594688Y-83696536D01*
X101528553Y-83673998D01*
X101489516Y-83628946D01*
X101485050Y-83620182D01*
X101360109Y-83448213D01*
X101209786Y-83297890D01*
X101037820Y-83172951D01*
X100848414Y-83076444D01*
X100848413Y-83076443D01*
X100848412Y-83076443D01*
X100646243Y-83010754D01*
X100646241Y-83010753D01*
X100646240Y-83010753D01*
X100484957Y-82985208D01*
X100436287Y-82977500D01*
X100223713Y-82977500D01*
X100175042Y-82985208D01*
X100013760Y-83010753D01*
X99811585Y-83076444D01*
X99622179Y-83172951D01*
X99450213Y-83297890D01*
X99299890Y-83448213D01*
X99174949Y-83620182D01*
X99170484Y-83628946D01*
X99122509Y-83679742D01*
X99054688Y-83696536D01*
X98988553Y-83673998D01*
X98949516Y-83628946D01*
X98945050Y-83620182D01*
X98820109Y-83448213D01*
X98669786Y-83297890D01*
X98497820Y-83172951D01*
X98308414Y-83076444D01*
X98308413Y-83076443D01*
X98308412Y-83076443D01*
X98106243Y-83010754D01*
X98106241Y-83010753D01*
X98106240Y-83010753D01*
X97944957Y-82985208D01*
X97896287Y-82977500D01*
X97683713Y-82977500D01*
X97635042Y-82985208D01*
X97473760Y-83010753D01*
X97271585Y-83076444D01*
X97082179Y-83172951D01*
X96910213Y-83297890D01*
X96759890Y-83448213D01*
X96634949Y-83620182D01*
X96630484Y-83628946D01*
X96582509Y-83679742D01*
X96514688Y-83696536D01*
X96448553Y-83673998D01*
X96409516Y-83628946D01*
X96405050Y-83620182D01*
X96280109Y-83448213D01*
X96129786Y-83297890D01*
X95957820Y-83172951D01*
X95768414Y-83076444D01*
X95768413Y-83076443D01*
X95768412Y-83076443D01*
X95566243Y-83010754D01*
X95566241Y-83010753D01*
X95566240Y-83010753D01*
X95404957Y-82985208D01*
X95356287Y-82977500D01*
X95143713Y-82977500D01*
X95095042Y-82985208D01*
X94933760Y-83010753D01*
X94731585Y-83076444D01*
X94542179Y-83172951D01*
X94370213Y-83297890D01*
X94219890Y-83448213D01*
X94094949Y-83620182D01*
X94090484Y-83628946D01*
X94042509Y-83679742D01*
X93974688Y-83696536D01*
X93908553Y-83673998D01*
X93869516Y-83628946D01*
X93865050Y-83620182D01*
X93740109Y-83448213D01*
X93589786Y-83297890D01*
X93417820Y-83172951D01*
X93228414Y-83076444D01*
X93228413Y-83076443D01*
X93228412Y-83076443D01*
X93026243Y-83010754D01*
X93026241Y-83010753D01*
X93026240Y-83010753D01*
X92864957Y-82985208D01*
X92816287Y-82977500D01*
X92603713Y-82977500D01*
X92555042Y-82985208D01*
X92393760Y-83010753D01*
X92191585Y-83076444D01*
X92002179Y-83172951D01*
X91830213Y-83297890D01*
X91679890Y-83448213D01*
X91554949Y-83620182D01*
X91550484Y-83628946D01*
X91502509Y-83679742D01*
X91434688Y-83696536D01*
X91368553Y-83673998D01*
X91329516Y-83628946D01*
X91325050Y-83620182D01*
X91200109Y-83448213D01*
X91049786Y-83297890D01*
X90877820Y-83172951D01*
X90688414Y-83076444D01*
X90688413Y-83076443D01*
X90688412Y-83076443D01*
X90486243Y-83010754D01*
X90486241Y-83010753D01*
X90486240Y-83010753D01*
X90324957Y-82985208D01*
X90276287Y-82977500D01*
X90063713Y-82977500D01*
X90015042Y-82985208D01*
X89853760Y-83010753D01*
X89651585Y-83076444D01*
X89462179Y-83172951D01*
X89290213Y-83297890D01*
X89139890Y-83448213D01*
X89014949Y-83620182D01*
X89010484Y-83628946D01*
X88962509Y-83679742D01*
X88894688Y-83696536D01*
X88828553Y-83673998D01*
X88789516Y-83628946D01*
X88785050Y-83620182D01*
X88660109Y-83448213D01*
X88509786Y-83297890D01*
X88337820Y-83172951D01*
X88148414Y-83076444D01*
X88148413Y-83076443D01*
X88148412Y-83076443D01*
X87946243Y-83010754D01*
X87946241Y-83010753D01*
X87946240Y-83010753D01*
X87784957Y-82985208D01*
X87736287Y-82977500D01*
X87523713Y-82977500D01*
X87475042Y-82985208D01*
X87313760Y-83010753D01*
X87111585Y-83076444D01*
X86922179Y-83172951D01*
X86750213Y-83297890D01*
X86599890Y-83448213D01*
X86474949Y-83620182D01*
X86470484Y-83628946D01*
X86422509Y-83679742D01*
X86354688Y-83696536D01*
X86288553Y-83673998D01*
X86249516Y-83628946D01*
X86245050Y-83620182D01*
X86120109Y-83448213D01*
X85969786Y-83297890D01*
X85797820Y-83172951D01*
X85608414Y-83076444D01*
X85608413Y-83076443D01*
X85608412Y-83076443D01*
X85406243Y-83010754D01*
X85406241Y-83010753D01*
X85406240Y-83010753D01*
X85244957Y-82985208D01*
X85196287Y-82977500D01*
X84983713Y-82977500D01*
X84935042Y-82985208D01*
X84773760Y-83010753D01*
X84571585Y-83076444D01*
X84382179Y-83172951D01*
X84210215Y-83297889D01*
X84096285Y-83411819D01*
X84034962Y-83445303D01*
X83965270Y-83440319D01*
X83909337Y-83398447D01*
X83892422Y-83367470D01*
X83843354Y-83235913D01*
X83843350Y-83235906D01*
X83757190Y-83120812D01*
X83757187Y-83120809D01*
X83642093Y-83034649D01*
X83642086Y-83034645D01*
X83507379Y-82984403D01*
X83507372Y-82984401D01*
X83447844Y-82978000D01*
X82800000Y-82978000D01*
X82800000Y-83894988D01*
X82742993Y-83862075D01*
X82615826Y-83828000D01*
X82484174Y-83828000D01*
X82357007Y-83862075D01*
X82300000Y-83894988D01*
X82300000Y-82978000D01*
X81652155Y-82978000D01*
X81592627Y-82984401D01*
X81592620Y-82984403D01*
X81457913Y-83034645D01*
X81457906Y-83034649D01*
X81342812Y-83120809D01*
X81342809Y-83120812D01*
X81256649Y-83235906D01*
X81256645Y-83235913D01*
X81206403Y-83370620D01*
X81206401Y-83370627D01*
X81200000Y-83430155D01*
X77655500Y-83430155D01*
X77655500Y-76905257D01*
X86732064Y-76905257D01*
X86732064Y-77112196D01*
X86772432Y-77315139D01*
X86772434Y-77315147D01*
X86851622Y-77506323D01*
X86966588Y-77678384D01*
X87112906Y-77824702D01*
X87112909Y-77824704D01*
X87284966Y-77939668D01*
X87476144Y-78018857D01*
X87646869Y-78052816D01*
X87679094Y-78059226D01*
X87679098Y-78059227D01*
X87679099Y-78059227D01*
X87886030Y-78059227D01*
X87886031Y-78059226D01*
X88088984Y-78018857D01*
X88280162Y-77939668D01*
X88452219Y-77824704D01*
X88598541Y-77678382D01*
X88713505Y-77506325D01*
X88728373Y-77470428D01*
X88772211Y-77416027D01*
X88838505Y-77393960D01*
X88906205Y-77411238D01*
X88953817Y-77462374D01*
X88966934Y-77517880D01*
X88966934Y-77606594D01*
X88966935Y-77606601D01*
X88973342Y-77666208D01*
X89023636Y-77801053D01*
X89023640Y-77801060D01*
X89109886Y-77916269D01*
X89109889Y-77916272D01*
X89225098Y-78002518D01*
X89225105Y-78002522D01*
X89359951Y-78052816D01*
X89359950Y-78052816D01*
X89366878Y-78053560D01*
X89419561Y-78059225D01*
X90615306Y-78059224D01*
X90674917Y-78052816D01*
X90809765Y-78002521D01*
X90924980Y-77916271D01*
X91011230Y-77801056D01*
X91061525Y-77666208D01*
X91067934Y-77606598D01*
X91067933Y-76410853D01*
X91061525Y-76351242D01*
X91011230Y-76216394D01*
X91011229Y-76216393D01*
X91011227Y-76216389D01*
X90924981Y-76101180D01*
X90924978Y-76101177D01*
X90809769Y-76014931D01*
X90809762Y-76014927D01*
X90674916Y-75964633D01*
X90674917Y-75964633D01*
X90615317Y-75958226D01*
X90615315Y-75958225D01*
X90615307Y-75958225D01*
X90615298Y-75958225D01*
X89419563Y-75958225D01*
X89419557Y-75958226D01*
X89359950Y-75964633D01*
X89225105Y-76014927D01*
X89225098Y-76014931D01*
X89109889Y-76101177D01*
X89109886Y-76101180D01*
X89023640Y-76216389D01*
X89023636Y-76216396D01*
X88973342Y-76351242D01*
X88966935Y-76410841D01*
X88966935Y-76410848D01*
X88966934Y-76410860D01*
X88966934Y-76499570D01*
X88947249Y-76566609D01*
X88894445Y-76612364D01*
X88825287Y-76622308D01*
X88761731Y-76593283D01*
X88728373Y-76547023D01*
X88713505Y-76511130D01*
X88713505Y-76511129D01*
X88598541Y-76339072D01*
X88598539Y-76339069D01*
X88452221Y-76192751D01*
X88315169Y-76101177D01*
X88280162Y-76077786D01*
X88088984Y-75998597D01*
X88088976Y-75998595D01*
X87886033Y-75958227D01*
X87886029Y-75958227D01*
X87679099Y-75958227D01*
X87679094Y-75958227D01*
X87476151Y-75998595D01*
X87476143Y-75998597D01*
X87284967Y-76077785D01*
X87112906Y-76192751D01*
X86966588Y-76339069D01*
X86851622Y-76511130D01*
X86772434Y-76702306D01*
X86772432Y-76702314D01*
X86732064Y-76905257D01*
X77655500Y-76905257D01*
X77655500Y-71863275D01*
X86761723Y-71863275D01*
X86772916Y-71919549D01*
X86772917Y-71919551D01*
X86852066Y-72110633D01*
X86852071Y-72110643D01*
X86966976Y-72282610D01*
X86966979Y-72282614D01*
X87113226Y-72428861D01*
X87113230Y-72428864D01*
X87285197Y-72543769D01*
X87285207Y-72543774D01*
X87476289Y-72622923D01*
X87476291Y-72622924D01*
X87532566Y-72634117D01*
X87532566Y-71863275D01*
X86761723Y-71863275D01*
X77655500Y-71863275D01*
X77655500Y-71567197D01*
X87432566Y-71567197D01*
X87432566Y-71659353D01*
X87456418Y-71748370D01*
X87502496Y-71828180D01*
X87567661Y-71893345D01*
X87647471Y-71939423D01*
X87736488Y-71963275D01*
X87828644Y-71963275D01*
X87917661Y-71939423D01*
X87997471Y-71893345D01*
X88032566Y-71858250D01*
X88032566Y-72634117D01*
X88088840Y-72622924D01*
X88088842Y-72622923D01*
X88279924Y-72543774D01*
X88279934Y-72543769D01*
X88451901Y-72428864D01*
X88451905Y-72428861D01*
X88598152Y-72282614D01*
X88598155Y-72282610D01*
X88713060Y-72110643D01*
X88713065Y-72110634D01*
X88785170Y-71936558D01*
X88829011Y-71882155D01*
X88895305Y-71860090D01*
X88963004Y-71877369D01*
X89010615Y-71928506D01*
X89014289Y-71936552D01*
X89056825Y-72039243D01*
X89086494Y-72110869D01*
X89201460Y-72282930D01*
X89347778Y-72429248D01*
X89347781Y-72429250D01*
X89519838Y-72544214D01*
X89711016Y-72623403D01*
X89913966Y-72663772D01*
X89913970Y-72663773D01*
X89913971Y-72663773D01*
X90120902Y-72663773D01*
X90120903Y-72663772D01*
X90323856Y-72623403D01*
X90515034Y-72544214D01*
X90687091Y-72429250D01*
X90833413Y-72282928D01*
X90948377Y-72110871D01*
X91027566Y-71919693D01*
X91067936Y-71716738D01*
X91067936Y-71509808D01*
X91027566Y-71306853D01*
X90948377Y-71115675D01*
X90833413Y-70943618D01*
X90833411Y-70943615D01*
X90687093Y-70797297D01*
X90515697Y-70682775D01*
X90515034Y-70682332D01*
X90323856Y-70603143D01*
X90323848Y-70603141D01*
X90120905Y-70562773D01*
X90120901Y-70562773D01*
X89913971Y-70562773D01*
X89913966Y-70562773D01*
X89711023Y-70603141D01*
X89711015Y-70603143D01*
X89519839Y-70682331D01*
X89347778Y-70797297D01*
X89201460Y-70943615D01*
X89086493Y-71115676D01*
X89014291Y-71289989D01*
X88970450Y-71344392D01*
X88904156Y-71366457D01*
X88836456Y-71349178D01*
X88788846Y-71298040D01*
X88785169Y-71289989D01*
X88713065Y-71115916D01*
X88713060Y-71115906D01*
X88598155Y-70943939D01*
X88598152Y-70943935D01*
X88451905Y-70797688D01*
X88451901Y-70797685D01*
X88279934Y-70682780D01*
X88279924Y-70682775D01*
X88088838Y-70603624D01*
X88088833Y-70603622D01*
X88032566Y-70592430D01*
X88032566Y-71368300D01*
X87997471Y-71333205D01*
X87917661Y-71287127D01*
X87828644Y-71263275D01*
X87736488Y-71263275D01*
X87647471Y-71287127D01*
X87567661Y-71333205D01*
X87502496Y-71398370D01*
X87456418Y-71478180D01*
X87432566Y-71567197D01*
X77655500Y-71567197D01*
X77655500Y-71363275D01*
X86761723Y-71363275D01*
X87532566Y-71363275D01*
X87532566Y-70592431D01*
X87532565Y-70592430D01*
X87476298Y-70603622D01*
X87476293Y-70603624D01*
X87285207Y-70682775D01*
X87285197Y-70682780D01*
X87113230Y-70797685D01*
X87113226Y-70797688D01*
X86966979Y-70943935D01*
X86966976Y-70943939D01*
X86852071Y-71115906D01*
X86852066Y-71115916D01*
X86772917Y-71306998D01*
X86772916Y-71307000D01*
X86761723Y-71363275D01*
X77655500Y-71363275D01*
X77655500Y-61607108D01*
X77621392Y-61479814D01*
X77555500Y-61365686D01*
X77462314Y-61272500D01*
X77405250Y-61239554D01*
X77348187Y-61206608D01*
X77284539Y-61189554D01*
X77220892Y-61172500D01*
X77220891Y-61172500D01*
X77158481Y-61172500D01*
X77151528Y-61172305D01*
X76826114Y-61154030D01*
X76812296Y-61152473D01*
X76494415Y-61098462D01*
X76480858Y-61095368D01*
X76171016Y-61006104D01*
X76157891Y-61001511D01*
X75860000Y-60878121D01*
X75847472Y-60872088D01*
X75565265Y-60716117D01*
X75553491Y-60708719D01*
X75496076Y-60667981D01*
X75358202Y-60570155D01*
X81200000Y-60570155D01*
X81200000Y-61218000D01*
X82116988Y-61218000D01*
X82084075Y-61275007D01*
X82050000Y-61402174D01*
X82050000Y-61533826D01*
X82084075Y-61660993D01*
X82116988Y-61718000D01*
X81200000Y-61718000D01*
X81200000Y-62365844D01*
X81206401Y-62425372D01*
X81206403Y-62425379D01*
X81256645Y-62560086D01*
X81256649Y-62560093D01*
X81342809Y-62675187D01*
X81342812Y-62675190D01*
X81457906Y-62761350D01*
X81457913Y-62761354D01*
X81592620Y-62811596D01*
X81592627Y-62811598D01*
X81652155Y-62817999D01*
X81652172Y-62818000D01*
X82300000Y-62818000D01*
X82300000Y-61901012D01*
X82357007Y-61933925D01*
X82484174Y-61968000D01*
X82615826Y-61968000D01*
X82742993Y-61933925D01*
X82800000Y-61901012D01*
X82800000Y-62818000D01*
X83447828Y-62818000D01*
X83447844Y-62817999D01*
X83507372Y-62811598D01*
X83507379Y-62811596D01*
X83642086Y-62761354D01*
X83642093Y-62761350D01*
X83757187Y-62675190D01*
X83757190Y-62675187D01*
X83843350Y-62560093D01*
X83843354Y-62560086D01*
X83892422Y-62428529D01*
X83934293Y-62372595D01*
X83999757Y-62348178D01*
X84068030Y-62363030D01*
X84096285Y-62384181D01*
X84210213Y-62498109D01*
X84382179Y-62623048D01*
X84382181Y-62623049D01*
X84382184Y-62623051D01*
X84571588Y-62719557D01*
X84773757Y-62785246D01*
X84983713Y-62818500D01*
X84983714Y-62818500D01*
X85196286Y-62818500D01*
X85196287Y-62818500D01*
X85406243Y-62785246D01*
X85608412Y-62719557D01*
X85797816Y-62623051D01*
X85884471Y-62560093D01*
X85969786Y-62498109D01*
X85969788Y-62498106D01*
X85969792Y-62498104D01*
X86120104Y-62347792D01*
X86120106Y-62347788D01*
X86120109Y-62347786D01*
X86245048Y-62175820D01*
X86245047Y-62175820D01*
X86245051Y-62175816D01*
X86249514Y-62167054D01*
X86297488Y-62116259D01*
X86365308Y-62099463D01*
X86431444Y-62121999D01*
X86470486Y-62167056D01*
X86474951Y-62175820D01*
X86599890Y-62347786D01*
X86750213Y-62498109D01*
X86922179Y-62623048D01*
X86922181Y-62623049D01*
X86922184Y-62623051D01*
X87111588Y-62719557D01*
X87313757Y-62785246D01*
X87523713Y-62818500D01*
X87523714Y-62818500D01*
X87736286Y-62818500D01*
X87736287Y-62818500D01*
X87946243Y-62785246D01*
X88148412Y-62719557D01*
X88337816Y-62623051D01*
X88424471Y-62560093D01*
X88509786Y-62498109D01*
X88509788Y-62498106D01*
X88509792Y-62498104D01*
X88660104Y-62347792D01*
X88660106Y-62347788D01*
X88660109Y-62347786D01*
X88785048Y-62175820D01*
X88785047Y-62175820D01*
X88785051Y-62175816D01*
X88789514Y-62167054D01*
X88837488Y-62116259D01*
X88905308Y-62099463D01*
X88971444Y-62121999D01*
X89010486Y-62167056D01*
X89014951Y-62175820D01*
X89139890Y-62347786D01*
X89290213Y-62498109D01*
X89462179Y-62623048D01*
X89462181Y-62623049D01*
X89462184Y-62623051D01*
X89651588Y-62719557D01*
X89853757Y-62785246D01*
X90063713Y-62818500D01*
X90063714Y-62818500D01*
X90276286Y-62818500D01*
X90276287Y-62818500D01*
X90486243Y-62785246D01*
X90688412Y-62719557D01*
X90877816Y-62623051D01*
X90964471Y-62560093D01*
X91049786Y-62498109D01*
X91049788Y-62498106D01*
X91049792Y-62498104D01*
X91200104Y-62347792D01*
X91200106Y-62347788D01*
X91200109Y-62347786D01*
X91325048Y-62175820D01*
X91325047Y-62175820D01*
X91325051Y-62175816D01*
X91329514Y-62167054D01*
X91377488Y-62116259D01*
X91445308Y-62099463D01*
X91511444Y-62121999D01*
X91550486Y-62167056D01*
X91554951Y-62175820D01*
X91679890Y-62347786D01*
X91830213Y-62498109D01*
X92002179Y-62623048D01*
X92002181Y-62623049D01*
X92002184Y-62623051D01*
X92191588Y-62719557D01*
X92393757Y-62785246D01*
X92603713Y-62818500D01*
X92603714Y-62818500D01*
X92816286Y-62818500D01*
X92816287Y-62818500D01*
X93026243Y-62785246D01*
X93228412Y-62719557D01*
X93417816Y-62623051D01*
X93504471Y-62560093D01*
X93589786Y-62498109D01*
X93589788Y-62498106D01*
X93589792Y-62498104D01*
X93740104Y-62347792D01*
X93740106Y-62347788D01*
X93740109Y-62347786D01*
X93865048Y-62175820D01*
X93865047Y-62175820D01*
X93865051Y-62175816D01*
X93869514Y-62167054D01*
X93917488Y-62116259D01*
X93985308Y-62099463D01*
X94051444Y-62121999D01*
X94090486Y-62167056D01*
X94094951Y-62175820D01*
X94219890Y-62347786D01*
X94370213Y-62498109D01*
X94542179Y-62623048D01*
X94542181Y-62623049D01*
X94542184Y-62623051D01*
X94731588Y-62719557D01*
X94933757Y-62785246D01*
X95143713Y-62818500D01*
X95143714Y-62818500D01*
X95356286Y-62818500D01*
X95356287Y-62818500D01*
X95566243Y-62785246D01*
X95768412Y-62719557D01*
X95957816Y-62623051D01*
X96044471Y-62560093D01*
X96129786Y-62498109D01*
X96129788Y-62498106D01*
X96129792Y-62498104D01*
X96280104Y-62347792D01*
X96280106Y-62347788D01*
X96280109Y-62347786D01*
X96405048Y-62175820D01*
X96405047Y-62175820D01*
X96405051Y-62175816D01*
X96409514Y-62167054D01*
X96457488Y-62116259D01*
X96525308Y-62099463D01*
X96591444Y-62121999D01*
X96630486Y-62167056D01*
X96634951Y-62175820D01*
X96759890Y-62347786D01*
X96910213Y-62498109D01*
X97082179Y-62623048D01*
X97082181Y-62623049D01*
X97082184Y-62623051D01*
X97271588Y-62719557D01*
X97473757Y-62785246D01*
X97683713Y-62818500D01*
X97683714Y-62818500D01*
X97896286Y-62818500D01*
X97896287Y-62818500D01*
X98106243Y-62785246D01*
X98308412Y-62719557D01*
X98497816Y-62623051D01*
X98584471Y-62560093D01*
X98669786Y-62498109D01*
X98669788Y-62498106D01*
X98669792Y-62498104D01*
X98820104Y-62347792D01*
X98820106Y-62347788D01*
X98820109Y-62347786D01*
X98945048Y-62175820D01*
X98945047Y-62175820D01*
X98945051Y-62175816D01*
X98949514Y-62167054D01*
X98997488Y-62116259D01*
X99065308Y-62099463D01*
X99131444Y-62121999D01*
X99170486Y-62167056D01*
X99174951Y-62175820D01*
X99299890Y-62347786D01*
X99450213Y-62498109D01*
X99622179Y-62623048D01*
X99622181Y-62623049D01*
X99622184Y-62623051D01*
X99811588Y-62719557D01*
X100013757Y-62785246D01*
X100223713Y-62818500D01*
X100223714Y-62818500D01*
X100436286Y-62818500D01*
X100436287Y-62818500D01*
X100646243Y-62785246D01*
X100848412Y-62719557D01*
X101037816Y-62623051D01*
X101124471Y-62560093D01*
X101209786Y-62498109D01*
X101209788Y-62498106D01*
X101209792Y-62498104D01*
X101360104Y-62347792D01*
X101360106Y-62347788D01*
X101360109Y-62347786D01*
X101485048Y-62175820D01*
X101485047Y-62175820D01*
X101485051Y-62175816D01*
X101489514Y-62167054D01*
X101537488Y-62116259D01*
X101605308Y-62099463D01*
X101671444Y-62121999D01*
X101710486Y-62167056D01*
X101714951Y-62175820D01*
X101839890Y-62347786D01*
X101990213Y-62498109D01*
X102162179Y-62623048D01*
X102162181Y-62623049D01*
X102162184Y-62623051D01*
X102351588Y-62719557D01*
X102553757Y-62785246D01*
X102763713Y-62818500D01*
X102763714Y-62818500D01*
X102976286Y-62818500D01*
X102976287Y-62818500D01*
X103186243Y-62785246D01*
X103388412Y-62719557D01*
X103577816Y-62623051D01*
X103664471Y-62560093D01*
X103749786Y-62498109D01*
X103749788Y-62498106D01*
X103749792Y-62498104D01*
X103900104Y-62347792D01*
X103900106Y-62347788D01*
X103900109Y-62347786D01*
X104025048Y-62175820D01*
X104025047Y-62175820D01*
X104025051Y-62175816D01*
X104029514Y-62167054D01*
X104077488Y-62116259D01*
X104145308Y-62099463D01*
X104211444Y-62121999D01*
X104250486Y-62167056D01*
X104254951Y-62175820D01*
X104379890Y-62347786D01*
X104530213Y-62498109D01*
X104702179Y-62623048D01*
X104702181Y-62623049D01*
X104702184Y-62623051D01*
X104891588Y-62719557D01*
X105093757Y-62785246D01*
X105303713Y-62818500D01*
X105303714Y-62818500D01*
X105516286Y-62818500D01*
X105516287Y-62818500D01*
X105726243Y-62785246D01*
X105928412Y-62719557D01*
X106117816Y-62623051D01*
X106204471Y-62560093D01*
X106289786Y-62498109D01*
X106289788Y-62498106D01*
X106289792Y-62498104D01*
X106440104Y-62347792D01*
X106440106Y-62347788D01*
X106440109Y-62347786D01*
X106565048Y-62175820D01*
X106565047Y-62175820D01*
X106565051Y-62175816D01*
X106569514Y-62167054D01*
X106617488Y-62116259D01*
X106685308Y-62099463D01*
X106751444Y-62121999D01*
X106790486Y-62167056D01*
X106794951Y-62175820D01*
X106919890Y-62347786D01*
X107070213Y-62498109D01*
X107242179Y-62623048D01*
X107242181Y-62623049D01*
X107242184Y-62623051D01*
X107431588Y-62719557D01*
X107633757Y-62785246D01*
X107843713Y-62818500D01*
X107843714Y-62818500D01*
X108056286Y-62818500D01*
X108056287Y-62818500D01*
X108266243Y-62785246D01*
X108468412Y-62719557D01*
X108657816Y-62623051D01*
X108744471Y-62560093D01*
X108829786Y-62498109D01*
X108829788Y-62498106D01*
X108829792Y-62498104D01*
X108980104Y-62347792D01*
X108980106Y-62347788D01*
X108980109Y-62347786D01*
X109105048Y-62175820D01*
X109105047Y-62175820D01*
X109105051Y-62175816D01*
X109109514Y-62167054D01*
X109157488Y-62116259D01*
X109225308Y-62099463D01*
X109291444Y-62121999D01*
X109330486Y-62167056D01*
X109334951Y-62175820D01*
X109459890Y-62347786D01*
X109610213Y-62498109D01*
X109782179Y-62623048D01*
X109782181Y-62623049D01*
X109782184Y-62623051D01*
X109971588Y-62719557D01*
X110173757Y-62785246D01*
X110383713Y-62818500D01*
X110383714Y-62818500D01*
X110596286Y-62818500D01*
X110596287Y-62818500D01*
X110806243Y-62785246D01*
X111008412Y-62719557D01*
X111197816Y-62623051D01*
X111284471Y-62560093D01*
X111369786Y-62498109D01*
X111369788Y-62498106D01*
X111369792Y-62498104D01*
X111520104Y-62347792D01*
X111520106Y-62347788D01*
X111520109Y-62347786D01*
X111645048Y-62175820D01*
X111645047Y-62175820D01*
X111645051Y-62175816D01*
X111649514Y-62167054D01*
X111697488Y-62116259D01*
X111765308Y-62099463D01*
X111831444Y-62121999D01*
X111870486Y-62167056D01*
X111874951Y-62175820D01*
X111999890Y-62347786D01*
X112150213Y-62498109D01*
X112322179Y-62623048D01*
X112322181Y-62623049D01*
X112322184Y-62623051D01*
X112511588Y-62719557D01*
X112713757Y-62785246D01*
X112923713Y-62818500D01*
X112923714Y-62818500D01*
X113136286Y-62818500D01*
X113136287Y-62818500D01*
X113346243Y-62785246D01*
X113548412Y-62719557D01*
X113737816Y-62623051D01*
X113824471Y-62560093D01*
X113909786Y-62498109D01*
X113909788Y-62498106D01*
X113909792Y-62498104D01*
X114060104Y-62347792D01*
X114060106Y-62347788D01*
X114060109Y-62347786D01*
X114185048Y-62175820D01*
X114185047Y-62175820D01*
X114185051Y-62175816D01*
X114189514Y-62167054D01*
X114237488Y-62116259D01*
X114305308Y-62099463D01*
X114371444Y-62121999D01*
X114410486Y-62167056D01*
X114414951Y-62175820D01*
X114539890Y-62347786D01*
X114690213Y-62498109D01*
X114862179Y-62623048D01*
X114862181Y-62623049D01*
X114862184Y-62623051D01*
X115051588Y-62719557D01*
X115253757Y-62785246D01*
X115463713Y-62818500D01*
X115463714Y-62818500D01*
X115676286Y-62818500D01*
X115676287Y-62818500D01*
X115886243Y-62785246D01*
X116088412Y-62719557D01*
X116277816Y-62623051D01*
X116364471Y-62560093D01*
X116449786Y-62498109D01*
X116449788Y-62498106D01*
X116449792Y-62498104D01*
X116600104Y-62347792D01*
X116600106Y-62347788D01*
X116600109Y-62347786D01*
X116725048Y-62175820D01*
X116725047Y-62175820D01*
X116725051Y-62175816D01*
X116729514Y-62167054D01*
X116777488Y-62116259D01*
X116845308Y-62099463D01*
X116911444Y-62121999D01*
X116950486Y-62167056D01*
X116954951Y-62175820D01*
X117079890Y-62347786D01*
X117230213Y-62498109D01*
X117402179Y-62623048D01*
X117402181Y-62623049D01*
X117402184Y-62623051D01*
X117591588Y-62719557D01*
X117793757Y-62785246D01*
X118003713Y-62818500D01*
X118003714Y-62818500D01*
X118216286Y-62818500D01*
X118216287Y-62818500D01*
X118426243Y-62785246D01*
X118628412Y-62719557D01*
X118817816Y-62623051D01*
X118904471Y-62560093D01*
X118989786Y-62498109D01*
X118989788Y-62498106D01*
X118989792Y-62498104D01*
X119140104Y-62347792D01*
X119140106Y-62347788D01*
X119140109Y-62347786D01*
X119265048Y-62175820D01*
X119265047Y-62175820D01*
X119265051Y-62175816D01*
X119269514Y-62167054D01*
X119317488Y-62116259D01*
X119385308Y-62099463D01*
X119451444Y-62121999D01*
X119490486Y-62167056D01*
X119494951Y-62175820D01*
X119619890Y-62347786D01*
X119770213Y-62498109D01*
X119942179Y-62623048D01*
X119942181Y-62623049D01*
X119942184Y-62623051D01*
X120131588Y-62719557D01*
X120333757Y-62785246D01*
X120543713Y-62818500D01*
X120543714Y-62818500D01*
X120756286Y-62818500D01*
X120756287Y-62818500D01*
X120966243Y-62785246D01*
X121168412Y-62719557D01*
X121357816Y-62623051D01*
X121444471Y-62560093D01*
X121529786Y-62498109D01*
X121529788Y-62498106D01*
X121529792Y-62498104D01*
X121680104Y-62347792D01*
X121680106Y-62347788D01*
X121680109Y-62347786D01*
X121805048Y-62175820D01*
X121805047Y-62175820D01*
X121805051Y-62175816D01*
X121809514Y-62167054D01*
X121857488Y-62116259D01*
X121925308Y-62099463D01*
X121991444Y-62121999D01*
X122030486Y-62167056D01*
X122034951Y-62175820D01*
X122159890Y-62347786D01*
X122310213Y-62498109D01*
X122482179Y-62623048D01*
X122482181Y-62623049D01*
X122482184Y-62623051D01*
X122671588Y-62719557D01*
X122873757Y-62785246D01*
X123083713Y-62818500D01*
X123083714Y-62818500D01*
X123296286Y-62818500D01*
X123296287Y-62818500D01*
X123506243Y-62785246D01*
X123708412Y-62719557D01*
X123897816Y-62623051D01*
X123984471Y-62560093D01*
X124069786Y-62498109D01*
X124069788Y-62498106D01*
X124069792Y-62498104D01*
X124220104Y-62347792D01*
X124220106Y-62347788D01*
X124220109Y-62347786D01*
X124345048Y-62175820D01*
X124345047Y-62175820D01*
X124345051Y-62175816D01*
X124349514Y-62167054D01*
X124397488Y-62116259D01*
X124465308Y-62099463D01*
X124531444Y-62121999D01*
X124570486Y-62167056D01*
X124574951Y-62175820D01*
X124699890Y-62347786D01*
X124850213Y-62498109D01*
X125022179Y-62623048D01*
X125022181Y-62623049D01*
X125022184Y-62623051D01*
X125211588Y-62719557D01*
X125413757Y-62785246D01*
X125623713Y-62818500D01*
X125623714Y-62818500D01*
X125836286Y-62818500D01*
X125836287Y-62818500D01*
X126046243Y-62785246D01*
X126248412Y-62719557D01*
X126437816Y-62623051D01*
X126524471Y-62560093D01*
X126609786Y-62498109D01*
X126609788Y-62498106D01*
X126609792Y-62498104D01*
X126760104Y-62347792D01*
X126760106Y-62347788D01*
X126760109Y-62347786D01*
X126885048Y-62175820D01*
X126885047Y-62175820D01*
X126885051Y-62175816D01*
X126981557Y-61986412D01*
X127047246Y-61784243D01*
X127080500Y-61574287D01*
X127080500Y-61361713D01*
X127047246Y-61151757D01*
X126981557Y-60949588D01*
X126885051Y-60760184D01*
X126885049Y-60760181D01*
X126885048Y-60760179D01*
X126760109Y-60588213D01*
X126609786Y-60437890D01*
X126437820Y-60312951D01*
X126248414Y-60216444D01*
X126248413Y-60216443D01*
X126248412Y-60216443D01*
X126046243Y-60150754D01*
X126046241Y-60150753D01*
X126046240Y-60150753D01*
X125884957Y-60125208D01*
X125836287Y-60117500D01*
X125623713Y-60117500D01*
X125575042Y-60125208D01*
X125413760Y-60150753D01*
X125211585Y-60216444D01*
X125022179Y-60312951D01*
X124850213Y-60437890D01*
X124699890Y-60588213D01*
X124574949Y-60760182D01*
X124570484Y-60768946D01*
X124522509Y-60819742D01*
X124454688Y-60836536D01*
X124388553Y-60813998D01*
X124349516Y-60768946D01*
X124345050Y-60760182D01*
X124220109Y-60588213D01*
X124069786Y-60437890D01*
X123897820Y-60312951D01*
X123708414Y-60216444D01*
X123708413Y-60216443D01*
X123708412Y-60216443D01*
X123506243Y-60150754D01*
X123506241Y-60150753D01*
X123506240Y-60150753D01*
X123344957Y-60125208D01*
X123296287Y-60117500D01*
X123083713Y-60117500D01*
X123035042Y-60125208D01*
X122873760Y-60150753D01*
X122671585Y-60216444D01*
X122482179Y-60312951D01*
X122310213Y-60437890D01*
X122159890Y-60588213D01*
X122034949Y-60760182D01*
X122030484Y-60768946D01*
X121982509Y-60819742D01*
X121914688Y-60836536D01*
X121848553Y-60813998D01*
X121809516Y-60768946D01*
X121805050Y-60760182D01*
X121680109Y-60588213D01*
X121529786Y-60437890D01*
X121357820Y-60312951D01*
X121168414Y-60216444D01*
X121168413Y-60216443D01*
X121168412Y-60216443D01*
X120966243Y-60150754D01*
X120966241Y-60150753D01*
X120966240Y-60150753D01*
X120804957Y-60125208D01*
X120756287Y-60117500D01*
X120543713Y-60117500D01*
X120495042Y-60125208D01*
X120333760Y-60150753D01*
X120131585Y-60216444D01*
X119942179Y-60312951D01*
X119770213Y-60437890D01*
X119619890Y-60588213D01*
X119494949Y-60760182D01*
X119490484Y-60768946D01*
X119442509Y-60819742D01*
X119374688Y-60836536D01*
X119308553Y-60813998D01*
X119269516Y-60768946D01*
X119265050Y-60760182D01*
X119140109Y-60588213D01*
X118989786Y-60437890D01*
X118817820Y-60312951D01*
X118628414Y-60216444D01*
X118628413Y-60216443D01*
X118628412Y-60216443D01*
X118426243Y-60150754D01*
X118426241Y-60150753D01*
X118426240Y-60150753D01*
X118264957Y-60125208D01*
X118216287Y-60117500D01*
X118003713Y-60117500D01*
X117955042Y-60125208D01*
X117793760Y-60150753D01*
X117591585Y-60216444D01*
X117402179Y-60312951D01*
X117230213Y-60437890D01*
X117079890Y-60588213D01*
X116954949Y-60760182D01*
X116950484Y-60768946D01*
X116902509Y-60819742D01*
X116834688Y-60836536D01*
X116768553Y-60813998D01*
X116729516Y-60768946D01*
X116725050Y-60760182D01*
X116600109Y-60588213D01*
X116449786Y-60437890D01*
X116277820Y-60312951D01*
X116088414Y-60216444D01*
X116088413Y-60216443D01*
X116088412Y-60216443D01*
X115886243Y-60150754D01*
X115886241Y-60150753D01*
X115886240Y-60150753D01*
X115724957Y-60125208D01*
X115676287Y-60117500D01*
X115463713Y-60117500D01*
X115415042Y-60125208D01*
X115253760Y-60150753D01*
X115051585Y-60216444D01*
X114862179Y-60312951D01*
X114690213Y-60437890D01*
X114539890Y-60588213D01*
X114414949Y-60760182D01*
X114410484Y-60768946D01*
X114362509Y-60819742D01*
X114294688Y-60836536D01*
X114228553Y-60813998D01*
X114189516Y-60768946D01*
X114185050Y-60760182D01*
X114060109Y-60588213D01*
X113909786Y-60437890D01*
X113737820Y-60312951D01*
X113548414Y-60216444D01*
X113548413Y-60216443D01*
X113548412Y-60216443D01*
X113346243Y-60150754D01*
X113346241Y-60150753D01*
X113346240Y-60150753D01*
X113184957Y-60125208D01*
X113136287Y-60117500D01*
X112923713Y-60117500D01*
X112875042Y-60125208D01*
X112713760Y-60150753D01*
X112511585Y-60216444D01*
X112322179Y-60312951D01*
X112150213Y-60437890D01*
X111999890Y-60588213D01*
X111874949Y-60760182D01*
X111870484Y-60768946D01*
X111822509Y-60819742D01*
X111754688Y-60836536D01*
X111688553Y-60813998D01*
X111649516Y-60768946D01*
X111645050Y-60760182D01*
X111520109Y-60588213D01*
X111369786Y-60437890D01*
X111197820Y-60312951D01*
X111008414Y-60216444D01*
X111008413Y-60216443D01*
X111008412Y-60216443D01*
X110806243Y-60150754D01*
X110806241Y-60150753D01*
X110806240Y-60150753D01*
X110644957Y-60125208D01*
X110596287Y-60117500D01*
X110383713Y-60117500D01*
X110335042Y-60125208D01*
X110173760Y-60150753D01*
X109971585Y-60216444D01*
X109782179Y-60312951D01*
X109610213Y-60437890D01*
X109459890Y-60588213D01*
X109334949Y-60760182D01*
X109330484Y-60768946D01*
X109282509Y-60819742D01*
X109214688Y-60836536D01*
X109148553Y-60813998D01*
X109109516Y-60768946D01*
X109105050Y-60760182D01*
X108980109Y-60588213D01*
X108829786Y-60437890D01*
X108657820Y-60312951D01*
X108468414Y-60216444D01*
X108468413Y-60216443D01*
X108468412Y-60216443D01*
X108266243Y-60150754D01*
X108266241Y-60150753D01*
X108266240Y-60150753D01*
X108104957Y-60125208D01*
X108056287Y-60117500D01*
X107843713Y-60117500D01*
X107795042Y-60125208D01*
X107633760Y-60150753D01*
X107431585Y-60216444D01*
X107242179Y-60312951D01*
X107070213Y-60437890D01*
X106919890Y-60588213D01*
X106794949Y-60760182D01*
X106790484Y-60768946D01*
X106742509Y-60819742D01*
X106674688Y-60836536D01*
X106608553Y-60813998D01*
X106569516Y-60768946D01*
X106565050Y-60760182D01*
X106440109Y-60588213D01*
X106289786Y-60437890D01*
X106117820Y-60312951D01*
X105928414Y-60216444D01*
X105928413Y-60216443D01*
X105928412Y-60216443D01*
X105726243Y-60150754D01*
X105726241Y-60150753D01*
X105726240Y-60150753D01*
X105564957Y-60125208D01*
X105516287Y-60117500D01*
X105303713Y-60117500D01*
X105255042Y-60125208D01*
X105093760Y-60150753D01*
X104891585Y-60216444D01*
X104702179Y-60312951D01*
X104530213Y-60437890D01*
X104379890Y-60588213D01*
X104254949Y-60760182D01*
X104250484Y-60768946D01*
X104202509Y-60819742D01*
X104134688Y-60836536D01*
X104068553Y-60813998D01*
X104029516Y-60768946D01*
X104025050Y-60760182D01*
X103900109Y-60588213D01*
X103749786Y-60437890D01*
X103577820Y-60312951D01*
X103388414Y-60216444D01*
X103388413Y-60216443D01*
X103388412Y-60216443D01*
X103186243Y-60150754D01*
X103186241Y-60150753D01*
X103186240Y-60150753D01*
X103024957Y-60125208D01*
X102976287Y-60117500D01*
X102763713Y-60117500D01*
X102715042Y-60125208D01*
X102553760Y-60150753D01*
X102351585Y-60216444D01*
X102162179Y-60312951D01*
X101990213Y-60437890D01*
X101839890Y-60588213D01*
X101714949Y-60760182D01*
X101710484Y-60768946D01*
X101662509Y-60819742D01*
X101594688Y-60836536D01*
X101528553Y-60813998D01*
X101489516Y-60768946D01*
X101485050Y-60760182D01*
X101360109Y-60588213D01*
X101209786Y-60437890D01*
X101037820Y-60312951D01*
X100848414Y-60216444D01*
X100848413Y-60216443D01*
X100848412Y-60216443D01*
X100646243Y-60150754D01*
X100646241Y-60150753D01*
X100646240Y-60150753D01*
X100484957Y-60125208D01*
X100436287Y-60117500D01*
X100223713Y-60117500D01*
X100175042Y-60125208D01*
X100013760Y-60150753D01*
X99811585Y-60216444D01*
X99622179Y-60312951D01*
X99450213Y-60437890D01*
X99299890Y-60588213D01*
X99174949Y-60760182D01*
X99170484Y-60768946D01*
X99122509Y-60819742D01*
X99054688Y-60836536D01*
X98988553Y-60813998D01*
X98949516Y-60768946D01*
X98945050Y-60760182D01*
X98820109Y-60588213D01*
X98669786Y-60437890D01*
X98497820Y-60312951D01*
X98308414Y-60216444D01*
X98308413Y-60216443D01*
X98308412Y-60216443D01*
X98106243Y-60150754D01*
X98106241Y-60150753D01*
X98106240Y-60150753D01*
X97944957Y-60125208D01*
X97896287Y-60117500D01*
X97683713Y-60117500D01*
X97635042Y-60125208D01*
X97473760Y-60150753D01*
X97271585Y-60216444D01*
X97082179Y-60312951D01*
X96910213Y-60437890D01*
X96759890Y-60588213D01*
X96634949Y-60760182D01*
X96630484Y-60768946D01*
X96582509Y-60819742D01*
X96514688Y-60836536D01*
X96448553Y-60813998D01*
X96409516Y-60768946D01*
X96405050Y-60760182D01*
X96280109Y-60588213D01*
X96129786Y-60437890D01*
X95957820Y-60312951D01*
X95768414Y-60216444D01*
X95768413Y-60216443D01*
X95768412Y-60216443D01*
X95566243Y-60150754D01*
X95566241Y-60150753D01*
X95566240Y-60150753D01*
X95404957Y-60125208D01*
X95356287Y-60117500D01*
X95143713Y-60117500D01*
X95095042Y-60125208D01*
X94933760Y-60150753D01*
X94731585Y-60216444D01*
X94542179Y-60312951D01*
X94370213Y-60437890D01*
X94219890Y-60588213D01*
X94094949Y-60760182D01*
X94090484Y-60768946D01*
X94042509Y-60819742D01*
X93974688Y-60836536D01*
X93908553Y-60813998D01*
X93869516Y-60768946D01*
X93865050Y-60760182D01*
X93740109Y-60588213D01*
X93589786Y-60437890D01*
X93417820Y-60312951D01*
X93228414Y-60216444D01*
X93228413Y-60216443D01*
X93228412Y-60216443D01*
X93026243Y-60150754D01*
X93026241Y-60150753D01*
X93026240Y-60150753D01*
X92864957Y-60125208D01*
X92816287Y-60117500D01*
X92603713Y-60117500D01*
X92555042Y-60125208D01*
X92393760Y-60150753D01*
X92191585Y-60216444D01*
X92002179Y-60312951D01*
X91830213Y-60437890D01*
X91679890Y-60588213D01*
X91554949Y-60760182D01*
X91550484Y-60768946D01*
X91502509Y-60819742D01*
X91434688Y-60836536D01*
X91368553Y-60813998D01*
X91329516Y-60768946D01*
X91325050Y-60760182D01*
X91200109Y-60588213D01*
X91049786Y-60437890D01*
X90877820Y-60312951D01*
X90688414Y-60216444D01*
X90688413Y-60216443D01*
X90688412Y-60216443D01*
X90486243Y-60150754D01*
X90486241Y-60150753D01*
X90486240Y-60150753D01*
X90324957Y-60125208D01*
X90276287Y-60117500D01*
X90063713Y-60117500D01*
X90015042Y-60125208D01*
X89853760Y-60150753D01*
X89651585Y-60216444D01*
X89462179Y-60312951D01*
X89290213Y-60437890D01*
X89139890Y-60588213D01*
X89014949Y-60760182D01*
X89010484Y-60768946D01*
X88962509Y-60819742D01*
X88894688Y-60836536D01*
X88828553Y-60813998D01*
X88789516Y-60768946D01*
X88785050Y-60760182D01*
X88660109Y-60588213D01*
X88509786Y-60437890D01*
X88337820Y-60312951D01*
X88148414Y-60216444D01*
X88148413Y-60216443D01*
X88148412Y-60216443D01*
X87946243Y-60150754D01*
X87946241Y-60150753D01*
X87946240Y-60150753D01*
X87784957Y-60125208D01*
X87736287Y-60117500D01*
X87523713Y-60117500D01*
X87475042Y-60125208D01*
X87313760Y-60150753D01*
X87111585Y-60216444D01*
X86922179Y-60312951D01*
X86750213Y-60437890D01*
X86599890Y-60588213D01*
X86474949Y-60760182D01*
X86470484Y-60768946D01*
X86422509Y-60819742D01*
X86354688Y-60836536D01*
X86288553Y-60813998D01*
X86249516Y-60768946D01*
X86245050Y-60760182D01*
X86120109Y-60588213D01*
X85969786Y-60437890D01*
X85797820Y-60312951D01*
X85608414Y-60216444D01*
X85608413Y-60216443D01*
X85608412Y-60216443D01*
X85406243Y-60150754D01*
X85406241Y-60150753D01*
X85406240Y-60150753D01*
X85244957Y-60125208D01*
X85196287Y-60117500D01*
X84983713Y-60117500D01*
X84935042Y-60125208D01*
X84773760Y-60150753D01*
X84571585Y-60216444D01*
X84382179Y-60312951D01*
X84210215Y-60437889D01*
X84096285Y-60551819D01*
X84034962Y-60585303D01*
X83965270Y-60580319D01*
X83909337Y-60538447D01*
X83892422Y-60507470D01*
X83843354Y-60375913D01*
X83843350Y-60375906D01*
X83757190Y-60260812D01*
X83757187Y-60260809D01*
X83642093Y-60174649D01*
X83642086Y-60174645D01*
X83507379Y-60124403D01*
X83507372Y-60124401D01*
X83447844Y-60118000D01*
X82800000Y-60118000D01*
X82800000Y-61034988D01*
X82742993Y-61002075D01*
X82615826Y-60968000D01*
X82484174Y-60968000D01*
X82357007Y-61002075D01*
X82300000Y-61034988D01*
X82300000Y-60118000D01*
X81652155Y-60118000D01*
X81592627Y-60124401D01*
X81592620Y-60124403D01*
X81457913Y-60174645D01*
X81457906Y-60174649D01*
X81342812Y-60260809D01*
X81342809Y-60260812D01*
X81256649Y-60375906D01*
X81256645Y-60375913D01*
X81206403Y-60510620D01*
X81206401Y-60510627D01*
X81200000Y-60570155D01*
X75358202Y-60570155D01*
X75290522Y-60522134D01*
X75279650Y-60513464D01*
X75039225Y-60298607D01*
X75029392Y-60288774D01*
X74814535Y-60048349D01*
X74805865Y-60037477D01*
X74619280Y-59774508D01*
X74611882Y-59762734D01*
X74455911Y-59480527D01*
X74449881Y-59468006D01*
X74326488Y-59170108D01*
X74321895Y-59156983D01*
X74232630Y-58847140D01*
X74229536Y-58833583D01*
X74196542Y-58639392D01*
X74175524Y-58515693D01*
X74173970Y-58501895D01*
X74155890Y-58179944D01*
X74155890Y-58166047D01*
X74162311Y-58051711D01*
X75304500Y-58051711D01*
X75304500Y-58294288D01*
X75336161Y-58534785D01*
X75398947Y-58769104D01*
X75428500Y-58840451D01*
X75491776Y-58993212D01*
X75613064Y-59203289D01*
X75613066Y-59203292D01*
X75613067Y-59203293D01*
X75760733Y-59395736D01*
X75760739Y-59395743D01*
X75932256Y-59567260D01*
X75932262Y-59567265D01*
X76124711Y-59714936D01*
X76334788Y-59836224D01*
X76558900Y-59929054D01*
X76793211Y-59991838D01*
X76973586Y-60015584D01*
X77033711Y-60023500D01*
X77033712Y-60023500D01*
X77276289Y-60023500D01*
X77324388Y-60017167D01*
X77516789Y-59991838D01*
X77751100Y-59929054D01*
X77975212Y-59836224D01*
X78185289Y-59714936D01*
X78377738Y-59567265D01*
X78549265Y-59395738D01*
X78696936Y-59203289D01*
X78818224Y-58993212D01*
X78911054Y-58769100D01*
X78973838Y-58534789D01*
X79005500Y-58294288D01*
X79005500Y-58051712D01*
X79004050Y-58040701D01*
X78995594Y-57976468D01*
X78973838Y-57811211D01*
X78911054Y-57576900D01*
X78818224Y-57352788D01*
X78696936Y-57142711D01*
X78549265Y-56950262D01*
X78549260Y-56950256D01*
X78377743Y-56778739D01*
X78377736Y-56778733D01*
X78185293Y-56631067D01*
X78185292Y-56631066D01*
X78185289Y-56631064D01*
X77975212Y-56509776D01*
X77975205Y-56509773D01*
X77751104Y-56416947D01*
X77516785Y-56354161D01*
X77276289Y-56322500D01*
X77276288Y-56322500D01*
X77033712Y-56322500D01*
X77033711Y-56322500D01*
X76793214Y-56354161D01*
X76558895Y-56416947D01*
X76334794Y-56509773D01*
X76334785Y-56509777D01*
X76124706Y-56631067D01*
X75932263Y-56778733D01*
X75932256Y-56778739D01*
X75760739Y-56950256D01*
X75760733Y-56950263D01*
X75613067Y-57142706D01*
X75491777Y-57352785D01*
X75491773Y-57352794D01*
X75398947Y-57576895D01*
X75336161Y-57811214D01*
X75304500Y-58051711D01*
X74162311Y-58051711D01*
X74173970Y-57844101D01*
X74175524Y-57830307D01*
X74229537Y-57512410D01*
X74232630Y-57498858D01*
X74321900Y-57188996D01*
X74326479Y-57175911D01*
X74449884Y-56877985D01*
X74455904Y-56865486D01*
X74611884Y-56583259D01*
X74619279Y-56571491D01*
X74805872Y-56308512D01*
X74814527Y-56297658D01*
X75029402Y-56057214D01*
X75039214Y-56047402D01*
X75279658Y-55832527D01*
X75290512Y-55823872D01*
X75553496Y-55637275D01*
X75565259Y-55629884D01*
X75847486Y-55473904D01*
X75859985Y-55467884D01*
X76157911Y-55344479D01*
X76170996Y-55339900D01*
X76480864Y-55250628D01*
X76494410Y-55247537D01*
X76812307Y-55193524D01*
X76826101Y-55191970D01*
X77148055Y-55173890D01*
X77161945Y-55173890D01*
X77483895Y-55191970D01*
G37*
%TD.AperFunction*%
%TD*%
M02*
