%TF.GenerationSoftware,KiCad,Pcbnew,10.0.0*%
%TF.CreationDate,2026-04-06T12:59:04+08:00*%
%TF.ProjectId,CrowdAware Node v1.0,43726f77-6441-4776-9172-65204e6f6465,B*%
%TF.SameCoordinates,Original*%
%TF.FileFunction,Legend,Top*%
%TF.FilePolarity,Positive*%
%FSLAX46Y46*%
G04 Gerber Fmt 4.6, Leading zero omitted, Abs format (unit mm)*
G04 Created by KiCad (PCBNEW 10.0.0) date 2026-04-06 12:59:04*
%MOMM*%
%LPD*%
G01*
G04 APERTURE LIST*
%ADD10C,0.160000*%
%ADD11C,0.150000*%
%ADD12C,0.200000*%
%ADD13C,0.120000*%
%ADD14C,0.127000*%
G04 APERTURE END LIST*
D10*
X81026000Y-77470000D02*
X81534000Y-76962000D01*
X81534000Y-79756000D02*
X81534000Y-76962000D01*
X81534000Y-79756000D02*
X84328000Y-79756000D01*
X82042000Y-77470000D02*
X81534000Y-76962000D01*
X83820000Y-79248000D02*
X84328000Y-79756000D01*
X83820000Y-80264000D02*
X84328000Y-79756000D01*
D11*
X128067666Y-83782819D02*
X128067666Y-84497104D01*
X128067666Y-84497104D02*
X128020047Y-84639961D01*
X128020047Y-84639961D02*
X127924809Y-84735200D01*
X127924809Y-84735200D02*
X127781952Y-84782819D01*
X127781952Y-84782819D02*
X127686714Y-84782819D01*
X129067666Y-84782819D02*
X128496238Y-84782819D01*
X128781952Y-84782819D02*
X128781952Y-83782819D01*
X128781952Y-83782819D02*
X128686714Y-83925676D01*
X128686714Y-83925676D02*
X128591476Y-84020914D01*
X128591476Y-84020914D02*
X128496238Y-84068533D01*
D10*
X81274120Y-75402632D02*
X81512215Y-76069299D01*
X81750310Y-75402632D02*
X81512215Y-76069299D01*
X81512215Y-76069299D02*
X81416977Y-76307394D01*
X81416977Y-76307394D02*
X81369358Y-76355013D01*
X81369358Y-76355013D02*
X81274120Y-76402632D01*
X85084120Y-80133299D02*
X85607929Y-79466632D01*
X85084120Y-79466632D02*
X85607929Y-80133299D01*
X106805120Y-78851632D02*
X107043215Y-79518299D01*
X107043215Y-79518299D02*
X107281310Y-78851632D01*
X108186072Y-79518299D02*
X107614644Y-79518299D01*
X107900358Y-79518299D02*
X107900358Y-78518299D01*
X107900358Y-78518299D02*
X107805120Y-78661156D01*
X107805120Y-78661156D02*
X107709882Y-78756394D01*
X107709882Y-78756394D02*
X107614644Y-78804013D01*
X108614644Y-79423060D02*
X108662263Y-79470680D01*
X108662263Y-79470680D02*
X108614644Y-79518299D01*
X108614644Y-79518299D02*
X108567025Y-79470680D01*
X108567025Y-79470680D02*
X108614644Y-79423060D01*
X108614644Y-79423060D02*
X108614644Y-79518299D01*
X109281310Y-78518299D02*
X109376548Y-78518299D01*
X109376548Y-78518299D02*
X109471786Y-78565918D01*
X109471786Y-78565918D02*
X109519405Y-78613537D01*
X109519405Y-78613537D02*
X109567024Y-78708775D01*
X109567024Y-78708775D02*
X109614643Y-78899251D01*
X109614643Y-78899251D02*
X109614643Y-79137346D01*
X109614643Y-79137346D02*
X109567024Y-79327822D01*
X109567024Y-79327822D02*
X109519405Y-79423060D01*
X109519405Y-79423060D02*
X109471786Y-79470680D01*
X109471786Y-79470680D02*
X109376548Y-79518299D01*
X109376548Y-79518299D02*
X109281310Y-79518299D01*
X109281310Y-79518299D02*
X109186072Y-79470680D01*
X109186072Y-79470680D02*
X109138453Y-79423060D01*
X109138453Y-79423060D02*
X109090834Y-79327822D01*
X109090834Y-79327822D02*
X109043215Y-79137346D01*
X109043215Y-79137346D02*
X109043215Y-78899251D01*
X109043215Y-78899251D02*
X109090834Y-78708775D01*
X109090834Y-78708775D02*
X109138453Y-78613537D01*
X109138453Y-78613537D02*
X109186072Y-78565918D01*
X109186072Y-78565918D02*
X109281310Y-78518299D01*
X110805120Y-79518299D02*
X110805120Y-78851632D01*
X110805120Y-79042108D02*
X110852739Y-78946870D01*
X110852739Y-78946870D02*
X110900358Y-78899251D01*
X110900358Y-78899251D02*
X110995596Y-78851632D01*
X110995596Y-78851632D02*
X111090834Y-78851632D01*
X111805120Y-79470680D02*
X111709882Y-79518299D01*
X111709882Y-79518299D02*
X111519406Y-79518299D01*
X111519406Y-79518299D02*
X111424168Y-79470680D01*
X111424168Y-79470680D02*
X111376549Y-79375441D01*
X111376549Y-79375441D02*
X111376549Y-78994489D01*
X111376549Y-78994489D02*
X111424168Y-78899251D01*
X111424168Y-78899251D02*
X111519406Y-78851632D01*
X111519406Y-78851632D02*
X111709882Y-78851632D01*
X111709882Y-78851632D02*
X111805120Y-78899251D01*
X111805120Y-78899251D02*
X111852739Y-78994489D01*
X111852739Y-78994489D02*
X111852739Y-79089727D01*
X111852739Y-79089727D02*
X111376549Y-79184965D01*
X112186073Y-78851632D02*
X112424168Y-79518299D01*
X112424168Y-79518299D02*
X112662263Y-78851632D01*
X113043216Y-79423060D02*
X113090835Y-79470680D01*
X113090835Y-79470680D02*
X113043216Y-79518299D01*
X113043216Y-79518299D02*
X112995597Y-79470680D01*
X112995597Y-79470680D02*
X113043216Y-79423060D01*
X113043216Y-79423060D02*
X113043216Y-79518299D01*
X114614644Y-78994489D02*
X114757501Y-79042108D01*
X114757501Y-79042108D02*
X114805120Y-79089727D01*
X114805120Y-79089727D02*
X114852739Y-79184965D01*
X114852739Y-79184965D02*
X114852739Y-79327822D01*
X114852739Y-79327822D02*
X114805120Y-79423060D01*
X114805120Y-79423060D02*
X114757501Y-79470680D01*
X114757501Y-79470680D02*
X114662263Y-79518299D01*
X114662263Y-79518299D02*
X114281311Y-79518299D01*
X114281311Y-79518299D02*
X114281311Y-78518299D01*
X114281311Y-78518299D02*
X114614644Y-78518299D01*
X114614644Y-78518299D02*
X114709882Y-78565918D01*
X114709882Y-78565918D02*
X114757501Y-78613537D01*
X114757501Y-78613537D02*
X114805120Y-78708775D01*
X114805120Y-78708775D02*
X114805120Y-78804013D01*
X114805120Y-78804013D02*
X114757501Y-78899251D01*
X114757501Y-78899251D02*
X114709882Y-78946870D01*
X114709882Y-78946870D02*
X114614644Y-78994489D01*
X114614644Y-78994489D02*
X114281311Y-78994489D01*
X106900358Y-81296299D02*
X106900358Y-80296299D01*
X106900358Y-80772489D02*
X107471786Y-80772489D01*
X107471786Y-81296299D02*
X107471786Y-80296299D01*
X107947977Y-81296299D02*
X107947977Y-80296299D01*
X108519405Y-81296299D02*
X108090834Y-80724870D01*
X108519405Y-80296299D02*
X107947977Y-80867727D01*
X108947977Y-80296299D02*
X108947977Y-81105822D01*
X108947977Y-81105822D02*
X108995596Y-81201060D01*
X108995596Y-81201060D02*
X109043215Y-81248680D01*
X109043215Y-81248680D02*
X109138453Y-81296299D01*
X109138453Y-81296299D02*
X109328929Y-81296299D01*
X109328929Y-81296299D02*
X109424167Y-81248680D01*
X109424167Y-81248680D02*
X109471786Y-81201060D01*
X109471786Y-81201060D02*
X109519405Y-81105822D01*
X109519405Y-81105822D02*
X109519405Y-80296299D01*
X110757501Y-81296299D02*
X110757501Y-80296299D01*
X111233691Y-80629632D02*
X111233691Y-81296299D01*
X111233691Y-80724870D02*
X111281310Y-80677251D01*
X111281310Y-80677251D02*
X111376548Y-80629632D01*
X111376548Y-80629632D02*
X111519405Y-80629632D01*
X111519405Y-80629632D02*
X111614643Y-80677251D01*
X111614643Y-80677251D02*
X111662262Y-80772489D01*
X111662262Y-80772489D02*
X111662262Y-81296299D01*
X112138453Y-80629632D02*
X112138453Y-81296299D01*
X112138453Y-80724870D02*
X112186072Y-80677251D01*
X112186072Y-80677251D02*
X112281310Y-80629632D01*
X112281310Y-80629632D02*
X112424167Y-80629632D01*
X112424167Y-80629632D02*
X112519405Y-80677251D01*
X112519405Y-80677251D02*
X112567024Y-80772489D01*
X112567024Y-80772489D02*
X112567024Y-81296299D01*
X113186072Y-81296299D02*
X113090834Y-81248680D01*
X113090834Y-81248680D02*
X113043215Y-81201060D01*
X113043215Y-81201060D02*
X112995596Y-81105822D01*
X112995596Y-81105822D02*
X112995596Y-80820108D01*
X112995596Y-80820108D02*
X113043215Y-80724870D01*
X113043215Y-80724870D02*
X113090834Y-80677251D01*
X113090834Y-80677251D02*
X113186072Y-80629632D01*
X113186072Y-80629632D02*
X113328929Y-80629632D01*
X113328929Y-80629632D02*
X113424167Y-80677251D01*
X113424167Y-80677251D02*
X113471786Y-80724870D01*
X113471786Y-80724870D02*
X113519405Y-80820108D01*
X113519405Y-80820108D02*
X113519405Y-81105822D01*
X113519405Y-81105822D02*
X113471786Y-81201060D01*
X113471786Y-81201060D02*
X113424167Y-81248680D01*
X113424167Y-81248680D02*
X113328929Y-81296299D01*
X113328929Y-81296299D02*
X113186072Y-81296299D01*
X113852739Y-80296299D02*
X114090834Y-81296299D01*
X114090834Y-81296299D02*
X114281310Y-80582013D01*
X114281310Y-80582013D02*
X114471786Y-81296299D01*
X114471786Y-81296299D02*
X114709882Y-80296299D01*
X115090834Y-81296299D02*
X115090834Y-80629632D01*
X115090834Y-80296299D02*
X115043215Y-80343918D01*
X115043215Y-80343918D02*
X115090834Y-80391537D01*
X115090834Y-80391537D02*
X115138453Y-80343918D01*
X115138453Y-80343918D02*
X115090834Y-80296299D01*
X115090834Y-80296299D02*
X115090834Y-80391537D01*
X115567024Y-80629632D02*
X115567024Y-81296299D01*
X115567024Y-80724870D02*
X115614643Y-80677251D01*
X115614643Y-80677251D02*
X115709881Y-80629632D01*
X115709881Y-80629632D02*
X115852738Y-80629632D01*
X115852738Y-80629632D02*
X115947976Y-80677251D01*
X115947976Y-80677251D02*
X115995595Y-80772489D01*
X115995595Y-80772489D02*
X115995595Y-81296299D01*
X116900357Y-80629632D02*
X116900357Y-81439156D01*
X116900357Y-81439156D02*
X116852738Y-81534394D01*
X116852738Y-81534394D02*
X116805119Y-81582013D01*
X116805119Y-81582013D02*
X116709881Y-81629632D01*
X116709881Y-81629632D02*
X116567024Y-81629632D01*
X116567024Y-81629632D02*
X116471786Y-81582013D01*
X116900357Y-81248680D02*
X116805119Y-81296299D01*
X116805119Y-81296299D02*
X116614643Y-81296299D01*
X116614643Y-81296299D02*
X116519405Y-81248680D01*
X116519405Y-81248680D02*
X116471786Y-81201060D01*
X116471786Y-81201060D02*
X116424167Y-81105822D01*
X116424167Y-81105822D02*
X116424167Y-80820108D01*
X116424167Y-80820108D02*
X116471786Y-80724870D01*
X116471786Y-80724870D02*
X116519405Y-80677251D01*
X116519405Y-80677251D02*
X116614643Y-80629632D01*
X116614643Y-80629632D02*
X116805119Y-80629632D01*
X116805119Y-80629632D02*
X116900357Y-80677251D01*
X118138453Y-81296299D02*
X118138453Y-80296299D01*
X118757500Y-81296299D02*
X118662262Y-81248680D01*
X118662262Y-81248680D02*
X118614643Y-81201060D01*
X118614643Y-81201060D02*
X118567024Y-81105822D01*
X118567024Y-81105822D02*
X118567024Y-80820108D01*
X118567024Y-80820108D02*
X118614643Y-80724870D01*
X118614643Y-80724870D02*
X118662262Y-80677251D01*
X118662262Y-80677251D02*
X118757500Y-80629632D01*
X118757500Y-80629632D02*
X118900357Y-80629632D01*
X118900357Y-80629632D02*
X118995595Y-80677251D01*
X118995595Y-80677251D02*
X119043214Y-80724870D01*
X119043214Y-80724870D02*
X119090833Y-80820108D01*
X119090833Y-80820108D02*
X119090833Y-81105822D01*
X119090833Y-81105822D02*
X119043214Y-81201060D01*
X119043214Y-81201060D02*
X118995595Y-81248680D01*
X118995595Y-81248680D02*
X118900357Y-81296299D01*
X118900357Y-81296299D02*
X118757500Y-81296299D01*
X119376548Y-80296299D02*
X119947976Y-80296299D01*
X119662262Y-81296299D02*
X119662262Y-80296299D01*
X120900358Y-80296299D02*
X121471786Y-80296299D01*
X121186072Y-81296299D02*
X121186072Y-80296299D01*
X122186072Y-81248680D02*
X122090834Y-81296299D01*
X122090834Y-81296299D02*
X121900358Y-81296299D01*
X121900358Y-81296299D02*
X121805120Y-81248680D01*
X121805120Y-81248680D02*
X121757501Y-81153441D01*
X121757501Y-81153441D02*
X121757501Y-80772489D01*
X121757501Y-80772489D02*
X121805120Y-80677251D01*
X121805120Y-80677251D02*
X121900358Y-80629632D01*
X121900358Y-80629632D02*
X122090834Y-80629632D01*
X122090834Y-80629632D02*
X122186072Y-80677251D01*
X122186072Y-80677251D02*
X122233691Y-80772489D01*
X122233691Y-80772489D02*
X122233691Y-80867727D01*
X122233691Y-80867727D02*
X121757501Y-80962965D01*
X123090834Y-81296299D02*
X123090834Y-80772489D01*
X123090834Y-80772489D02*
X123043215Y-80677251D01*
X123043215Y-80677251D02*
X122947977Y-80629632D01*
X122947977Y-80629632D02*
X122757501Y-80629632D01*
X122757501Y-80629632D02*
X122662263Y-80677251D01*
X123090834Y-81248680D02*
X122995596Y-81296299D01*
X122995596Y-81296299D02*
X122757501Y-81296299D01*
X122757501Y-81296299D02*
X122662263Y-81248680D01*
X122662263Y-81248680D02*
X122614644Y-81153441D01*
X122614644Y-81153441D02*
X122614644Y-81058203D01*
X122614644Y-81058203D02*
X122662263Y-80962965D01*
X122662263Y-80962965D02*
X122757501Y-80915346D01*
X122757501Y-80915346D02*
X122995596Y-80915346D01*
X122995596Y-80915346D02*
X123090834Y-80867727D01*
X123567025Y-81296299D02*
X123567025Y-80629632D01*
X123567025Y-80724870D02*
X123614644Y-80677251D01*
X123614644Y-80677251D02*
X123709882Y-80629632D01*
X123709882Y-80629632D02*
X123852739Y-80629632D01*
X123852739Y-80629632D02*
X123947977Y-80677251D01*
X123947977Y-80677251D02*
X123995596Y-80772489D01*
X123995596Y-80772489D02*
X123995596Y-81296299D01*
X123995596Y-80772489D02*
X124043215Y-80677251D01*
X124043215Y-80677251D02*
X124138453Y-80629632D01*
X124138453Y-80629632D02*
X124281310Y-80629632D01*
X124281310Y-80629632D02*
X124376549Y-80677251D01*
X124376549Y-80677251D02*
X124424168Y-80772489D01*
X124424168Y-80772489D02*
X124424168Y-81296299D01*
D12*
X107406006Y-77599457D02*
X107348863Y-77656600D01*
X107348863Y-77656600D02*
X107177435Y-77713742D01*
X107177435Y-77713742D02*
X107063149Y-77713742D01*
X107063149Y-77713742D02*
X106891720Y-77656600D01*
X106891720Y-77656600D02*
X106777435Y-77542314D01*
X106777435Y-77542314D02*
X106720292Y-77428028D01*
X106720292Y-77428028D02*
X106663149Y-77199457D01*
X106663149Y-77199457D02*
X106663149Y-77028028D01*
X106663149Y-77028028D02*
X106720292Y-76799457D01*
X106720292Y-76799457D02*
X106777435Y-76685171D01*
X106777435Y-76685171D02*
X106891720Y-76570885D01*
X106891720Y-76570885D02*
X107063149Y-76513742D01*
X107063149Y-76513742D02*
X107177435Y-76513742D01*
X107177435Y-76513742D02*
X107348863Y-76570885D01*
X107348863Y-76570885D02*
X107406006Y-76628028D01*
X107920292Y-77713742D02*
X107920292Y-76913742D01*
X107920292Y-77142314D02*
X107977435Y-77028028D01*
X107977435Y-77028028D02*
X108034578Y-76970885D01*
X108034578Y-76970885D02*
X108148863Y-76913742D01*
X108148863Y-76913742D02*
X108263149Y-76913742D01*
X108834577Y-77713742D02*
X108720292Y-77656600D01*
X108720292Y-77656600D02*
X108663149Y-77599457D01*
X108663149Y-77599457D02*
X108606006Y-77485171D01*
X108606006Y-77485171D02*
X108606006Y-77142314D01*
X108606006Y-77142314D02*
X108663149Y-77028028D01*
X108663149Y-77028028D02*
X108720292Y-76970885D01*
X108720292Y-76970885D02*
X108834577Y-76913742D01*
X108834577Y-76913742D02*
X109006006Y-76913742D01*
X109006006Y-76913742D02*
X109120292Y-76970885D01*
X109120292Y-76970885D02*
X109177435Y-77028028D01*
X109177435Y-77028028D02*
X109234577Y-77142314D01*
X109234577Y-77142314D02*
X109234577Y-77485171D01*
X109234577Y-77485171D02*
X109177435Y-77599457D01*
X109177435Y-77599457D02*
X109120292Y-77656600D01*
X109120292Y-77656600D02*
X109006006Y-77713742D01*
X109006006Y-77713742D02*
X108834577Y-77713742D01*
X109634577Y-76913742D02*
X109863149Y-77713742D01*
X109863149Y-77713742D02*
X110091720Y-77142314D01*
X110091720Y-77142314D02*
X110320291Y-77713742D01*
X110320291Y-77713742D02*
X110548863Y-76913742D01*
X111520292Y-77713742D02*
X111520292Y-76513742D01*
X111520292Y-77656600D02*
X111406006Y-77713742D01*
X111406006Y-77713742D02*
X111177434Y-77713742D01*
X111177434Y-77713742D02*
X111063149Y-77656600D01*
X111063149Y-77656600D02*
X111006006Y-77599457D01*
X111006006Y-77599457D02*
X110948863Y-77485171D01*
X110948863Y-77485171D02*
X110948863Y-77142314D01*
X110948863Y-77142314D02*
X111006006Y-77028028D01*
X111006006Y-77028028D02*
X111063149Y-76970885D01*
X111063149Y-76970885D02*
X111177434Y-76913742D01*
X111177434Y-76913742D02*
X111406006Y-76913742D01*
X111406006Y-76913742D02*
X111520292Y-76970885D01*
X112034577Y-77370885D02*
X112606006Y-77370885D01*
X111920291Y-77713742D02*
X112320291Y-76513742D01*
X112320291Y-76513742D02*
X112720291Y-77713742D01*
X113006005Y-76913742D02*
X113234577Y-77713742D01*
X113234577Y-77713742D02*
X113463148Y-77142314D01*
X113463148Y-77142314D02*
X113691719Y-77713742D01*
X113691719Y-77713742D02*
X113920291Y-76913742D01*
X114891720Y-77713742D02*
X114891720Y-77085171D01*
X114891720Y-77085171D02*
X114834577Y-76970885D01*
X114834577Y-76970885D02*
X114720291Y-76913742D01*
X114720291Y-76913742D02*
X114491720Y-76913742D01*
X114491720Y-76913742D02*
X114377434Y-76970885D01*
X114891720Y-77656600D02*
X114777434Y-77713742D01*
X114777434Y-77713742D02*
X114491720Y-77713742D01*
X114491720Y-77713742D02*
X114377434Y-77656600D01*
X114377434Y-77656600D02*
X114320291Y-77542314D01*
X114320291Y-77542314D02*
X114320291Y-77428028D01*
X114320291Y-77428028D02*
X114377434Y-77313742D01*
X114377434Y-77313742D02*
X114491720Y-77256600D01*
X114491720Y-77256600D02*
X114777434Y-77256600D01*
X114777434Y-77256600D02*
X114891720Y-77199457D01*
X115463148Y-77713742D02*
X115463148Y-76913742D01*
X115463148Y-77142314D02*
X115520291Y-77028028D01*
X115520291Y-77028028D02*
X115577434Y-76970885D01*
X115577434Y-76970885D02*
X115691719Y-76913742D01*
X115691719Y-76913742D02*
X115806005Y-76913742D01*
X116663148Y-77656600D02*
X116548862Y-77713742D01*
X116548862Y-77713742D02*
X116320291Y-77713742D01*
X116320291Y-77713742D02*
X116206005Y-77656600D01*
X116206005Y-77656600D02*
X116148862Y-77542314D01*
X116148862Y-77542314D02*
X116148862Y-77085171D01*
X116148862Y-77085171D02*
X116206005Y-76970885D01*
X116206005Y-76970885D02*
X116320291Y-76913742D01*
X116320291Y-76913742D02*
X116548862Y-76913742D01*
X116548862Y-76913742D02*
X116663148Y-76970885D01*
X116663148Y-76970885D02*
X116720291Y-77085171D01*
X116720291Y-77085171D02*
X116720291Y-77199457D01*
X116720291Y-77199457D02*
X116148862Y-77313742D01*
X118148862Y-77713742D02*
X118148862Y-76513742D01*
X118148862Y-76513742D02*
X118834576Y-77713742D01*
X118834576Y-77713742D02*
X118834576Y-76513742D01*
X119577433Y-77713742D02*
X119463148Y-77656600D01*
X119463148Y-77656600D02*
X119406005Y-77599457D01*
X119406005Y-77599457D02*
X119348862Y-77485171D01*
X119348862Y-77485171D02*
X119348862Y-77142314D01*
X119348862Y-77142314D02*
X119406005Y-77028028D01*
X119406005Y-77028028D02*
X119463148Y-76970885D01*
X119463148Y-76970885D02*
X119577433Y-76913742D01*
X119577433Y-76913742D02*
X119748862Y-76913742D01*
X119748862Y-76913742D02*
X119863148Y-76970885D01*
X119863148Y-76970885D02*
X119920291Y-77028028D01*
X119920291Y-77028028D02*
X119977433Y-77142314D01*
X119977433Y-77142314D02*
X119977433Y-77485171D01*
X119977433Y-77485171D02*
X119920291Y-77599457D01*
X119920291Y-77599457D02*
X119863148Y-77656600D01*
X119863148Y-77656600D02*
X119748862Y-77713742D01*
X119748862Y-77713742D02*
X119577433Y-77713742D01*
X121006005Y-77713742D02*
X121006005Y-76513742D01*
X121006005Y-77656600D02*
X120891719Y-77713742D01*
X120891719Y-77713742D02*
X120663147Y-77713742D01*
X120663147Y-77713742D02*
X120548862Y-77656600D01*
X120548862Y-77656600D02*
X120491719Y-77599457D01*
X120491719Y-77599457D02*
X120434576Y-77485171D01*
X120434576Y-77485171D02*
X120434576Y-77142314D01*
X120434576Y-77142314D02*
X120491719Y-77028028D01*
X120491719Y-77028028D02*
X120548862Y-76970885D01*
X120548862Y-76970885D02*
X120663147Y-76913742D01*
X120663147Y-76913742D02*
X120891719Y-76913742D01*
X120891719Y-76913742D02*
X121006005Y-76970885D01*
X122034576Y-77656600D02*
X121920290Y-77713742D01*
X121920290Y-77713742D02*
X121691719Y-77713742D01*
X121691719Y-77713742D02*
X121577433Y-77656600D01*
X121577433Y-77656600D02*
X121520290Y-77542314D01*
X121520290Y-77542314D02*
X121520290Y-77085171D01*
X121520290Y-77085171D02*
X121577433Y-76970885D01*
X121577433Y-76970885D02*
X121691719Y-76913742D01*
X121691719Y-76913742D02*
X121920290Y-76913742D01*
X121920290Y-76913742D02*
X122034576Y-76970885D01*
X122034576Y-76970885D02*
X122091719Y-77085171D01*
X122091719Y-77085171D02*
X122091719Y-77199457D01*
X122091719Y-77199457D02*
X121520290Y-77313742D01*
D11*
X91527333Y-65891580D02*
X91479714Y-65939200D01*
X91479714Y-65939200D02*
X91336857Y-65986819D01*
X91336857Y-65986819D02*
X91241619Y-65986819D01*
X91241619Y-65986819D02*
X91098762Y-65939200D01*
X91098762Y-65939200D02*
X91003524Y-65843961D01*
X91003524Y-65843961D02*
X90955905Y-65748723D01*
X90955905Y-65748723D02*
X90908286Y-65558247D01*
X90908286Y-65558247D02*
X90908286Y-65415390D01*
X90908286Y-65415390D02*
X90955905Y-65224914D01*
X90955905Y-65224914D02*
X91003524Y-65129676D01*
X91003524Y-65129676D02*
X91098762Y-65034438D01*
X91098762Y-65034438D02*
X91241619Y-64986819D01*
X91241619Y-64986819D02*
X91336857Y-64986819D01*
X91336857Y-64986819D02*
X91479714Y-65034438D01*
X91479714Y-65034438D02*
X91527333Y-65082057D01*
X91908286Y-65082057D02*
X91955905Y-65034438D01*
X91955905Y-65034438D02*
X92051143Y-64986819D01*
X92051143Y-64986819D02*
X92289238Y-64986819D01*
X92289238Y-64986819D02*
X92384476Y-65034438D01*
X92384476Y-65034438D02*
X92432095Y-65082057D01*
X92432095Y-65082057D02*
X92479714Y-65177295D01*
X92479714Y-65177295D02*
X92479714Y-65272533D01*
X92479714Y-65272533D02*
X92432095Y-65415390D01*
X92432095Y-65415390D02*
X91860667Y-65986819D01*
X91860667Y-65986819D02*
X92479714Y-65986819D01*
X90471714Y-80179104D02*
X90947904Y-80179104D01*
X90376476Y-80464819D02*
X90709809Y-79464819D01*
X90709809Y-79464819D02*
X91043142Y-80464819D01*
X91900285Y-80464819D02*
X91328857Y-80464819D01*
X91614571Y-80464819D02*
X91614571Y-79464819D01*
X91614571Y-79464819D02*
X91519333Y-79607676D01*
X91519333Y-79607676D02*
X91424095Y-79702914D01*
X91424095Y-79702914D02*
X91328857Y-79750533D01*
X97623333Y-81226819D02*
X97290000Y-80750628D01*
X97051905Y-81226819D02*
X97051905Y-80226819D01*
X97051905Y-80226819D02*
X97432857Y-80226819D01*
X97432857Y-80226819D02*
X97528095Y-80274438D01*
X97528095Y-80274438D02*
X97575714Y-80322057D01*
X97575714Y-80322057D02*
X97623333Y-80417295D01*
X97623333Y-80417295D02*
X97623333Y-80560152D01*
X97623333Y-80560152D02*
X97575714Y-80655390D01*
X97575714Y-80655390D02*
X97528095Y-80703009D01*
X97528095Y-80703009D02*
X97432857Y-80750628D01*
X97432857Y-80750628D02*
X97051905Y-80750628D01*
X98575714Y-81226819D02*
X98004286Y-81226819D01*
X98290000Y-81226819D02*
X98290000Y-80226819D01*
X98290000Y-80226819D02*
X98194762Y-80369676D01*
X98194762Y-80369676D02*
X98099524Y-80464914D01*
X98099524Y-80464914D02*
X98004286Y-80512533D01*
X91527333Y-68177580D02*
X91479714Y-68225200D01*
X91479714Y-68225200D02*
X91336857Y-68272819D01*
X91336857Y-68272819D02*
X91241619Y-68272819D01*
X91241619Y-68272819D02*
X91098762Y-68225200D01*
X91098762Y-68225200D02*
X91003524Y-68129961D01*
X91003524Y-68129961D02*
X90955905Y-68034723D01*
X90955905Y-68034723D02*
X90908286Y-67844247D01*
X90908286Y-67844247D02*
X90908286Y-67701390D01*
X90908286Y-67701390D02*
X90955905Y-67510914D01*
X90955905Y-67510914D02*
X91003524Y-67415676D01*
X91003524Y-67415676D02*
X91098762Y-67320438D01*
X91098762Y-67320438D02*
X91241619Y-67272819D01*
X91241619Y-67272819D02*
X91336857Y-67272819D01*
X91336857Y-67272819D02*
X91479714Y-67320438D01*
X91479714Y-67320438D02*
X91527333Y-67368057D01*
X92479714Y-68272819D02*
X91908286Y-68272819D01*
X92194000Y-68272819D02*
X92194000Y-67272819D01*
X92194000Y-67272819D02*
X92098762Y-67415676D01*
X92098762Y-67415676D02*
X92003524Y-67510914D01*
X92003524Y-67510914D02*
X91908286Y-67558533D01*
X100163333Y-81226819D02*
X99830000Y-80750628D01*
X99591905Y-81226819D02*
X99591905Y-80226819D01*
X99591905Y-80226819D02*
X99972857Y-80226819D01*
X99972857Y-80226819D02*
X100068095Y-80274438D01*
X100068095Y-80274438D02*
X100115714Y-80322057D01*
X100115714Y-80322057D02*
X100163333Y-80417295D01*
X100163333Y-80417295D02*
X100163333Y-80560152D01*
X100163333Y-80560152D02*
X100115714Y-80655390D01*
X100115714Y-80655390D02*
X100068095Y-80703009D01*
X100068095Y-80703009D02*
X99972857Y-80750628D01*
X99972857Y-80750628D02*
X99591905Y-80750628D01*
X100544286Y-80322057D02*
X100591905Y-80274438D01*
X100591905Y-80274438D02*
X100687143Y-80226819D01*
X100687143Y-80226819D02*
X100925238Y-80226819D01*
X100925238Y-80226819D02*
X101020476Y-80274438D01*
X101020476Y-80274438D02*
X101068095Y-80322057D01*
X101068095Y-80322057D02*
X101115714Y-80417295D01*
X101115714Y-80417295D02*
X101115714Y-80512533D01*
X101115714Y-80512533D02*
X101068095Y-80655390D01*
X101068095Y-80655390D02*
X100496667Y-81226819D01*
X100496667Y-81226819D02*
X101115714Y-81226819D01*
%TO.C,C2*%
D13*
X89046267Y-65022000D02*
X88753733Y-65022000D01*
X89046267Y-66042000D02*
X88753733Y-66042000D01*
%TO.C,A1*%
D14*
X88499997Y-78944500D02*
X88499997Y-79690993D01*
X88499997Y-79690993D02*
X89300000Y-79691001D01*
X89300000Y-79691001D02*
X89299996Y-78944496D01*
X84250003Y-74310992D02*
G75*
G02*
X88900008Y-69661004I4649998J-10D01*
G01*
X88499997Y-78944500D02*
G75*
G02*
X84250003Y-74310993I400675J4633377D01*
G01*
X88900008Y-69661003D02*
G75*
G02*
X93549996Y-74311008I-10J-4649998D01*
G01*
X93549997Y-74311008D02*
G75*
G02*
X89299996Y-78944498I-4651027J216D01*
G01*
D12*
X92592717Y-78180415D02*
G75*
G02*
X92392719Y-78180415I-99999J0D01*
G01*
X92392719Y-78180415D02*
G75*
G02*
X92592717Y-78180415I99999J0D01*
G01*
%TO.C,R1*%
D13*
X97267500Y-78486724D02*
X97267500Y-77977276D01*
X98312500Y-78486724D02*
X98312500Y-77977276D01*
%TO.C,C1*%
X89046267Y-67308000D02*
X88753733Y-67308000D01*
X89046267Y-68328000D02*
X88753733Y-68328000D01*
%TO.C,R2*%
X99807500Y-78486724D02*
X99807500Y-77977276D01*
X100852500Y-78486724D02*
X100852500Y-77977276D01*
%TD*%
M02*
