%TF.GenerationSoftware,KiCad,Pcbnew,9.0.6*%
%TF.CreationDate,2026-04-05T23:13:46+08:00*%
%TF.ProjectId,CrowdAware Node v1.0,43726f77-6441-4776-9172-65204e6f6465,A*%
%TF.SameCoordinates,Original*%
%TF.FileFunction,Copper,L2,Bot*%
%TF.FilePolarity,Positive*%
%FSLAX46Y46*%
G04 Gerber Fmt 4.6, Leading zero omitted, Abs format (unit mm)*
G04 Created by KiCad (PCBNEW 9.0.6) date 2026-04-05 23:13:46*
%MOMM*%
%LPD*%
G01*
G04 APERTURE LIST*
%TA.AperFunction,ComponentPad*%
%ADD10R,1.100000X1.100000*%
%TD*%
%TA.AperFunction,ComponentPad*%
%ADD11C,1.100000*%
%TD*%
%TA.AperFunction,ComponentPad*%
%ADD12C,1.700000*%
%TD*%
%TA.AperFunction,ComponentPad*%
%ADD13R,1.700000X1.700000*%
%TD*%
%TA.AperFunction,ViaPad*%
%ADD14C,0.600000*%
%TD*%
%TA.AperFunction,Conductor*%
%ADD15C,0.400000*%
%TD*%
G04 APERTURE END LIST*
D10*
%TO.P,A1,1,SDA*%
%TO.N,/SDA*%
X98073566Y-67664275D03*
D11*
%TO.P,A1,2,VDD*%
%TO.N,+3V3*%
X98073564Y-73059727D03*
%TO.P,A1,3,GND*%
%TO.N,GND*%
X100308434Y-73059725D03*
%TO.P,A1,4,SCL*%
%TO.N,/SCL*%
X100308436Y-67664273D03*
%TD*%
D12*
%TO.P,J1,1,Pin_1*%
%TO.N,unconnected-(J1-Pin_1-Pad1)*%
X125730000Y-84328000D03*
%TO.P,J1,2,Pin_2*%
%TO.N,unconnected-(J1-Pin_2-Pad2)*%
X125730000Y-61468000D03*
%TO.P,J1,3,Pin_3*%
%TO.N,unconnected-(J1-Pin_3-Pad3)*%
X123190000Y-84328000D03*
%TO.P,J1,4,Pin_4*%
%TO.N,unconnected-(J1-Pin_4-Pad4)*%
X123190000Y-61468000D03*
%TO.P,J1,5,Pin_5*%
%TO.N,unconnected-(J1-Pin_5-Pad5)*%
X120650000Y-84328000D03*
%TO.P,J1,6,Pin_6*%
%TO.N,unconnected-(J1-Pin_6-Pad6)*%
X120650000Y-61468000D03*
%TO.P,J1,7,Pin_7*%
%TO.N,unconnected-(J1-Pin_7-Pad7)*%
X118110000Y-84328000D03*
%TO.P,J1,8,Pin_8*%
%TO.N,unconnected-(J1-Pin_8-Pad8)*%
X118110000Y-61468000D03*
%TO.P,J1,9,Pin_9*%
%TO.N,unconnected-(J1-Pin_9-Pad9)*%
X115570000Y-84328000D03*
%TO.P,J1,10,Pin_10*%
%TO.N,unconnected-(J1-Pin_10-Pad10)*%
X115570000Y-61468000D03*
%TO.P,J1,11,Pin_11*%
%TO.N,unconnected-(J1-Pin_11-Pad11)*%
X113030000Y-84328000D03*
%TO.P,J1,12,Pin_12*%
%TO.N,unconnected-(J1-Pin_12-Pad12)*%
X113030000Y-61468000D03*
%TO.P,J1,13,Pin_13*%
%TO.N,unconnected-(J1-Pin_13-Pad13)*%
X110490000Y-84328000D03*
%TO.P,J1,14,Pin_14*%
%TO.N,unconnected-(J1-Pin_14-Pad14)*%
X110490000Y-61468000D03*
%TO.P,J1,15,Pin_15*%
%TO.N,unconnected-(J1-Pin_15-Pad15)*%
X107950000Y-84328000D03*
%TO.P,J1,16,Pin_16*%
%TO.N,unconnected-(J1-Pin_16-Pad16)*%
X107950000Y-61468000D03*
%TO.P,J1,17,Pin_17*%
%TO.N,unconnected-(J1-Pin_17-Pad17)*%
X105410000Y-84328000D03*
%TO.P,J1,18,Pin_18*%
%TO.N,unconnected-(J1-Pin_18-Pad18)*%
X105410000Y-61468000D03*
%TO.P,J1,19,Pin_19*%
%TO.N,unconnected-(J1-Pin_19-Pad19)*%
X102870000Y-84328000D03*
%TO.P,J1,20,Pin_20*%
%TO.N,unconnected-(J1-Pin_20-Pad20)*%
X102870000Y-61468000D03*
%TO.P,J1,21,Pin_21*%
%TO.N,/SCL*%
X100330000Y-84328000D03*
%TO.P,J1,22,Pin_22*%
%TO.N,unconnected-(J1-Pin_22-Pad22)*%
X100330000Y-61468000D03*
%TO.P,J1,23,Pin_23*%
%TO.N,/SDA*%
X97790000Y-84328000D03*
%TO.P,J1,24,Pin_24*%
%TO.N,unconnected-(J1-Pin_24-Pad24)*%
X97790000Y-61468000D03*
%TO.P,J1,25,Pin_25*%
%TO.N,unconnected-(J1-Pin_25-Pad25)*%
X95250000Y-84328000D03*
%TO.P,J1,26,Pin_26*%
%TO.N,unconnected-(J1-Pin_26-Pad26)*%
X95250000Y-61468000D03*
%TO.P,J1,27,Pin_27*%
%TO.N,unconnected-(J1-Pin_27-Pad27)*%
X92710000Y-84328000D03*
%TO.P,J1,28,Pin_28*%
%TO.N,unconnected-(J1-Pin_28-Pad28)*%
X92710000Y-61468000D03*
%TO.P,J1,29,Pin_29*%
%TO.N,unconnected-(J1-Pin_29-Pad29)*%
X90170000Y-84328000D03*
%TO.P,J1,30,Pin_30*%
%TO.N,+3V3*%
X90170000Y-61468000D03*
%TO.P,J1,31,Pin_31*%
%TO.N,unconnected-(J1-Pin_31-Pad31)*%
X87630000Y-84328000D03*
%TO.P,J1,32,Pin_32*%
%TO.N,+3V3*%
X87630000Y-61468000D03*
%TO.P,J1,33,Pin_33*%
%TO.N,unconnected-(J1-Pin_33-Pad33)*%
X85090000Y-84328000D03*
%TO.P,J1,34,Pin_34*%
%TO.N,unconnected-(J1-Pin_34-Pad34)*%
X85090000Y-61468000D03*
D13*
%TO.P,J1,35,Pin_35*%
%TO.N,GND*%
X82550000Y-84328000D03*
%TO.P,J1,36,Pin_36*%
X82550000Y-61468000D03*
%TD*%
D14*
%TO.N,GND*%
X99038600Y-80766600D03*
%TO.N,+3V3*%
X98327400Y-79750600D03*
X95504000Y-79750600D03*
X102745700Y-79750600D03*
%TD*%
D15*
%TO.N,+3V3*%
X102745700Y-79750600D02*
X95504000Y-79750600D01*
X98073564Y-69371564D02*
X98073564Y-73059727D01*
X90170000Y-61468000D02*
X98073564Y-69371564D01*
X87630000Y-61468000D02*
X90170000Y-61468000D01*
%TD*%
%TA.AperFunction,Conductor*%
%TO.N,GND*%
G36*
X77483895Y-55191970D02*
G01*
X77497692Y-55193524D01*
X77815584Y-55247537D01*
X77829141Y-55250631D01*
X78138983Y-55339895D01*
X78152109Y-55344488D01*
X78450006Y-55467881D01*
X78462520Y-55473907D01*
X78479312Y-55483188D01*
X78744734Y-55629882D01*
X78756508Y-55637280D01*
X79019477Y-55823865D01*
X79030349Y-55832535D01*
X79270774Y-56047392D01*
X79280607Y-56057225D01*
X79495464Y-56297650D01*
X79504134Y-56308522D01*
X79690719Y-56571491D01*
X79698117Y-56583265D01*
X79854088Y-56865472D01*
X79860121Y-56878000D01*
X79983511Y-57175891D01*
X79988104Y-57189016D01*
X80077368Y-57498858D01*
X80080462Y-57512415D01*
X80134473Y-57830296D01*
X80136030Y-57844114D01*
X80154305Y-58169527D01*
X80154500Y-58176480D01*
X80154500Y-58238891D01*
X80188608Y-58366187D01*
X80221554Y-58423250D01*
X80254500Y-58480314D01*
X80347686Y-58573500D01*
X80461814Y-58639392D01*
X80589108Y-58673500D01*
X80589110Y-58673500D01*
X127720890Y-58673500D01*
X127720892Y-58673500D01*
X127848186Y-58639392D01*
X127962314Y-58573500D01*
X128055500Y-58480314D01*
X128121392Y-58366186D01*
X128155500Y-58238892D01*
X128155500Y-58176480D01*
X128155695Y-58169528D01*
X128162311Y-58051711D01*
X129304500Y-58051711D01*
X129304500Y-58294288D01*
X129336161Y-58534785D01*
X129398947Y-58769104D01*
X129491773Y-58993205D01*
X129491776Y-58993212D01*
X129613064Y-59203289D01*
X129613066Y-59203292D01*
X129613067Y-59203293D01*
X129760733Y-59395736D01*
X129760739Y-59395743D01*
X129932256Y-59567260D01*
X129932262Y-59567265D01*
X130124711Y-59714936D01*
X130334788Y-59836224D01*
X130558900Y-59929054D01*
X130793211Y-59991838D01*
X130973586Y-60015584D01*
X131033711Y-60023500D01*
X131033712Y-60023500D01*
X131276289Y-60023500D01*
X131324388Y-60017167D01*
X131516789Y-59991838D01*
X131751100Y-59929054D01*
X131975212Y-59836224D01*
X132185289Y-59714936D01*
X132377738Y-59567265D01*
X132549265Y-59395738D01*
X132696936Y-59203289D01*
X132818224Y-58993212D01*
X132911054Y-58769100D01*
X132973838Y-58534789D01*
X133005500Y-58294288D01*
X133005500Y-58051712D01*
X133004050Y-58040701D01*
X132995594Y-57976468D01*
X132973838Y-57811211D01*
X132911054Y-57576900D01*
X132818224Y-57352788D01*
X132696936Y-57142711D01*
X132549265Y-56950262D01*
X132549260Y-56950256D01*
X132377743Y-56778739D01*
X132377736Y-56778733D01*
X132185293Y-56631067D01*
X132185292Y-56631066D01*
X132185289Y-56631064D01*
X131975212Y-56509776D01*
X131975205Y-56509773D01*
X131751104Y-56416947D01*
X131516785Y-56354161D01*
X131276289Y-56322500D01*
X131276288Y-56322500D01*
X131033712Y-56322500D01*
X131033711Y-56322500D01*
X130793214Y-56354161D01*
X130558895Y-56416947D01*
X130334794Y-56509773D01*
X130334785Y-56509777D01*
X130124706Y-56631067D01*
X129932263Y-56778733D01*
X129932256Y-56778739D01*
X129760739Y-56950256D01*
X129760733Y-56950263D01*
X129613067Y-57142706D01*
X129491777Y-57352785D01*
X129491773Y-57352794D01*
X129398947Y-57576895D01*
X129336161Y-57811214D01*
X129304500Y-58051711D01*
X128162311Y-58051711D01*
X128173970Y-57844102D01*
X128175524Y-57830309D01*
X128229537Y-57512410D01*
X128232631Y-57498858D01*
X128274712Y-57352794D01*
X128321896Y-57189012D01*
X128326488Y-57175891D01*
X128340234Y-57142706D01*
X128449884Y-56877985D01*
X128455903Y-56865486D01*
X128611885Y-56583259D01*
X128619280Y-56571491D01*
X128805872Y-56308512D01*
X128814527Y-56297658D01*
X129029402Y-56057214D01*
X129039214Y-56047402D01*
X129279658Y-55832527D01*
X129290512Y-55823872D01*
X129553496Y-55637276D01*
X129565259Y-55629885D01*
X129847486Y-55473903D01*
X129859985Y-55467884D01*
X130157895Y-55344486D01*
X130171012Y-55339896D01*
X130480863Y-55250629D01*
X130494410Y-55247537D01*
X130812309Y-55193524D01*
X130826102Y-55191970D01*
X131148055Y-55173890D01*
X131161945Y-55173890D01*
X131483895Y-55191970D01*
X131497692Y-55193524D01*
X131815584Y-55247537D01*
X131829141Y-55250631D01*
X132138983Y-55339895D01*
X132152109Y-55344488D01*
X132450006Y-55467881D01*
X132462520Y-55473907D01*
X132479312Y-55483188D01*
X132744734Y-55629882D01*
X132756508Y-55637280D01*
X133019477Y-55823865D01*
X133030349Y-55832535D01*
X133270774Y-56047392D01*
X133280607Y-56057225D01*
X133495464Y-56297650D01*
X133504134Y-56308522D01*
X133690719Y-56571491D01*
X133698117Y-56583265D01*
X133854088Y-56865472D01*
X133860121Y-56878000D01*
X133983511Y-57175891D01*
X133988104Y-57189016D01*
X134077368Y-57498858D01*
X134080462Y-57512415D01*
X134134473Y-57830296D01*
X134136030Y-57844114D01*
X134154109Y-58166047D01*
X134154109Y-58179953D01*
X134136030Y-58501885D01*
X134134473Y-58515703D01*
X134080462Y-58833584D01*
X134077368Y-58847141D01*
X133988104Y-59156983D01*
X133983511Y-59170108D01*
X133860121Y-59467999D01*
X133854088Y-59480527D01*
X133698117Y-59762734D01*
X133690719Y-59774508D01*
X133504134Y-60037477D01*
X133495464Y-60048349D01*
X133280607Y-60288774D01*
X133270774Y-60298607D01*
X133030349Y-60513464D01*
X133019477Y-60522134D01*
X132756508Y-60708719D01*
X132744734Y-60716117D01*
X132462527Y-60872088D01*
X132449999Y-60878121D01*
X132152108Y-61001511D01*
X132138983Y-61006104D01*
X131829141Y-61095368D01*
X131815584Y-61098462D01*
X131497703Y-61152473D01*
X131483885Y-61154030D01*
X131158472Y-61172305D01*
X131151519Y-61172500D01*
X131089108Y-61172500D01*
X130961812Y-61206608D01*
X130847686Y-61272500D01*
X130847683Y-61272502D01*
X130754502Y-61365683D01*
X130754500Y-61365686D01*
X130688608Y-61479812D01*
X130663294Y-61574287D01*
X130654500Y-61607108D01*
X130654500Y-84107108D01*
X130654500Y-84238892D01*
X130671554Y-84302539D01*
X130688608Y-84366187D01*
X130704566Y-84393826D01*
X130754500Y-84480314D01*
X130847686Y-84573500D01*
X130961814Y-84639392D01*
X131089108Y-84673500D01*
X131151519Y-84673500D01*
X131158471Y-84673695D01*
X131198628Y-84675950D01*
X131483893Y-84691970D01*
X131497692Y-84693524D01*
X131815584Y-84747537D01*
X131829141Y-84750631D01*
X132138983Y-84839895D01*
X132152109Y-84844488D01*
X132450006Y-84967881D01*
X132462520Y-84973907D01*
X132479312Y-84983188D01*
X132744734Y-85129882D01*
X132756508Y-85137280D01*
X133019477Y-85323865D01*
X133030349Y-85332535D01*
X133257116Y-85535187D01*
X133270774Y-85547392D01*
X133280607Y-85557225D01*
X133495464Y-85797650D01*
X133504134Y-85808522D01*
X133690719Y-86071491D01*
X133698117Y-86083265D01*
X133854088Y-86365472D01*
X133860121Y-86378000D01*
X133983511Y-86675891D01*
X133988104Y-86689016D01*
X134077368Y-86998858D01*
X134080462Y-87012415D01*
X134134473Y-87330296D01*
X134136030Y-87344114D01*
X134154109Y-87666047D01*
X134154109Y-87679953D01*
X134136030Y-88001885D01*
X134134473Y-88015703D01*
X134080462Y-88333584D01*
X134077368Y-88347141D01*
X133988104Y-88656983D01*
X133983511Y-88670108D01*
X133860121Y-88967999D01*
X133854088Y-88980527D01*
X133698117Y-89262734D01*
X133690719Y-89274508D01*
X133504134Y-89537477D01*
X133495464Y-89548349D01*
X133280607Y-89788774D01*
X133270774Y-89798607D01*
X133030349Y-90013464D01*
X133019477Y-90022134D01*
X132756508Y-90208719D01*
X132744734Y-90216117D01*
X132462527Y-90372088D01*
X132449999Y-90378121D01*
X132152108Y-90501511D01*
X132138983Y-90506104D01*
X131829141Y-90595368D01*
X131815584Y-90598462D01*
X131497703Y-90652473D01*
X131483885Y-90654030D01*
X131161953Y-90672109D01*
X131148047Y-90672109D01*
X130826114Y-90654030D01*
X130812296Y-90652473D01*
X130494415Y-90598462D01*
X130480858Y-90595368D01*
X130171016Y-90506104D01*
X130157891Y-90501511D01*
X129860000Y-90378121D01*
X129847472Y-90372088D01*
X129565265Y-90216117D01*
X129553491Y-90208719D01*
X129290522Y-90022134D01*
X129279650Y-90013464D01*
X129039225Y-89798607D01*
X129029392Y-89788774D01*
X128814535Y-89548349D01*
X128805865Y-89537477D01*
X128619280Y-89274508D01*
X128611882Y-89262734D01*
X128455911Y-88980527D01*
X128449881Y-88968006D01*
X128326488Y-88670108D01*
X128321895Y-88656983D01*
X128232631Y-88347141D01*
X128229537Y-88333584D01*
X128217154Y-88260703D01*
X128175524Y-88015692D01*
X128173970Y-88001893D01*
X128155500Y-87673000D01*
X128155500Y-87607108D01*
X128140657Y-87551711D01*
X129304500Y-87551711D01*
X129304500Y-87794288D01*
X129336161Y-88034785D01*
X129398947Y-88269104D01*
X129491773Y-88493205D01*
X129491776Y-88493212D01*
X129613064Y-88703289D01*
X129613066Y-88703292D01*
X129613067Y-88703293D01*
X129760733Y-88895736D01*
X129760739Y-88895743D01*
X129932256Y-89067260D01*
X129932262Y-89067265D01*
X130124711Y-89214936D01*
X130334788Y-89336224D01*
X130558900Y-89429054D01*
X130793211Y-89491838D01*
X130973586Y-89515584D01*
X131033711Y-89523500D01*
X131033712Y-89523500D01*
X131276289Y-89523500D01*
X131324388Y-89517167D01*
X131516789Y-89491838D01*
X131751100Y-89429054D01*
X131975212Y-89336224D01*
X132185289Y-89214936D01*
X132377738Y-89067265D01*
X132549265Y-88895738D01*
X132696936Y-88703289D01*
X132818224Y-88493212D01*
X132911054Y-88269100D01*
X132973838Y-88034789D01*
X133005500Y-87794288D01*
X133005500Y-87551712D01*
X133004050Y-87540701D01*
X132995594Y-87476468D01*
X132973838Y-87311211D01*
X132911054Y-87076900D01*
X132818224Y-86852788D01*
X132696936Y-86642711D01*
X132549265Y-86450262D01*
X132549260Y-86450256D01*
X132377743Y-86278739D01*
X132377736Y-86278733D01*
X132185293Y-86131067D01*
X132185292Y-86131066D01*
X132185289Y-86131064D01*
X131975212Y-86009776D01*
X131975205Y-86009773D01*
X131751104Y-85916947D01*
X131516785Y-85854161D01*
X131276289Y-85822500D01*
X131276288Y-85822500D01*
X131033712Y-85822500D01*
X131033711Y-85822500D01*
X130793214Y-85854161D01*
X130558895Y-85916947D01*
X130334794Y-86009773D01*
X130334785Y-86009777D01*
X130124706Y-86131067D01*
X129932263Y-86278733D01*
X129932256Y-86278739D01*
X129760739Y-86450256D01*
X129760733Y-86450263D01*
X129613067Y-86642706D01*
X129491777Y-86852785D01*
X129491773Y-86852794D01*
X129398947Y-87076895D01*
X129336161Y-87311214D01*
X129304500Y-87551711D01*
X128140657Y-87551711D01*
X128121392Y-87479814D01*
X128055500Y-87365686D01*
X127962314Y-87272500D01*
X127905250Y-87239554D01*
X127848187Y-87206608D01*
X127784539Y-87189554D01*
X127720892Y-87172500D01*
X80720892Y-87172500D01*
X80589108Y-87172500D01*
X80461812Y-87206608D01*
X80347686Y-87272500D01*
X80347683Y-87272502D01*
X80254502Y-87365683D01*
X80254500Y-87365686D01*
X80188608Y-87479812D01*
X80154500Y-87607108D01*
X80154500Y-87669519D01*
X80154305Y-87676472D01*
X80136030Y-88001885D01*
X80134473Y-88015703D01*
X80080462Y-88333584D01*
X80077368Y-88347141D01*
X79988104Y-88656983D01*
X79983511Y-88670108D01*
X79860121Y-88967999D01*
X79854088Y-88980527D01*
X79698117Y-89262734D01*
X79690719Y-89274508D01*
X79504134Y-89537477D01*
X79495464Y-89548349D01*
X79280607Y-89788774D01*
X79270774Y-89798607D01*
X79030349Y-90013464D01*
X79019477Y-90022134D01*
X78756508Y-90208719D01*
X78744734Y-90216117D01*
X78462527Y-90372088D01*
X78449999Y-90378121D01*
X78152108Y-90501511D01*
X78138983Y-90506104D01*
X77829141Y-90595368D01*
X77815584Y-90598462D01*
X77497703Y-90652473D01*
X77483885Y-90654030D01*
X77161953Y-90672109D01*
X77148047Y-90672109D01*
X76826114Y-90654030D01*
X76812296Y-90652473D01*
X76494415Y-90598462D01*
X76480858Y-90595368D01*
X76171016Y-90506104D01*
X76157891Y-90501511D01*
X75860000Y-90378121D01*
X75847472Y-90372088D01*
X75565265Y-90216117D01*
X75553491Y-90208719D01*
X75290522Y-90022134D01*
X75279650Y-90013464D01*
X75039225Y-89798607D01*
X75029392Y-89788774D01*
X74814535Y-89548349D01*
X74805865Y-89537477D01*
X74619280Y-89274508D01*
X74611882Y-89262734D01*
X74455911Y-88980527D01*
X74449881Y-88968006D01*
X74326488Y-88670108D01*
X74321895Y-88656983D01*
X74232631Y-88347141D01*
X74229537Y-88333584D01*
X74217154Y-88260703D01*
X74175524Y-88015692D01*
X74173970Y-88001895D01*
X74155890Y-87679944D01*
X74155890Y-87666048D01*
X74159200Y-87607108D01*
X74162311Y-87551711D01*
X75304500Y-87551711D01*
X75304500Y-87794288D01*
X75336161Y-88034785D01*
X75398947Y-88269104D01*
X75491773Y-88493205D01*
X75491776Y-88493212D01*
X75613064Y-88703289D01*
X75613066Y-88703292D01*
X75613067Y-88703293D01*
X75760733Y-88895736D01*
X75760739Y-88895743D01*
X75932256Y-89067260D01*
X75932262Y-89067265D01*
X76124711Y-89214936D01*
X76334788Y-89336224D01*
X76558900Y-89429054D01*
X76793211Y-89491838D01*
X76973586Y-89515584D01*
X77033711Y-89523500D01*
X77033712Y-89523500D01*
X77276289Y-89523500D01*
X77324388Y-89517167D01*
X77516789Y-89491838D01*
X77751100Y-89429054D01*
X77975212Y-89336224D01*
X78185289Y-89214936D01*
X78377738Y-89067265D01*
X78549265Y-88895738D01*
X78696936Y-88703289D01*
X78818224Y-88493212D01*
X78911054Y-88269100D01*
X78973838Y-88034789D01*
X79005500Y-87794288D01*
X79005500Y-87551712D01*
X79004050Y-87540701D01*
X78995594Y-87476468D01*
X78973838Y-87311211D01*
X78911054Y-87076900D01*
X78818224Y-86852788D01*
X78696936Y-86642711D01*
X78549265Y-86450262D01*
X78549260Y-86450256D01*
X78377743Y-86278739D01*
X78377736Y-86278733D01*
X78185293Y-86131067D01*
X78185292Y-86131066D01*
X78185289Y-86131064D01*
X77975212Y-86009776D01*
X77975205Y-86009773D01*
X77751104Y-85916947D01*
X77516785Y-85854161D01*
X77276289Y-85822500D01*
X77276288Y-85822500D01*
X77033712Y-85822500D01*
X77033711Y-85822500D01*
X76793214Y-85854161D01*
X76558895Y-85916947D01*
X76334794Y-86009773D01*
X76334785Y-86009777D01*
X76124706Y-86131067D01*
X75932263Y-86278733D01*
X75932256Y-86278739D01*
X75760739Y-86450256D01*
X75760733Y-86450263D01*
X75613067Y-86642706D01*
X75491777Y-86852785D01*
X75491773Y-86852794D01*
X75398947Y-87076895D01*
X75336161Y-87311214D01*
X75304500Y-87551711D01*
X74162311Y-87551711D01*
X74173970Y-87344102D01*
X74175524Y-87330309D01*
X74229537Y-87012410D01*
X74232631Y-86998858D01*
X74274712Y-86852794D01*
X74321896Y-86689012D01*
X74326488Y-86675891D01*
X74340234Y-86642706D01*
X74449884Y-86377985D01*
X74455903Y-86365486D01*
X74611885Y-86083259D01*
X74619280Y-86071491D01*
X74805872Y-85808512D01*
X74814527Y-85797658D01*
X75029402Y-85557214D01*
X75039214Y-85547402D01*
X75279658Y-85332527D01*
X75290512Y-85323872D01*
X75553496Y-85137276D01*
X75565259Y-85129885D01*
X75847486Y-84973903D01*
X75859985Y-84967884D01*
X76157895Y-84844486D01*
X76171012Y-84839896D01*
X76480863Y-84750629D01*
X76494410Y-84747537D01*
X76812309Y-84693524D01*
X76826104Y-84691970D01*
X77114772Y-84675759D01*
X77151529Y-84673695D01*
X77158481Y-84673500D01*
X77220890Y-84673500D01*
X77220892Y-84673500D01*
X77348186Y-84639392D01*
X77462314Y-84573500D01*
X77555500Y-84480314D01*
X77621392Y-84366186D01*
X77655500Y-84238892D01*
X77655500Y-84107108D01*
X77655500Y-83430155D01*
X81200000Y-83430155D01*
X81200000Y-84078000D01*
X82116988Y-84078000D01*
X82084075Y-84135007D01*
X82050000Y-84262174D01*
X82050000Y-84393826D01*
X82084075Y-84520993D01*
X82116988Y-84578000D01*
X81200000Y-84578000D01*
X81200000Y-85225844D01*
X81206401Y-85285372D01*
X81206403Y-85285379D01*
X81256645Y-85420086D01*
X81256649Y-85420093D01*
X81342809Y-85535187D01*
X81342812Y-85535190D01*
X81457906Y-85621350D01*
X81457913Y-85621354D01*
X81592620Y-85671596D01*
X81592627Y-85671598D01*
X81652155Y-85677999D01*
X81652172Y-85678000D01*
X82300000Y-85678000D01*
X82300000Y-84761012D01*
X82357007Y-84793925D01*
X82484174Y-84828000D01*
X82615826Y-84828000D01*
X82742993Y-84793925D01*
X82800000Y-84761012D01*
X82800000Y-85678000D01*
X83447828Y-85678000D01*
X83447844Y-85677999D01*
X83507372Y-85671598D01*
X83507379Y-85671596D01*
X83642086Y-85621354D01*
X83642093Y-85621350D01*
X83757187Y-85535190D01*
X83757190Y-85535187D01*
X83843350Y-85420093D01*
X83843354Y-85420086D01*
X83892422Y-85288529D01*
X83934293Y-85232595D01*
X83999757Y-85208178D01*
X84068030Y-85223030D01*
X84096285Y-85244181D01*
X84210213Y-85358109D01*
X84382179Y-85483048D01*
X84382181Y-85483049D01*
X84382184Y-85483051D01*
X84571588Y-85579557D01*
X84773757Y-85645246D01*
X84983713Y-85678500D01*
X84983714Y-85678500D01*
X85196286Y-85678500D01*
X85196287Y-85678500D01*
X85406243Y-85645246D01*
X85608412Y-85579557D01*
X85797816Y-85483051D01*
X85884471Y-85420093D01*
X85969786Y-85358109D01*
X85969788Y-85358106D01*
X85969792Y-85358104D01*
X86120104Y-85207792D01*
X86120106Y-85207788D01*
X86120109Y-85207786D01*
X86245048Y-85035820D01*
X86245047Y-85035820D01*
X86245051Y-85035816D01*
X86249514Y-85027054D01*
X86297488Y-84976259D01*
X86365308Y-84959463D01*
X86431444Y-84981999D01*
X86470486Y-85027056D01*
X86474951Y-85035820D01*
X86599890Y-85207786D01*
X86750213Y-85358109D01*
X86922179Y-85483048D01*
X86922181Y-85483049D01*
X86922184Y-85483051D01*
X87111588Y-85579557D01*
X87313757Y-85645246D01*
X87523713Y-85678500D01*
X87523714Y-85678500D01*
X87736286Y-85678500D01*
X87736287Y-85678500D01*
X87946243Y-85645246D01*
X88148412Y-85579557D01*
X88337816Y-85483051D01*
X88424471Y-85420093D01*
X88509786Y-85358109D01*
X88509788Y-85358106D01*
X88509792Y-85358104D01*
X88660104Y-85207792D01*
X88660106Y-85207788D01*
X88660109Y-85207786D01*
X88785048Y-85035820D01*
X88785047Y-85035820D01*
X88785051Y-85035816D01*
X88789514Y-85027054D01*
X88837488Y-84976259D01*
X88905308Y-84959463D01*
X88971444Y-84981999D01*
X89010486Y-85027056D01*
X89014951Y-85035820D01*
X89139890Y-85207786D01*
X89290213Y-85358109D01*
X89462179Y-85483048D01*
X89462181Y-85483049D01*
X89462184Y-85483051D01*
X89651588Y-85579557D01*
X89853757Y-85645246D01*
X90063713Y-85678500D01*
X90063714Y-85678500D01*
X90276286Y-85678500D01*
X90276287Y-85678500D01*
X90486243Y-85645246D01*
X90688412Y-85579557D01*
X90877816Y-85483051D01*
X90964471Y-85420093D01*
X91049786Y-85358109D01*
X91049788Y-85358106D01*
X91049792Y-85358104D01*
X91200104Y-85207792D01*
X91200106Y-85207788D01*
X91200109Y-85207786D01*
X91325048Y-85035820D01*
X91325047Y-85035820D01*
X91325051Y-85035816D01*
X91329514Y-85027054D01*
X91377488Y-84976259D01*
X91445308Y-84959463D01*
X91511444Y-84981999D01*
X91550486Y-85027056D01*
X91554951Y-85035820D01*
X91679890Y-85207786D01*
X91830213Y-85358109D01*
X92002179Y-85483048D01*
X92002181Y-85483049D01*
X92002184Y-85483051D01*
X92191588Y-85579557D01*
X92393757Y-85645246D01*
X92603713Y-85678500D01*
X92603714Y-85678500D01*
X92816286Y-85678500D01*
X92816287Y-85678500D01*
X93026243Y-85645246D01*
X93228412Y-85579557D01*
X93417816Y-85483051D01*
X93504471Y-85420093D01*
X93589786Y-85358109D01*
X93589788Y-85358106D01*
X93589792Y-85358104D01*
X93740104Y-85207792D01*
X93740106Y-85207788D01*
X93740109Y-85207786D01*
X93865048Y-85035820D01*
X93865047Y-85035820D01*
X93865051Y-85035816D01*
X93869514Y-85027054D01*
X93917488Y-84976259D01*
X93985308Y-84959463D01*
X94051444Y-84981999D01*
X94090486Y-85027056D01*
X94094951Y-85035820D01*
X94219890Y-85207786D01*
X94370213Y-85358109D01*
X94542179Y-85483048D01*
X94542181Y-85483049D01*
X94542184Y-85483051D01*
X94731588Y-85579557D01*
X94933757Y-85645246D01*
X95143713Y-85678500D01*
X95143714Y-85678500D01*
X95356286Y-85678500D01*
X95356287Y-85678500D01*
X95566243Y-85645246D01*
X95768412Y-85579557D01*
X95957816Y-85483051D01*
X96044471Y-85420093D01*
X96129786Y-85358109D01*
X96129788Y-85358106D01*
X96129792Y-85358104D01*
X96280104Y-85207792D01*
X96280106Y-85207788D01*
X96280109Y-85207786D01*
X96405048Y-85035820D01*
X96405047Y-85035820D01*
X96405051Y-85035816D01*
X96409514Y-85027054D01*
X96457488Y-84976259D01*
X96525308Y-84959463D01*
X96591444Y-84981999D01*
X96630486Y-85027056D01*
X96634951Y-85035820D01*
X96759890Y-85207786D01*
X96910213Y-85358109D01*
X97082179Y-85483048D01*
X97082181Y-85483049D01*
X97082184Y-85483051D01*
X97271588Y-85579557D01*
X97473757Y-85645246D01*
X97683713Y-85678500D01*
X97683714Y-85678500D01*
X97896286Y-85678500D01*
X97896287Y-85678500D01*
X98106243Y-85645246D01*
X98308412Y-85579557D01*
X98497816Y-85483051D01*
X98584471Y-85420093D01*
X98669786Y-85358109D01*
X98669788Y-85358106D01*
X98669792Y-85358104D01*
X98820104Y-85207792D01*
X98820106Y-85207788D01*
X98820109Y-85207786D01*
X98945048Y-85035820D01*
X98945047Y-85035820D01*
X98945051Y-85035816D01*
X98949514Y-85027054D01*
X98997488Y-84976259D01*
X99065308Y-84959463D01*
X99131444Y-84981999D01*
X99170486Y-85027056D01*
X99174951Y-85035820D01*
X99299890Y-85207786D01*
X99450213Y-85358109D01*
X99622179Y-85483048D01*
X99622181Y-85483049D01*
X99622184Y-85483051D01*
X99811588Y-85579557D01*
X100013757Y-85645246D01*
X100223713Y-85678500D01*
X100223714Y-85678500D01*
X100436286Y-85678500D01*
X100436287Y-85678500D01*
X100646243Y-85645246D01*
X100848412Y-85579557D01*
X101037816Y-85483051D01*
X101124471Y-85420093D01*
X101209786Y-85358109D01*
X101209788Y-85358106D01*
X101209792Y-85358104D01*
X101360104Y-85207792D01*
X101360106Y-85207788D01*
X101360109Y-85207786D01*
X101485048Y-85035820D01*
X101485047Y-85035820D01*
X101485051Y-85035816D01*
X101489514Y-85027054D01*
X101537488Y-84976259D01*
X101605308Y-84959463D01*
X101671444Y-84981999D01*
X101710486Y-85027056D01*
X101714951Y-85035820D01*
X101839890Y-85207786D01*
X101990213Y-85358109D01*
X102162179Y-85483048D01*
X102162181Y-85483049D01*
X102162184Y-85483051D01*
X102351588Y-85579557D01*
X102553757Y-85645246D01*
X102763713Y-85678500D01*
X102763714Y-85678500D01*
X102976286Y-85678500D01*
X102976287Y-85678500D01*
X103186243Y-85645246D01*
X103388412Y-85579557D01*
X103577816Y-85483051D01*
X103664471Y-85420093D01*
X103749786Y-85358109D01*
X103749788Y-85358106D01*
X103749792Y-85358104D01*
X103900104Y-85207792D01*
X103900106Y-85207788D01*
X103900109Y-85207786D01*
X104025048Y-85035820D01*
X104025047Y-85035820D01*
X104025051Y-85035816D01*
X104029514Y-85027054D01*
X104077488Y-84976259D01*
X104145308Y-84959463D01*
X104211444Y-84981999D01*
X104250486Y-85027056D01*
X104254951Y-85035820D01*
X104379890Y-85207786D01*
X104530213Y-85358109D01*
X104702179Y-85483048D01*
X104702181Y-85483049D01*
X104702184Y-85483051D01*
X104891588Y-85579557D01*
X105093757Y-85645246D01*
X105303713Y-85678500D01*
X105303714Y-85678500D01*
X105516286Y-85678500D01*
X105516287Y-85678500D01*
X105726243Y-85645246D01*
X105928412Y-85579557D01*
X106117816Y-85483051D01*
X106204471Y-85420093D01*
X106289786Y-85358109D01*
X106289788Y-85358106D01*
X106289792Y-85358104D01*
X106440104Y-85207792D01*
X106440106Y-85207788D01*
X106440109Y-85207786D01*
X106565048Y-85035820D01*
X106565047Y-85035820D01*
X106565051Y-85035816D01*
X106569514Y-85027054D01*
X106617488Y-84976259D01*
X106685308Y-84959463D01*
X106751444Y-84981999D01*
X106790486Y-85027056D01*
X106794951Y-85035820D01*
X106919890Y-85207786D01*
X107070213Y-85358109D01*
X107242179Y-85483048D01*
X107242181Y-85483049D01*
X107242184Y-85483051D01*
X107431588Y-85579557D01*
X107633757Y-85645246D01*
X107843713Y-85678500D01*
X107843714Y-85678500D01*
X108056286Y-85678500D01*
X108056287Y-85678500D01*
X108266243Y-85645246D01*
X108468412Y-85579557D01*
X108657816Y-85483051D01*
X108744471Y-85420093D01*
X108829786Y-85358109D01*
X108829788Y-85358106D01*
X108829792Y-85358104D01*
X108980104Y-85207792D01*
X108980106Y-85207788D01*
X108980109Y-85207786D01*
X109105048Y-85035820D01*
X109105047Y-85035820D01*
X109105051Y-85035816D01*
X109109514Y-85027054D01*
X109157488Y-84976259D01*
X109225308Y-84959463D01*
X109291444Y-84981999D01*
X109330486Y-85027056D01*
X109334951Y-85035820D01*
X109459890Y-85207786D01*
X109610213Y-85358109D01*
X109782179Y-85483048D01*
X109782181Y-85483049D01*
X109782184Y-85483051D01*
X109971588Y-85579557D01*
X110173757Y-85645246D01*
X110383713Y-85678500D01*
X110383714Y-85678500D01*
X110596286Y-85678500D01*
X110596287Y-85678500D01*
X110806243Y-85645246D01*
X111008412Y-85579557D01*
X111197816Y-85483051D01*
X111284471Y-85420093D01*
X111369786Y-85358109D01*
X111369788Y-85358106D01*
X111369792Y-85358104D01*
X111520104Y-85207792D01*
X111520106Y-85207788D01*
X111520109Y-85207786D01*
X111645048Y-85035820D01*
X111645047Y-85035820D01*
X111645051Y-85035816D01*
X111649514Y-85027054D01*
X111697488Y-84976259D01*
X111765308Y-84959463D01*
X111831444Y-84981999D01*
X111870486Y-85027056D01*
X111874951Y-85035820D01*
X111999890Y-85207786D01*
X112150213Y-85358109D01*
X112322179Y-85483048D01*
X112322181Y-85483049D01*
X112322184Y-85483051D01*
X112511588Y-85579557D01*
X112713757Y-85645246D01*
X112923713Y-85678500D01*
X112923714Y-85678500D01*
X113136286Y-85678500D01*
X113136287Y-85678500D01*
X113346243Y-85645246D01*
X113548412Y-85579557D01*
X113737816Y-85483051D01*
X113824471Y-85420093D01*
X113909786Y-85358109D01*
X113909788Y-85358106D01*
X113909792Y-85358104D01*
X114060104Y-85207792D01*
X114060106Y-85207788D01*
X114060109Y-85207786D01*
X114185048Y-85035820D01*
X114185047Y-85035820D01*
X114185051Y-85035816D01*
X114189514Y-85027054D01*
X114237488Y-84976259D01*
X114305308Y-84959463D01*
X114371444Y-84981999D01*
X114410486Y-85027056D01*
X114414951Y-85035820D01*
X114539890Y-85207786D01*
X114690213Y-85358109D01*
X114862179Y-85483048D01*
X114862181Y-85483049D01*
X114862184Y-85483051D01*
X115051588Y-85579557D01*
X115253757Y-85645246D01*
X115463713Y-85678500D01*
X115463714Y-85678500D01*
X115676286Y-85678500D01*
X115676287Y-85678500D01*
X115886243Y-85645246D01*
X116088412Y-85579557D01*
X116277816Y-85483051D01*
X116364471Y-85420093D01*
X116449786Y-85358109D01*
X116449788Y-85358106D01*
X116449792Y-85358104D01*
X116600104Y-85207792D01*
X116600106Y-85207788D01*
X116600109Y-85207786D01*
X116725048Y-85035820D01*
X116725047Y-85035820D01*
X116725051Y-85035816D01*
X116729514Y-85027054D01*
X116777488Y-84976259D01*
X116845308Y-84959463D01*
X116911444Y-84981999D01*
X116950486Y-85027056D01*
X116954951Y-85035820D01*
X117079890Y-85207786D01*
X117230213Y-85358109D01*
X117402179Y-85483048D01*
X117402181Y-85483049D01*
X117402184Y-85483051D01*
X117591588Y-85579557D01*
X117793757Y-85645246D01*
X118003713Y-85678500D01*
X118003714Y-85678500D01*
X118216286Y-85678500D01*
X118216287Y-85678500D01*
X118426243Y-85645246D01*
X118628412Y-85579557D01*
X118817816Y-85483051D01*
X118904471Y-85420093D01*
X118989786Y-85358109D01*
X118989788Y-85358106D01*
X118989792Y-85358104D01*
X119140104Y-85207792D01*
X119140106Y-85207788D01*
X119140109Y-85207786D01*
X119265048Y-85035820D01*
X119265047Y-85035820D01*
X119265051Y-85035816D01*
X119269514Y-85027054D01*
X119317488Y-84976259D01*
X119385308Y-84959463D01*
X119451444Y-84981999D01*
X119490486Y-85027056D01*
X119494951Y-85035820D01*
X119619890Y-85207786D01*
X119770213Y-85358109D01*
X119942179Y-85483048D01*
X119942181Y-85483049D01*
X119942184Y-85483051D01*
X120131588Y-85579557D01*
X120333757Y-85645246D01*
X120543713Y-85678500D01*
X120543714Y-85678500D01*
X120756286Y-85678500D01*
X120756287Y-85678500D01*
X120966243Y-85645246D01*
X121168412Y-85579557D01*
X121357816Y-85483051D01*
X121444471Y-85420093D01*
X121529786Y-85358109D01*
X121529788Y-85358106D01*
X121529792Y-85358104D01*
X121680104Y-85207792D01*
X121680106Y-85207788D01*
X121680109Y-85207786D01*
X121805048Y-85035820D01*
X121805047Y-85035820D01*
X121805051Y-85035816D01*
X121809514Y-85027054D01*
X121857488Y-84976259D01*
X121925308Y-84959463D01*
X121991444Y-84981999D01*
X122030486Y-85027056D01*
X122034951Y-85035820D01*
X122159890Y-85207786D01*
X122310213Y-85358109D01*
X122482179Y-85483048D01*
X122482181Y-85483049D01*
X122482184Y-85483051D01*
X122671588Y-85579557D01*
X122873757Y-85645246D01*
X123083713Y-85678500D01*
X123083714Y-85678500D01*
X123296286Y-85678500D01*
X123296287Y-85678500D01*
X123506243Y-85645246D01*
X123708412Y-85579557D01*
X123897816Y-85483051D01*
X123984471Y-85420093D01*
X124069786Y-85358109D01*
X124069788Y-85358106D01*
X124069792Y-85358104D01*
X124220104Y-85207792D01*
X124220106Y-85207788D01*
X124220109Y-85207786D01*
X124345048Y-85035820D01*
X124345047Y-85035820D01*
X124345051Y-85035816D01*
X124349514Y-85027054D01*
X124397488Y-84976259D01*
X124465308Y-84959463D01*
X124531444Y-84981999D01*
X124570486Y-85027056D01*
X124574951Y-85035820D01*
X124699890Y-85207786D01*
X124850213Y-85358109D01*
X125022179Y-85483048D01*
X125022181Y-85483049D01*
X125022184Y-85483051D01*
X125211588Y-85579557D01*
X125413757Y-85645246D01*
X125623713Y-85678500D01*
X125623714Y-85678500D01*
X125836286Y-85678500D01*
X125836287Y-85678500D01*
X126046243Y-85645246D01*
X126248412Y-85579557D01*
X126437816Y-85483051D01*
X126524471Y-85420093D01*
X126609786Y-85358109D01*
X126609788Y-85358106D01*
X126609792Y-85358104D01*
X126760104Y-85207792D01*
X126760106Y-85207788D01*
X126760109Y-85207786D01*
X126885048Y-85035820D01*
X126885047Y-85035820D01*
X126885051Y-85035816D01*
X126981557Y-84846412D01*
X127047246Y-84644243D01*
X127080500Y-84434287D01*
X127080500Y-84221713D01*
X127047246Y-84011757D01*
X126981557Y-83809588D01*
X126885051Y-83620184D01*
X126885049Y-83620181D01*
X126885048Y-83620179D01*
X126760109Y-83448213D01*
X126609786Y-83297890D01*
X126437820Y-83172951D01*
X126248414Y-83076444D01*
X126248413Y-83076443D01*
X126248412Y-83076443D01*
X126046243Y-83010754D01*
X126046241Y-83010753D01*
X126046240Y-83010753D01*
X125884957Y-82985208D01*
X125836287Y-82977500D01*
X125623713Y-82977500D01*
X125575042Y-82985208D01*
X125413760Y-83010753D01*
X125211585Y-83076444D01*
X125022179Y-83172951D01*
X124850213Y-83297890D01*
X124699890Y-83448213D01*
X124574949Y-83620182D01*
X124570484Y-83628946D01*
X124522509Y-83679742D01*
X124454688Y-83696536D01*
X124388553Y-83673998D01*
X124349516Y-83628946D01*
X124345050Y-83620182D01*
X124220109Y-83448213D01*
X124069786Y-83297890D01*
X123897820Y-83172951D01*
X123708414Y-83076444D01*
X123708413Y-83076443D01*
X123708412Y-83076443D01*
X123506243Y-83010754D01*
X123506241Y-83010753D01*
X123506240Y-83010753D01*
X123344957Y-82985208D01*
X123296287Y-82977500D01*
X123083713Y-82977500D01*
X123035042Y-82985208D01*
X122873760Y-83010753D01*
X122671585Y-83076444D01*
X122482179Y-83172951D01*
X122310213Y-83297890D01*
X122159890Y-83448213D01*
X122034949Y-83620182D01*
X122030484Y-83628946D01*
X121982509Y-83679742D01*
X121914688Y-83696536D01*
X121848553Y-83673998D01*
X121809516Y-83628946D01*
X121805050Y-83620182D01*
X121680109Y-83448213D01*
X121529786Y-83297890D01*
X121357820Y-83172951D01*
X121168414Y-83076444D01*
X121168413Y-83076443D01*
X121168412Y-83076443D01*
X120966243Y-83010754D01*
X120966241Y-83010753D01*
X120966240Y-83010753D01*
X120804957Y-82985208D01*
X120756287Y-82977500D01*
X120543713Y-82977500D01*
X120495042Y-82985208D01*
X120333760Y-83010753D01*
X120131585Y-83076444D01*
X119942179Y-83172951D01*
X119770213Y-83297890D01*
X119619890Y-83448213D01*
X119494949Y-83620182D01*
X119490484Y-83628946D01*
X119442509Y-83679742D01*
X119374688Y-83696536D01*
X119308553Y-83673998D01*
X119269516Y-83628946D01*
X119265050Y-83620182D01*
X119140109Y-83448213D01*
X118989786Y-83297890D01*
X118817820Y-83172951D01*
X118628414Y-83076444D01*
X118628413Y-83076443D01*
X118628412Y-83076443D01*
X118426243Y-83010754D01*
X118426241Y-83010753D01*
X118426240Y-83010753D01*
X118264957Y-82985208D01*
X118216287Y-82977500D01*
X118003713Y-82977500D01*
X117955042Y-82985208D01*
X117793760Y-83010753D01*
X117591585Y-83076444D01*
X117402179Y-83172951D01*
X117230213Y-83297890D01*
X117079890Y-83448213D01*
X116954949Y-83620182D01*
X116950484Y-83628946D01*
X116902509Y-83679742D01*
X116834688Y-83696536D01*
X116768553Y-83673998D01*
X116729516Y-83628946D01*
X116725050Y-83620182D01*
X116600109Y-83448213D01*
X116449786Y-83297890D01*
X116277820Y-83172951D01*
X116088414Y-83076444D01*
X116088413Y-83076443D01*
X116088412Y-83076443D01*
X115886243Y-83010754D01*
X115886241Y-83010753D01*
X115886240Y-83010753D01*
X115724957Y-82985208D01*
X115676287Y-82977500D01*
X115463713Y-82977500D01*
X115415042Y-82985208D01*
X115253760Y-83010753D01*
X115051585Y-83076444D01*
X114862179Y-83172951D01*
X114690213Y-83297890D01*
X114539890Y-83448213D01*
X114414949Y-83620182D01*
X114410484Y-83628946D01*
X114362509Y-83679742D01*
X114294688Y-83696536D01*
X114228553Y-83673998D01*
X114189516Y-83628946D01*
X114185050Y-83620182D01*
X114060109Y-83448213D01*
X113909786Y-83297890D01*
X113737820Y-83172951D01*
X113548414Y-83076444D01*
X113548413Y-83076443D01*
X113548412Y-83076443D01*
X113346243Y-83010754D01*
X113346241Y-83010753D01*
X113346240Y-83010753D01*
X113184957Y-82985208D01*
X113136287Y-82977500D01*
X112923713Y-82977500D01*
X112875042Y-82985208D01*
X112713760Y-83010753D01*
X112511585Y-83076444D01*
X112322179Y-83172951D01*
X112150213Y-83297890D01*
X111999890Y-83448213D01*
X111874949Y-83620182D01*
X111870484Y-83628946D01*
X111822509Y-83679742D01*
X111754688Y-83696536D01*
X111688553Y-83673998D01*
X111649516Y-83628946D01*
X111645050Y-83620182D01*
X111520109Y-83448213D01*
X111369786Y-83297890D01*
X111197820Y-83172951D01*
X111008414Y-83076444D01*
X111008413Y-83076443D01*
X111008412Y-83076443D01*
X110806243Y-83010754D01*
X110806241Y-83010753D01*
X110806240Y-83010753D01*
X110644957Y-82985208D01*
X110596287Y-82977500D01*
X110383713Y-82977500D01*
X110335042Y-82985208D01*
X110173760Y-83010753D01*
X109971585Y-83076444D01*
X109782179Y-83172951D01*
X109610213Y-83297890D01*
X109459890Y-83448213D01*
X109334949Y-83620182D01*
X109330484Y-83628946D01*
X109282509Y-83679742D01*
X109214688Y-83696536D01*
X109148553Y-83673998D01*
X109109516Y-83628946D01*
X109105050Y-83620182D01*
X108980109Y-83448213D01*
X108829786Y-83297890D01*
X108657820Y-83172951D01*
X108468414Y-83076444D01*
X108468413Y-83076443D01*
X108468412Y-83076443D01*
X108266243Y-83010754D01*
X108266241Y-83010753D01*
X108266240Y-83010753D01*
X108104957Y-82985208D01*
X108056287Y-82977500D01*
X107843713Y-82977500D01*
X107795042Y-82985208D01*
X107633760Y-83010753D01*
X107431585Y-83076444D01*
X107242179Y-83172951D01*
X107070213Y-83297890D01*
X106919890Y-83448213D01*
X106794949Y-83620182D01*
X106790484Y-83628946D01*
X106742509Y-83679742D01*
X106674688Y-83696536D01*
X106608553Y-83673998D01*
X106569516Y-83628946D01*
X106565050Y-83620182D01*
X106440109Y-83448213D01*
X106289786Y-83297890D01*
X106117820Y-83172951D01*
X105928414Y-83076444D01*
X105928413Y-83076443D01*
X105928412Y-83076443D01*
X105726243Y-83010754D01*
X105726241Y-83010753D01*
X105726240Y-83010753D01*
X105564957Y-82985208D01*
X105516287Y-82977500D01*
X105303713Y-82977500D01*
X105255042Y-82985208D01*
X105093760Y-83010753D01*
X104891585Y-83076444D01*
X104702179Y-83172951D01*
X104530213Y-83297890D01*
X104379890Y-83448213D01*
X104254949Y-83620182D01*
X104250484Y-83628946D01*
X104202509Y-83679742D01*
X104134688Y-83696536D01*
X104068553Y-83673998D01*
X104029516Y-83628946D01*
X104025050Y-83620182D01*
X103900109Y-83448213D01*
X103749786Y-83297890D01*
X103577820Y-83172951D01*
X103388414Y-83076444D01*
X103388413Y-83076443D01*
X103388412Y-83076443D01*
X103186243Y-83010754D01*
X103186241Y-83010753D01*
X103186240Y-83010753D01*
X103024957Y-82985208D01*
X102976287Y-82977500D01*
X102763713Y-82977500D01*
X102715042Y-82985208D01*
X102553760Y-83010753D01*
X102351585Y-83076444D01*
X102162179Y-83172951D01*
X101990213Y-83297890D01*
X101839890Y-83448213D01*
X101714949Y-83620182D01*
X101710484Y-83628946D01*
X101662509Y-83679742D01*
X101594688Y-83696536D01*
X101528553Y-83673998D01*
X101489516Y-83628946D01*
X101485050Y-83620182D01*
X101360109Y-83448213D01*
X101209786Y-83297890D01*
X101037820Y-83172951D01*
X100848414Y-83076444D01*
X100848413Y-83076443D01*
X100848412Y-83076443D01*
X100646243Y-83010754D01*
X100646241Y-83010753D01*
X100646240Y-83010753D01*
X100484957Y-82985208D01*
X100436287Y-82977500D01*
X100223713Y-82977500D01*
X100175042Y-82985208D01*
X100013760Y-83010753D01*
X99811585Y-83076444D01*
X99622179Y-83172951D01*
X99450213Y-83297890D01*
X99299890Y-83448213D01*
X99174949Y-83620182D01*
X99170484Y-83628946D01*
X99122509Y-83679742D01*
X99054688Y-83696536D01*
X98988553Y-83673998D01*
X98949516Y-83628946D01*
X98945050Y-83620182D01*
X98820109Y-83448213D01*
X98669786Y-83297890D01*
X98497820Y-83172951D01*
X98308414Y-83076444D01*
X98308413Y-83076443D01*
X98308412Y-83076443D01*
X98106243Y-83010754D01*
X98106241Y-83010753D01*
X98106240Y-83010753D01*
X97944957Y-82985208D01*
X97896287Y-82977500D01*
X97683713Y-82977500D01*
X97635042Y-82985208D01*
X97473760Y-83010753D01*
X97271585Y-83076444D01*
X97082179Y-83172951D01*
X96910213Y-83297890D01*
X96759890Y-83448213D01*
X96634949Y-83620182D01*
X96630484Y-83628946D01*
X96582509Y-83679742D01*
X96514688Y-83696536D01*
X96448553Y-83673998D01*
X96409516Y-83628946D01*
X96405050Y-83620182D01*
X96280109Y-83448213D01*
X96129786Y-83297890D01*
X95957820Y-83172951D01*
X95768414Y-83076444D01*
X95768413Y-83076443D01*
X95768412Y-83076443D01*
X95566243Y-83010754D01*
X95566241Y-83010753D01*
X95566240Y-83010753D01*
X95404957Y-82985208D01*
X95356287Y-82977500D01*
X95143713Y-82977500D01*
X95095042Y-82985208D01*
X94933760Y-83010753D01*
X94731585Y-83076444D01*
X94542179Y-83172951D01*
X94370213Y-83297890D01*
X94219890Y-83448213D01*
X94094949Y-83620182D01*
X94090484Y-83628946D01*
X94042509Y-83679742D01*
X93974688Y-83696536D01*
X93908553Y-83673998D01*
X93869516Y-83628946D01*
X93865050Y-83620182D01*
X93740109Y-83448213D01*
X93589786Y-83297890D01*
X93417820Y-83172951D01*
X93228414Y-83076444D01*
X93228413Y-83076443D01*
X93228412Y-83076443D01*
X93026243Y-83010754D01*
X93026241Y-83010753D01*
X93026240Y-83010753D01*
X92864957Y-82985208D01*
X92816287Y-82977500D01*
X92603713Y-82977500D01*
X92555042Y-82985208D01*
X92393760Y-83010753D01*
X92191585Y-83076444D01*
X92002179Y-83172951D01*
X91830213Y-83297890D01*
X91679890Y-83448213D01*
X91554949Y-83620182D01*
X91550484Y-83628946D01*
X91502509Y-83679742D01*
X91434688Y-83696536D01*
X91368553Y-83673998D01*
X91329516Y-83628946D01*
X91325050Y-83620182D01*
X91200109Y-83448213D01*
X91049786Y-83297890D01*
X90877820Y-83172951D01*
X90688414Y-83076444D01*
X90688413Y-83076443D01*
X90688412Y-83076443D01*
X90486243Y-83010754D01*
X90486241Y-83010753D01*
X90486240Y-83010753D01*
X90324957Y-82985208D01*
X90276287Y-82977500D01*
X90063713Y-82977500D01*
X90015042Y-82985208D01*
X89853760Y-83010753D01*
X89651585Y-83076444D01*
X89462179Y-83172951D01*
X89290213Y-83297890D01*
X89139890Y-83448213D01*
X89014949Y-83620182D01*
X89010484Y-83628946D01*
X88962509Y-83679742D01*
X88894688Y-83696536D01*
X88828553Y-83673998D01*
X88789516Y-83628946D01*
X88785050Y-83620182D01*
X88660109Y-83448213D01*
X88509786Y-83297890D01*
X88337820Y-83172951D01*
X88148414Y-83076444D01*
X88148413Y-83076443D01*
X88148412Y-83076443D01*
X87946243Y-83010754D01*
X87946241Y-83010753D01*
X87946240Y-83010753D01*
X87784957Y-82985208D01*
X87736287Y-82977500D01*
X87523713Y-82977500D01*
X87475042Y-82985208D01*
X87313760Y-83010753D01*
X87111585Y-83076444D01*
X86922179Y-83172951D01*
X86750213Y-83297890D01*
X86599890Y-83448213D01*
X86474949Y-83620182D01*
X86470484Y-83628946D01*
X86422509Y-83679742D01*
X86354688Y-83696536D01*
X86288553Y-83673998D01*
X86249516Y-83628946D01*
X86245050Y-83620182D01*
X86120109Y-83448213D01*
X85969786Y-83297890D01*
X85797820Y-83172951D01*
X85608414Y-83076444D01*
X85608413Y-83076443D01*
X85608412Y-83076443D01*
X85406243Y-83010754D01*
X85406241Y-83010753D01*
X85406240Y-83010753D01*
X85244957Y-82985208D01*
X85196287Y-82977500D01*
X84983713Y-82977500D01*
X84935042Y-82985208D01*
X84773760Y-83010753D01*
X84571585Y-83076444D01*
X84382179Y-83172951D01*
X84210215Y-83297889D01*
X84096285Y-83411819D01*
X84034962Y-83445303D01*
X83965270Y-83440319D01*
X83909337Y-83398447D01*
X83892422Y-83367470D01*
X83843354Y-83235913D01*
X83843350Y-83235906D01*
X83757190Y-83120812D01*
X83757187Y-83120809D01*
X83642093Y-83034649D01*
X83642086Y-83034645D01*
X83507379Y-82984403D01*
X83507372Y-82984401D01*
X83447844Y-82978000D01*
X82800000Y-82978000D01*
X82800000Y-83894988D01*
X82742993Y-83862075D01*
X82615826Y-83828000D01*
X82484174Y-83828000D01*
X82357007Y-83862075D01*
X82300000Y-83894988D01*
X82300000Y-82978000D01*
X81652155Y-82978000D01*
X81592627Y-82984401D01*
X81592620Y-82984403D01*
X81457913Y-83034645D01*
X81457906Y-83034649D01*
X81342812Y-83120809D01*
X81342809Y-83120812D01*
X81256649Y-83235906D01*
X81256645Y-83235913D01*
X81206403Y-83370620D01*
X81206401Y-83370627D01*
X81200000Y-83430155D01*
X77655500Y-83430155D01*
X77655500Y-79671753D01*
X94703500Y-79671753D01*
X94703500Y-79829446D01*
X94734261Y-79984089D01*
X94734264Y-79984101D01*
X94794602Y-80129772D01*
X94794609Y-80129785D01*
X94882210Y-80260888D01*
X94882213Y-80260892D01*
X94993707Y-80372386D01*
X94993711Y-80372389D01*
X95124814Y-80459990D01*
X95124827Y-80459997D01*
X95270498Y-80520335D01*
X95270503Y-80520337D01*
X95425153Y-80551099D01*
X95425156Y-80551100D01*
X95425158Y-80551100D01*
X95582844Y-80551100D01*
X95582845Y-80551099D01*
X95737497Y-80520337D01*
X95812963Y-80489078D01*
X95881864Y-80460539D01*
X95929316Y-80451100D01*
X97902084Y-80451100D01*
X97949536Y-80460539D01*
X98093898Y-80520335D01*
X98093903Y-80520337D01*
X98248553Y-80551099D01*
X98248556Y-80551100D01*
X98248558Y-80551100D01*
X98406244Y-80551100D01*
X98406245Y-80551099D01*
X98560897Y-80520337D01*
X98636363Y-80489078D01*
X98705264Y-80460539D01*
X98752716Y-80451100D01*
X102320384Y-80451100D01*
X102367836Y-80460539D01*
X102512198Y-80520335D01*
X102512203Y-80520337D01*
X102666853Y-80551099D01*
X102666856Y-80551100D01*
X102666858Y-80551100D01*
X102824544Y-80551100D01*
X102824545Y-80551099D01*
X102979197Y-80520337D01*
X103124879Y-80459994D01*
X103255989Y-80372389D01*
X103367489Y-80260889D01*
X103455094Y-80129779D01*
X103515437Y-79984097D01*
X103546200Y-79829442D01*
X103546200Y-79671758D01*
X103546200Y-79671755D01*
X103546199Y-79671753D01*
X103515438Y-79517110D01*
X103515437Y-79517103D01*
X103515435Y-79517098D01*
X103455097Y-79371427D01*
X103455090Y-79371414D01*
X103367489Y-79240311D01*
X103367486Y-79240307D01*
X103255992Y-79128813D01*
X103255988Y-79128810D01*
X103124885Y-79041209D01*
X103124872Y-79041202D01*
X102979201Y-78980864D01*
X102979189Y-78980861D01*
X102824545Y-78950100D01*
X102824542Y-78950100D01*
X102666858Y-78950100D01*
X102666855Y-78950100D01*
X102512210Y-78980861D01*
X102512198Y-78980864D01*
X102367836Y-79040661D01*
X102320384Y-79050100D01*
X98752716Y-79050100D01*
X98705264Y-79040661D01*
X98560901Y-78980864D01*
X98560889Y-78980861D01*
X98406245Y-78950100D01*
X98406242Y-78950100D01*
X98248558Y-78950100D01*
X98248555Y-78950100D01*
X98093910Y-78980861D01*
X98093898Y-78980864D01*
X97949536Y-79040661D01*
X97902084Y-79050100D01*
X95929316Y-79050100D01*
X95881864Y-79040661D01*
X95737501Y-78980864D01*
X95737489Y-78980861D01*
X95582845Y-78950100D01*
X95582842Y-78950100D01*
X95425158Y-78950100D01*
X95425155Y-78950100D01*
X95270510Y-78980861D01*
X95270498Y-78980864D01*
X95124827Y-79041202D01*
X95124814Y-79041209D01*
X94993711Y-79128810D01*
X94993707Y-79128813D01*
X94882213Y-79240307D01*
X94882210Y-79240311D01*
X94794609Y-79371414D01*
X94794602Y-79371427D01*
X94734264Y-79517098D01*
X94734261Y-79517110D01*
X94703500Y-79671753D01*
X77655500Y-79671753D01*
X77655500Y-61607108D01*
X77621392Y-61479814D01*
X77555500Y-61365686D01*
X77462314Y-61272500D01*
X77405250Y-61239554D01*
X77348187Y-61206608D01*
X77284539Y-61189554D01*
X77220892Y-61172500D01*
X77220891Y-61172500D01*
X77158481Y-61172500D01*
X77151528Y-61172305D01*
X76826114Y-61154030D01*
X76812296Y-61152473D01*
X76494415Y-61098462D01*
X76480858Y-61095368D01*
X76171016Y-61006104D01*
X76157891Y-61001511D01*
X75860000Y-60878121D01*
X75847472Y-60872088D01*
X75565265Y-60716117D01*
X75553491Y-60708719D01*
X75496076Y-60667981D01*
X75358202Y-60570155D01*
X81200000Y-60570155D01*
X81200000Y-61218000D01*
X82116988Y-61218000D01*
X82084075Y-61275007D01*
X82050000Y-61402174D01*
X82050000Y-61533826D01*
X82084075Y-61660993D01*
X82116988Y-61718000D01*
X81200000Y-61718000D01*
X81200000Y-62365844D01*
X81206401Y-62425372D01*
X81206403Y-62425379D01*
X81256645Y-62560086D01*
X81256649Y-62560093D01*
X81342809Y-62675187D01*
X81342812Y-62675190D01*
X81457906Y-62761350D01*
X81457913Y-62761354D01*
X81592620Y-62811596D01*
X81592627Y-62811598D01*
X81652155Y-62817999D01*
X81652172Y-62818000D01*
X82300000Y-62818000D01*
X82300000Y-61901012D01*
X82357007Y-61933925D01*
X82484174Y-61968000D01*
X82615826Y-61968000D01*
X82742993Y-61933925D01*
X82800000Y-61901012D01*
X82800000Y-62818000D01*
X83447828Y-62818000D01*
X83447844Y-62817999D01*
X83507372Y-62811598D01*
X83507379Y-62811596D01*
X83642086Y-62761354D01*
X83642093Y-62761350D01*
X83757187Y-62675190D01*
X83757190Y-62675187D01*
X83843350Y-62560093D01*
X83843354Y-62560086D01*
X83892422Y-62428529D01*
X83934293Y-62372595D01*
X83999757Y-62348178D01*
X84068030Y-62363030D01*
X84096285Y-62384181D01*
X84210213Y-62498109D01*
X84382179Y-62623048D01*
X84382181Y-62623049D01*
X84382184Y-62623051D01*
X84571588Y-62719557D01*
X84773757Y-62785246D01*
X84983713Y-62818500D01*
X84983714Y-62818500D01*
X85196286Y-62818500D01*
X85196287Y-62818500D01*
X85406243Y-62785246D01*
X85608412Y-62719557D01*
X85797816Y-62623051D01*
X85884471Y-62560093D01*
X85969786Y-62498109D01*
X85969788Y-62498106D01*
X85969792Y-62498104D01*
X86120104Y-62347792D01*
X86120106Y-62347788D01*
X86120109Y-62347786D01*
X86229086Y-62197789D01*
X86245051Y-62175816D01*
X86249514Y-62167054D01*
X86297488Y-62116259D01*
X86365308Y-62099463D01*
X86431444Y-62121999D01*
X86470484Y-62167054D01*
X86473781Y-62173523D01*
X86474951Y-62175820D01*
X86599890Y-62347786D01*
X86750213Y-62498109D01*
X86922179Y-62623048D01*
X86922181Y-62623049D01*
X86922184Y-62623051D01*
X87111588Y-62719557D01*
X87313757Y-62785246D01*
X87523713Y-62818500D01*
X87523714Y-62818500D01*
X87736286Y-62818500D01*
X87736287Y-62818500D01*
X87946243Y-62785246D01*
X88148412Y-62719557D01*
X88337816Y-62623051D01*
X88424471Y-62560093D01*
X88509786Y-62498109D01*
X88509788Y-62498106D01*
X88509792Y-62498104D01*
X88660104Y-62347792D01*
X88753229Y-62219614D01*
X88757560Y-62216274D01*
X88759834Y-62211297D01*
X88784933Y-62195166D01*
X88808558Y-62176949D01*
X88815231Y-62175695D01*
X88818612Y-62173523D01*
X88853547Y-62168500D01*
X88946453Y-62168500D01*
X89013492Y-62188185D01*
X89046769Y-62219614D01*
X89081842Y-62267887D01*
X89139892Y-62347788D01*
X89290213Y-62498109D01*
X89462179Y-62623048D01*
X89462181Y-62623049D01*
X89462184Y-62623051D01*
X89651588Y-62719557D01*
X89853757Y-62785246D01*
X90063713Y-62818500D01*
X90063714Y-62818500D01*
X90276286Y-62818500D01*
X90276287Y-62818500D01*
X90432771Y-62793715D01*
X90502064Y-62802670D01*
X90539850Y-62828507D01*
X97336745Y-69625401D01*
X97370230Y-69686724D01*
X97373064Y-69713082D01*
X97373064Y-72223232D01*
X97353379Y-72290271D01*
X97336745Y-72310913D01*
X97257589Y-72390068D01*
X97257588Y-72390069D01*
X97142622Y-72562130D01*
X97063434Y-72753306D01*
X97063432Y-72753314D01*
X97023064Y-72956257D01*
X97023064Y-73163196D01*
X97063432Y-73366139D01*
X97063434Y-73366147D01*
X97142622Y-73557323D01*
X97257588Y-73729384D01*
X97403906Y-73875702D01*
X97403909Y-73875704D01*
X97575966Y-73990668D01*
X97767144Y-74069857D01*
X97970094Y-74110226D01*
X97970098Y-74110227D01*
X97970099Y-74110227D01*
X98177030Y-74110227D01*
X98177031Y-74110226D01*
X98379984Y-74069857D01*
X98571162Y-73990668D01*
X98743219Y-73875704D01*
X98889541Y-73729382D01*
X99004505Y-73557325D01*
X99004606Y-73557083D01*
X99075523Y-73385873D01*
X99076709Y-73383009D01*
X99120549Y-73328607D01*
X99186843Y-73306542D01*
X99254542Y-73323821D01*
X99302153Y-73374958D01*
X99305830Y-73383010D01*
X99377934Y-73557083D01*
X99377939Y-73557093D01*
X99492844Y-73729060D01*
X99492847Y-73729064D01*
X99639094Y-73875311D01*
X99639098Y-73875314D01*
X99811065Y-73990219D01*
X99811075Y-73990224D01*
X100002157Y-74069373D01*
X100002159Y-74069374D01*
X100058434Y-74080567D01*
X100558434Y-74080567D01*
X100614708Y-74069374D01*
X100614710Y-74069373D01*
X100805792Y-73990224D01*
X100805802Y-73990219D01*
X100977769Y-73875314D01*
X100977773Y-73875311D01*
X101124020Y-73729064D01*
X101124023Y-73729060D01*
X101238928Y-73557093D01*
X101238933Y-73557083D01*
X101318082Y-73366001D01*
X101318083Y-73365999D01*
X101329277Y-73309725D01*
X100558434Y-73309725D01*
X100558434Y-74080567D01*
X100058434Y-74080567D01*
X100058434Y-73304700D01*
X100093529Y-73339795D01*
X100173339Y-73385873D01*
X100262356Y-73409725D01*
X100354512Y-73409725D01*
X100443529Y-73385873D01*
X100523339Y-73339795D01*
X100588504Y-73274630D01*
X100634582Y-73194820D01*
X100658434Y-73105803D01*
X100658434Y-73013647D01*
X100634582Y-72924630D01*
X100588504Y-72844820D01*
X100553409Y-72809725D01*
X100558434Y-72809725D01*
X101329277Y-72809725D01*
X101318083Y-72753450D01*
X101318082Y-72753448D01*
X101238933Y-72562366D01*
X101238928Y-72562356D01*
X101124023Y-72390389D01*
X101124020Y-72390385D01*
X100977773Y-72244138D01*
X100977769Y-72244135D01*
X100805802Y-72129230D01*
X100805792Y-72129225D01*
X100614706Y-72050074D01*
X100614701Y-72050072D01*
X100558434Y-72038880D01*
X100558434Y-72809725D01*
X100553409Y-72809725D01*
X100523339Y-72779655D01*
X100443529Y-72733577D01*
X100354512Y-72709725D01*
X100262356Y-72709725D01*
X100173339Y-72733577D01*
X100093529Y-72779655D01*
X100058434Y-72814750D01*
X100058434Y-72038881D01*
X100058433Y-72038880D01*
X100002166Y-72050072D01*
X100002161Y-72050074D01*
X99811075Y-72129225D01*
X99811065Y-72129230D01*
X99639098Y-72244135D01*
X99639094Y-72244138D01*
X99492847Y-72390385D01*
X99492844Y-72390389D01*
X99377939Y-72562356D01*
X99377934Y-72562366D01*
X99305829Y-72736441D01*
X99261987Y-72790845D01*
X99195693Y-72812909D01*
X99127994Y-72795629D01*
X99080384Y-72744492D01*
X99076711Y-72736449D01*
X99051048Y-72674494D01*
X99004507Y-72562132D01*
X98889539Y-72390069D01*
X98810383Y-72310913D01*
X98776898Y-72249590D01*
X98774064Y-72223232D01*
X98774064Y-69302568D01*
X98747145Y-69167241D01*
X98747144Y-69167240D01*
X98747144Y-69167236D01*
X98747142Y-69167231D01*
X98694342Y-69039759D01*
X98694335Y-69039746D01*
X98617678Y-68925022D01*
X98617675Y-68925018D01*
X98616325Y-68923668D01*
X98615843Y-68922786D01*
X98613813Y-68920312D01*
X98614282Y-68919926D01*
X98582840Y-68862345D01*
X98587824Y-68792653D01*
X98629696Y-68736720D01*
X98690753Y-68712697D01*
X98731049Y-68708366D01*
X98865897Y-68658071D01*
X98981112Y-68571821D01*
X99067362Y-68456606D01*
X99117657Y-68321758D01*
X99124066Y-68262148D01*
X99124065Y-68173426D01*
X99143749Y-68106391D01*
X99196552Y-68060635D01*
X99265711Y-68050691D01*
X99329267Y-68079715D01*
X99362625Y-68125975D01*
X99377492Y-68161866D01*
X99377494Y-68161869D01*
X99377495Y-68161871D01*
X99435359Y-68248472D01*
X99492460Y-68333930D01*
X99638778Y-68480248D01*
X99638781Y-68480250D01*
X99810838Y-68595214D01*
X100002016Y-68674403D01*
X100172761Y-68708366D01*
X100204966Y-68714772D01*
X100204970Y-68714773D01*
X100204971Y-68714773D01*
X100411902Y-68714773D01*
X100411903Y-68714772D01*
X100614856Y-68674403D01*
X100806034Y-68595214D01*
X100978091Y-68480250D01*
X101124413Y-68333928D01*
X101239377Y-68161871D01*
X101318566Y-67970693D01*
X101358936Y-67767738D01*
X101358936Y-67560808D01*
X101318566Y-67357853D01*
X101239377Y-67166675D01*
X101124413Y-66994618D01*
X101124411Y-66994615D01*
X100978093Y-66848297D01*
X100841047Y-66756727D01*
X100806034Y-66733332D01*
X100614856Y-66654143D01*
X100614848Y-66654141D01*
X100411905Y-66613773D01*
X100411901Y-66613773D01*
X100204971Y-66613773D01*
X100204966Y-66613773D01*
X100002023Y-66654141D01*
X100002015Y-66654143D01*
X99810839Y-66733331D01*
X99638778Y-66848297D01*
X99492460Y-66994615D01*
X99377493Y-67166677D01*
X99362626Y-67202571D01*
X99318785Y-67256974D01*
X99252490Y-67279039D01*
X99184791Y-67261760D01*
X99137181Y-67210622D01*
X99124065Y-67155118D01*
X99124065Y-67066404D01*
X99124064Y-67066398D01*
X99117657Y-67006791D01*
X99067363Y-66871946D01*
X99067359Y-66871939D01*
X98981113Y-66756730D01*
X98981110Y-66756727D01*
X98865901Y-66670481D01*
X98865894Y-66670477D01*
X98731048Y-66620183D01*
X98731049Y-66620183D01*
X98671449Y-66613776D01*
X98671447Y-66613775D01*
X98671439Y-66613775D01*
X98671430Y-66613775D01*
X97475695Y-66613775D01*
X97475689Y-66613776D01*
X97416082Y-66620183D01*
X97281237Y-66670477D01*
X97281230Y-66670481D01*
X97166021Y-66756727D01*
X97166018Y-66756730D01*
X97079772Y-66871939D01*
X97079768Y-66871946D01*
X97029474Y-67006791D01*
X97025142Y-67047091D01*
X96998404Y-67111642D01*
X96941011Y-67151490D01*
X96871186Y-67153983D01*
X96814172Y-67121516D01*
X92722838Y-63030181D01*
X92689353Y-62968858D01*
X92694337Y-62899166D01*
X92736209Y-62843233D01*
X92801673Y-62818816D01*
X92810519Y-62818500D01*
X92816286Y-62818500D01*
X92816287Y-62818500D01*
X93026243Y-62785246D01*
X93228412Y-62719557D01*
X93417816Y-62623051D01*
X93504471Y-62560093D01*
X93589786Y-62498109D01*
X93589788Y-62498106D01*
X93589792Y-62498104D01*
X93740104Y-62347792D01*
X93740106Y-62347788D01*
X93740109Y-62347786D01*
X93849086Y-62197789D01*
X93865051Y-62175816D01*
X93869514Y-62167054D01*
X93917488Y-62116259D01*
X93985308Y-62099463D01*
X94051444Y-62121999D01*
X94090484Y-62167054D01*
X94093781Y-62173523D01*
X94094951Y-62175820D01*
X94219890Y-62347786D01*
X94370213Y-62498109D01*
X94542179Y-62623048D01*
X94542181Y-62623049D01*
X94542184Y-62623051D01*
X94731588Y-62719557D01*
X94933757Y-62785246D01*
X95143713Y-62818500D01*
X95143714Y-62818500D01*
X95356286Y-62818500D01*
X95356287Y-62818500D01*
X95566243Y-62785246D01*
X95768412Y-62719557D01*
X95957816Y-62623051D01*
X96044471Y-62560093D01*
X96129786Y-62498109D01*
X96129788Y-62498106D01*
X96129792Y-62498104D01*
X96280104Y-62347792D01*
X96280106Y-62347788D01*
X96280109Y-62347786D01*
X96389086Y-62197789D01*
X96405051Y-62175816D01*
X96409514Y-62167054D01*
X96457488Y-62116259D01*
X96525308Y-62099463D01*
X96591444Y-62121999D01*
X96630484Y-62167054D01*
X96633781Y-62173523D01*
X96634951Y-62175820D01*
X96759890Y-62347786D01*
X96910213Y-62498109D01*
X97082179Y-62623048D01*
X97082181Y-62623049D01*
X97082184Y-62623051D01*
X97271588Y-62719557D01*
X97473757Y-62785246D01*
X97683713Y-62818500D01*
X97683714Y-62818500D01*
X97896286Y-62818500D01*
X97896287Y-62818500D01*
X98106243Y-62785246D01*
X98308412Y-62719557D01*
X98497816Y-62623051D01*
X98584471Y-62560093D01*
X98669786Y-62498109D01*
X98669788Y-62498106D01*
X98669792Y-62498104D01*
X98820104Y-62347792D01*
X98820106Y-62347788D01*
X98820109Y-62347786D01*
X98929086Y-62197789D01*
X98945051Y-62175816D01*
X98949514Y-62167054D01*
X98997488Y-62116259D01*
X99065308Y-62099463D01*
X99131444Y-62121999D01*
X99170484Y-62167054D01*
X99173781Y-62173523D01*
X99174951Y-62175820D01*
X99299890Y-62347786D01*
X99450213Y-62498109D01*
X99622179Y-62623048D01*
X99622181Y-62623049D01*
X99622184Y-62623051D01*
X99811588Y-62719557D01*
X100013757Y-62785246D01*
X100223713Y-62818500D01*
X100223714Y-62818500D01*
X100436286Y-62818500D01*
X100436287Y-62818500D01*
X100646243Y-62785246D01*
X100848412Y-62719557D01*
X101037816Y-62623051D01*
X101124471Y-62560093D01*
X101209786Y-62498109D01*
X101209788Y-62498106D01*
X101209792Y-62498104D01*
X101360104Y-62347792D01*
X101360106Y-62347788D01*
X101360109Y-62347786D01*
X101469086Y-62197789D01*
X101485051Y-62175816D01*
X101489514Y-62167054D01*
X101537488Y-62116259D01*
X101605308Y-62099463D01*
X101671444Y-62121999D01*
X101710484Y-62167054D01*
X101713781Y-62173523D01*
X101714951Y-62175820D01*
X101839890Y-62347786D01*
X101990213Y-62498109D01*
X102162179Y-62623048D01*
X102162181Y-62623049D01*
X102162184Y-62623051D01*
X102351588Y-62719557D01*
X102553757Y-62785246D01*
X102763713Y-62818500D01*
X102763714Y-62818500D01*
X102976286Y-62818500D01*
X102976287Y-62818500D01*
X103186243Y-62785246D01*
X103388412Y-62719557D01*
X103577816Y-62623051D01*
X103664471Y-62560093D01*
X103749786Y-62498109D01*
X103749788Y-62498106D01*
X103749792Y-62498104D01*
X103900104Y-62347792D01*
X103900106Y-62347788D01*
X103900109Y-62347786D01*
X104009086Y-62197789D01*
X104025051Y-62175816D01*
X104029514Y-62167054D01*
X104077488Y-62116259D01*
X104145308Y-62099463D01*
X104211444Y-62121999D01*
X104250484Y-62167054D01*
X104253781Y-62173523D01*
X104254951Y-62175820D01*
X104379890Y-62347786D01*
X104530213Y-62498109D01*
X104702179Y-62623048D01*
X104702181Y-62623049D01*
X104702184Y-62623051D01*
X104891588Y-62719557D01*
X105093757Y-62785246D01*
X105303713Y-62818500D01*
X105303714Y-62818500D01*
X105516286Y-62818500D01*
X105516287Y-62818500D01*
X105726243Y-62785246D01*
X105928412Y-62719557D01*
X106117816Y-62623051D01*
X106204471Y-62560093D01*
X106289786Y-62498109D01*
X106289788Y-62498106D01*
X106289792Y-62498104D01*
X106440104Y-62347792D01*
X106440106Y-62347788D01*
X106440109Y-62347786D01*
X106549086Y-62197789D01*
X106565051Y-62175816D01*
X106569514Y-62167054D01*
X106617488Y-62116259D01*
X106685308Y-62099463D01*
X106751444Y-62121999D01*
X106790484Y-62167054D01*
X106793781Y-62173523D01*
X106794951Y-62175820D01*
X106919890Y-62347786D01*
X107070213Y-62498109D01*
X107242179Y-62623048D01*
X107242181Y-62623049D01*
X107242184Y-62623051D01*
X107431588Y-62719557D01*
X107633757Y-62785246D01*
X107843713Y-62818500D01*
X107843714Y-62818500D01*
X108056286Y-62818500D01*
X108056287Y-62818500D01*
X108266243Y-62785246D01*
X108468412Y-62719557D01*
X108657816Y-62623051D01*
X108744471Y-62560093D01*
X108829786Y-62498109D01*
X108829788Y-62498106D01*
X108829792Y-62498104D01*
X108980104Y-62347792D01*
X108980106Y-62347788D01*
X108980109Y-62347786D01*
X109089086Y-62197789D01*
X109105051Y-62175816D01*
X109109514Y-62167054D01*
X109157488Y-62116259D01*
X109225308Y-62099463D01*
X109291444Y-62121999D01*
X109330484Y-62167054D01*
X109333781Y-62173523D01*
X109334951Y-62175820D01*
X109459890Y-62347786D01*
X109610213Y-62498109D01*
X109782179Y-62623048D01*
X109782181Y-62623049D01*
X109782184Y-62623051D01*
X109971588Y-62719557D01*
X110173757Y-62785246D01*
X110383713Y-62818500D01*
X110383714Y-62818500D01*
X110596286Y-62818500D01*
X110596287Y-62818500D01*
X110806243Y-62785246D01*
X111008412Y-62719557D01*
X111197816Y-62623051D01*
X111284471Y-62560093D01*
X111369786Y-62498109D01*
X111369788Y-62498106D01*
X111369792Y-62498104D01*
X111520104Y-62347792D01*
X111520106Y-62347788D01*
X111520109Y-62347786D01*
X111629086Y-62197789D01*
X111645051Y-62175816D01*
X111649514Y-62167054D01*
X111697488Y-62116259D01*
X111765308Y-62099463D01*
X111831444Y-62121999D01*
X111870484Y-62167054D01*
X111873781Y-62173523D01*
X111874951Y-62175820D01*
X111999890Y-62347786D01*
X112150213Y-62498109D01*
X112322179Y-62623048D01*
X112322181Y-62623049D01*
X112322184Y-62623051D01*
X112511588Y-62719557D01*
X112713757Y-62785246D01*
X112923713Y-62818500D01*
X112923714Y-62818500D01*
X113136286Y-62818500D01*
X113136287Y-62818500D01*
X113346243Y-62785246D01*
X113548412Y-62719557D01*
X113737816Y-62623051D01*
X113824471Y-62560093D01*
X113909786Y-62498109D01*
X113909788Y-62498106D01*
X113909792Y-62498104D01*
X114060104Y-62347792D01*
X114060106Y-62347788D01*
X114060109Y-62347786D01*
X114169086Y-62197789D01*
X114185051Y-62175816D01*
X114189514Y-62167054D01*
X114237488Y-62116259D01*
X114305308Y-62099463D01*
X114371444Y-62121999D01*
X114410484Y-62167054D01*
X114413781Y-62173523D01*
X114414951Y-62175820D01*
X114539890Y-62347786D01*
X114690213Y-62498109D01*
X114862179Y-62623048D01*
X114862181Y-62623049D01*
X114862184Y-62623051D01*
X115051588Y-62719557D01*
X115253757Y-62785246D01*
X115463713Y-62818500D01*
X115463714Y-62818500D01*
X115676286Y-62818500D01*
X115676287Y-62818500D01*
X115886243Y-62785246D01*
X116088412Y-62719557D01*
X116277816Y-62623051D01*
X116364471Y-62560093D01*
X116449786Y-62498109D01*
X116449788Y-62498106D01*
X116449792Y-62498104D01*
X116600104Y-62347792D01*
X116600106Y-62347788D01*
X116600109Y-62347786D01*
X116709086Y-62197789D01*
X116725051Y-62175816D01*
X116729514Y-62167054D01*
X116777488Y-62116259D01*
X116845308Y-62099463D01*
X116911444Y-62121999D01*
X116950484Y-62167054D01*
X116953781Y-62173523D01*
X116954951Y-62175820D01*
X117079890Y-62347786D01*
X117230213Y-62498109D01*
X117402179Y-62623048D01*
X117402181Y-62623049D01*
X117402184Y-62623051D01*
X117591588Y-62719557D01*
X117793757Y-62785246D01*
X118003713Y-62818500D01*
X118003714Y-62818500D01*
X118216286Y-62818500D01*
X118216287Y-62818500D01*
X118426243Y-62785246D01*
X118628412Y-62719557D01*
X118817816Y-62623051D01*
X118904471Y-62560093D01*
X118989786Y-62498109D01*
X118989788Y-62498106D01*
X118989792Y-62498104D01*
X119140104Y-62347792D01*
X119140106Y-62347788D01*
X119140109Y-62347786D01*
X119249086Y-62197789D01*
X119265051Y-62175816D01*
X119269514Y-62167054D01*
X119317488Y-62116259D01*
X119385308Y-62099463D01*
X119451444Y-62121999D01*
X119490484Y-62167054D01*
X119493781Y-62173523D01*
X119494951Y-62175820D01*
X119619890Y-62347786D01*
X119770213Y-62498109D01*
X119942179Y-62623048D01*
X119942181Y-62623049D01*
X119942184Y-62623051D01*
X120131588Y-62719557D01*
X120333757Y-62785246D01*
X120543713Y-62818500D01*
X120543714Y-62818500D01*
X120756286Y-62818500D01*
X120756287Y-62818500D01*
X120966243Y-62785246D01*
X121168412Y-62719557D01*
X121357816Y-62623051D01*
X121444471Y-62560093D01*
X121529786Y-62498109D01*
X121529788Y-62498106D01*
X121529792Y-62498104D01*
X121680104Y-62347792D01*
X121680106Y-62347788D01*
X121680109Y-62347786D01*
X121789086Y-62197789D01*
X121805051Y-62175816D01*
X121809514Y-62167054D01*
X121857488Y-62116259D01*
X121925308Y-62099463D01*
X121991444Y-62121999D01*
X122030484Y-62167054D01*
X122033781Y-62173523D01*
X122034951Y-62175820D01*
X122159890Y-62347786D01*
X122310213Y-62498109D01*
X122482179Y-62623048D01*
X122482181Y-62623049D01*
X122482184Y-62623051D01*
X122671588Y-62719557D01*
X122873757Y-62785246D01*
X123083713Y-62818500D01*
X123083714Y-62818500D01*
X123296286Y-62818500D01*
X123296287Y-62818500D01*
X123506243Y-62785246D01*
X123708412Y-62719557D01*
X123897816Y-62623051D01*
X123984471Y-62560093D01*
X124069786Y-62498109D01*
X124069788Y-62498106D01*
X124069792Y-62498104D01*
X124220104Y-62347792D01*
X124220106Y-62347788D01*
X124220109Y-62347786D01*
X124329086Y-62197789D01*
X124345051Y-62175816D01*
X124349514Y-62167054D01*
X124397488Y-62116259D01*
X124465308Y-62099463D01*
X124531444Y-62121999D01*
X124570484Y-62167054D01*
X124573781Y-62173523D01*
X124574951Y-62175820D01*
X124699890Y-62347786D01*
X124850213Y-62498109D01*
X125022179Y-62623048D01*
X125022181Y-62623049D01*
X125022184Y-62623051D01*
X125211588Y-62719557D01*
X125413757Y-62785246D01*
X125623713Y-62818500D01*
X125623714Y-62818500D01*
X125836286Y-62818500D01*
X125836287Y-62818500D01*
X126046243Y-62785246D01*
X126248412Y-62719557D01*
X126437816Y-62623051D01*
X126524471Y-62560093D01*
X126609786Y-62498109D01*
X126609788Y-62498106D01*
X126609792Y-62498104D01*
X126760104Y-62347792D01*
X126760106Y-62347788D01*
X126760109Y-62347786D01*
X126869086Y-62197789D01*
X126885051Y-62175816D01*
X126981557Y-61986412D01*
X127047246Y-61784243D01*
X127080500Y-61574287D01*
X127080500Y-61361713D01*
X127047246Y-61151757D01*
X126981557Y-60949588D01*
X126885051Y-60760184D01*
X126885049Y-60760181D01*
X126885048Y-60760179D01*
X126760109Y-60588213D01*
X126609786Y-60437890D01*
X126437820Y-60312951D01*
X126248414Y-60216444D01*
X126248413Y-60216443D01*
X126248412Y-60216443D01*
X126046243Y-60150754D01*
X126046241Y-60150753D01*
X126046240Y-60150753D01*
X125884957Y-60125208D01*
X125836287Y-60117500D01*
X125623713Y-60117500D01*
X125575042Y-60125208D01*
X125413760Y-60150753D01*
X125211585Y-60216444D01*
X125022179Y-60312951D01*
X124850213Y-60437890D01*
X124699890Y-60588213D01*
X124574949Y-60760182D01*
X124570484Y-60768946D01*
X124522509Y-60819742D01*
X124454688Y-60836536D01*
X124388553Y-60813998D01*
X124349516Y-60768946D01*
X124345050Y-60760182D01*
X124220109Y-60588213D01*
X124069786Y-60437890D01*
X123897820Y-60312951D01*
X123708414Y-60216444D01*
X123708413Y-60216443D01*
X123708412Y-60216443D01*
X123506243Y-60150754D01*
X123506241Y-60150753D01*
X123506240Y-60150753D01*
X123344957Y-60125208D01*
X123296287Y-60117500D01*
X123083713Y-60117500D01*
X123035042Y-60125208D01*
X122873760Y-60150753D01*
X122671585Y-60216444D01*
X122482179Y-60312951D01*
X122310213Y-60437890D01*
X122159890Y-60588213D01*
X122034949Y-60760182D01*
X122030484Y-60768946D01*
X121982509Y-60819742D01*
X121914688Y-60836536D01*
X121848553Y-60813998D01*
X121809516Y-60768946D01*
X121805050Y-60760182D01*
X121680109Y-60588213D01*
X121529786Y-60437890D01*
X121357820Y-60312951D01*
X121168414Y-60216444D01*
X121168413Y-60216443D01*
X121168412Y-60216443D01*
X120966243Y-60150754D01*
X120966241Y-60150753D01*
X120966240Y-60150753D01*
X120804957Y-60125208D01*
X120756287Y-60117500D01*
X120543713Y-60117500D01*
X120495042Y-60125208D01*
X120333760Y-60150753D01*
X120131585Y-60216444D01*
X119942179Y-60312951D01*
X119770213Y-60437890D01*
X119619890Y-60588213D01*
X119494949Y-60760182D01*
X119490484Y-60768946D01*
X119442509Y-60819742D01*
X119374688Y-60836536D01*
X119308553Y-60813998D01*
X119269516Y-60768946D01*
X119265050Y-60760182D01*
X119140109Y-60588213D01*
X118989786Y-60437890D01*
X118817820Y-60312951D01*
X118628414Y-60216444D01*
X118628413Y-60216443D01*
X118628412Y-60216443D01*
X118426243Y-60150754D01*
X118426241Y-60150753D01*
X118426240Y-60150753D01*
X118264957Y-60125208D01*
X118216287Y-60117500D01*
X118003713Y-60117500D01*
X117955042Y-60125208D01*
X117793760Y-60150753D01*
X117591585Y-60216444D01*
X117402179Y-60312951D01*
X117230213Y-60437890D01*
X117079890Y-60588213D01*
X116954949Y-60760182D01*
X116950484Y-60768946D01*
X116902509Y-60819742D01*
X116834688Y-60836536D01*
X116768553Y-60813998D01*
X116729516Y-60768946D01*
X116725050Y-60760182D01*
X116600109Y-60588213D01*
X116449786Y-60437890D01*
X116277820Y-60312951D01*
X116088414Y-60216444D01*
X116088413Y-60216443D01*
X116088412Y-60216443D01*
X115886243Y-60150754D01*
X115886241Y-60150753D01*
X115886240Y-60150753D01*
X115724957Y-60125208D01*
X115676287Y-60117500D01*
X115463713Y-60117500D01*
X115415042Y-60125208D01*
X115253760Y-60150753D01*
X115051585Y-60216444D01*
X114862179Y-60312951D01*
X114690213Y-60437890D01*
X114539890Y-60588213D01*
X114414949Y-60760182D01*
X114410484Y-60768946D01*
X114362509Y-60819742D01*
X114294688Y-60836536D01*
X114228553Y-60813998D01*
X114189516Y-60768946D01*
X114185050Y-60760182D01*
X114060109Y-60588213D01*
X113909786Y-60437890D01*
X113737820Y-60312951D01*
X113548414Y-60216444D01*
X113548413Y-60216443D01*
X113548412Y-60216443D01*
X113346243Y-60150754D01*
X113346241Y-60150753D01*
X113346240Y-60150753D01*
X113184957Y-60125208D01*
X113136287Y-60117500D01*
X112923713Y-60117500D01*
X112875042Y-60125208D01*
X112713760Y-60150753D01*
X112511585Y-60216444D01*
X112322179Y-60312951D01*
X112150213Y-60437890D01*
X111999890Y-60588213D01*
X111874949Y-60760182D01*
X111870484Y-60768946D01*
X111822509Y-60819742D01*
X111754688Y-60836536D01*
X111688553Y-60813998D01*
X111649516Y-60768946D01*
X111645050Y-60760182D01*
X111520109Y-60588213D01*
X111369786Y-60437890D01*
X111197820Y-60312951D01*
X111008414Y-60216444D01*
X111008413Y-60216443D01*
X111008412Y-60216443D01*
X110806243Y-60150754D01*
X110806241Y-60150753D01*
X110806240Y-60150753D01*
X110644957Y-60125208D01*
X110596287Y-60117500D01*
X110383713Y-60117500D01*
X110335042Y-60125208D01*
X110173760Y-60150753D01*
X109971585Y-60216444D01*
X109782179Y-60312951D01*
X109610213Y-60437890D01*
X109459890Y-60588213D01*
X109334949Y-60760182D01*
X109330484Y-60768946D01*
X109282509Y-60819742D01*
X109214688Y-60836536D01*
X109148553Y-60813998D01*
X109109516Y-60768946D01*
X109105050Y-60760182D01*
X108980109Y-60588213D01*
X108829786Y-60437890D01*
X108657820Y-60312951D01*
X108468414Y-60216444D01*
X108468413Y-60216443D01*
X108468412Y-60216443D01*
X108266243Y-60150754D01*
X108266241Y-60150753D01*
X108266240Y-60150753D01*
X108104957Y-60125208D01*
X108056287Y-60117500D01*
X107843713Y-60117500D01*
X107795042Y-60125208D01*
X107633760Y-60150753D01*
X107431585Y-60216444D01*
X107242179Y-60312951D01*
X107070213Y-60437890D01*
X106919890Y-60588213D01*
X106794949Y-60760182D01*
X106790484Y-60768946D01*
X106742509Y-60819742D01*
X106674688Y-60836536D01*
X106608553Y-60813998D01*
X106569516Y-60768946D01*
X106565050Y-60760182D01*
X106440109Y-60588213D01*
X106289786Y-60437890D01*
X106117820Y-60312951D01*
X105928414Y-60216444D01*
X105928413Y-60216443D01*
X105928412Y-60216443D01*
X105726243Y-60150754D01*
X105726241Y-60150753D01*
X105726240Y-60150753D01*
X105564957Y-60125208D01*
X105516287Y-60117500D01*
X105303713Y-60117500D01*
X105255042Y-60125208D01*
X105093760Y-60150753D01*
X104891585Y-60216444D01*
X104702179Y-60312951D01*
X104530213Y-60437890D01*
X104379890Y-60588213D01*
X104254949Y-60760182D01*
X104250484Y-60768946D01*
X104202509Y-60819742D01*
X104134688Y-60836536D01*
X104068553Y-60813998D01*
X104029516Y-60768946D01*
X104025050Y-60760182D01*
X103900109Y-60588213D01*
X103749786Y-60437890D01*
X103577820Y-60312951D01*
X103388414Y-60216444D01*
X103388413Y-60216443D01*
X103388412Y-60216443D01*
X103186243Y-60150754D01*
X103186241Y-60150753D01*
X103186240Y-60150753D01*
X103024957Y-60125208D01*
X102976287Y-60117500D01*
X102763713Y-60117500D01*
X102715042Y-60125208D01*
X102553760Y-60150753D01*
X102351585Y-60216444D01*
X102162179Y-60312951D01*
X101990213Y-60437890D01*
X101839890Y-60588213D01*
X101714949Y-60760182D01*
X101710484Y-60768946D01*
X101662509Y-60819742D01*
X101594688Y-60836536D01*
X101528553Y-60813998D01*
X101489516Y-60768946D01*
X101485050Y-60760182D01*
X101360109Y-60588213D01*
X101209786Y-60437890D01*
X101037820Y-60312951D01*
X100848414Y-60216444D01*
X100848413Y-60216443D01*
X100848412Y-60216443D01*
X100646243Y-60150754D01*
X100646241Y-60150753D01*
X100646240Y-60150753D01*
X100484957Y-60125208D01*
X100436287Y-60117500D01*
X100223713Y-60117500D01*
X100175042Y-60125208D01*
X100013760Y-60150753D01*
X99811585Y-60216444D01*
X99622179Y-60312951D01*
X99450213Y-60437890D01*
X99299890Y-60588213D01*
X99174949Y-60760182D01*
X99170484Y-60768946D01*
X99122509Y-60819742D01*
X99054688Y-60836536D01*
X98988553Y-60813998D01*
X98949516Y-60768946D01*
X98945050Y-60760182D01*
X98820109Y-60588213D01*
X98669786Y-60437890D01*
X98497820Y-60312951D01*
X98308414Y-60216444D01*
X98308413Y-60216443D01*
X98308412Y-60216443D01*
X98106243Y-60150754D01*
X98106241Y-60150753D01*
X98106240Y-60150753D01*
X97944957Y-60125208D01*
X97896287Y-60117500D01*
X97683713Y-60117500D01*
X97635042Y-60125208D01*
X97473760Y-60150753D01*
X97271585Y-60216444D01*
X97082179Y-60312951D01*
X96910213Y-60437890D01*
X96759890Y-60588213D01*
X96634949Y-60760182D01*
X96630484Y-60768946D01*
X96582509Y-60819742D01*
X96514688Y-60836536D01*
X96448553Y-60813998D01*
X96409516Y-60768946D01*
X96405050Y-60760182D01*
X96280109Y-60588213D01*
X96129786Y-60437890D01*
X95957820Y-60312951D01*
X95768414Y-60216444D01*
X95768413Y-60216443D01*
X95768412Y-60216443D01*
X95566243Y-60150754D01*
X95566241Y-60150753D01*
X95566240Y-60150753D01*
X95404957Y-60125208D01*
X95356287Y-60117500D01*
X95143713Y-60117500D01*
X95095042Y-60125208D01*
X94933760Y-60150753D01*
X94731585Y-60216444D01*
X94542179Y-60312951D01*
X94370213Y-60437890D01*
X94219890Y-60588213D01*
X94094949Y-60760182D01*
X94090484Y-60768946D01*
X94042509Y-60819742D01*
X93974688Y-60836536D01*
X93908553Y-60813998D01*
X93869516Y-60768946D01*
X93865050Y-60760182D01*
X93740109Y-60588213D01*
X93589786Y-60437890D01*
X93417820Y-60312951D01*
X93228414Y-60216444D01*
X93228413Y-60216443D01*
X93228412Y-60216443D01*
X93026243Y-60150754D01*
X93026241Y-60150753D01*
X93026240Y-60150753D01*
X92864957Y-60125208D01*
X92816287Y-60117500D01*
X92603713Y-60117500D01*
X92555042Y-60125208D01*
X92393760Y-60150753D01*
X92191585Y-60216444D01*
X92002179Y-60312951D01*
X91830213Y-60437890D01*
X91679890Y-60588213D01*
X91554949Y-60760182D01*
X91550484Y-60768946D01*
X91502509Y-60819742D01*
X91434688Y-60836536D01*
X91368553Y-60813998D01*
X91329516Y-60768946D01*
X91325050Y-60760182D01*
X91200109Y-60588213D01*
X91049786Y-60437890D01*
X90877820Y-60312951D01*
X90688414Y-60216444D01*
X90688413Y-60216443D01*
X90688412Y-60216443D01*
X90486243Y-60150754D01*
X90486241Y-60150753D01*
X90486240Y-60150753D01*
X90324957Y-60125208D01*
X90276287Y-60117500D01*
X90063713Y-60117500D01*
X90015042Y-60125208D01*
X89853760Y-60150753D01*
X89651585Y-60216444D01*
X89462179Y-60312951D01*
X89290213Y-60437890D01*
X89139892Y-60588211D01*
X89081938Y-60667981D01*
X89046770Y-60716385D01*
X89042439Y-60719725D01*
X89040166Y-60724703D01*
X89015066Y-60740833D01*
X88991442Y-60759051D01*
X88984768Y-60760304D01*
X88981388Y-60762477D01*
X88946453Y-60767500D01*
X88853547Y-60767500D01*
X88786508Y-60747815D01*
X88753230Y-60716385D01*
X88660108Y-60588213D01*
X88660107Y-60588211D01*
X88509786Y-60437890D01*
X88337820Y-60312951D01*
X88148414Y-60216444D01*
X88148413Y-60216443D01*
X88148412Y-60216443D01*
X87946243Y-60150754D01*
X87946241Y-60150753D01*
X87946240Y-60150753D01*
X87784957Y-60125208D01*
X87736287Y-60117500D01*
X87523713Y-60117500D01*
X87475042Y-60125208D01*
X87313760Y-60150753D01*
X87111585Y-60216444D01*
X86922179Y-60312951D01*
X86750213Y-60437890D01*
X86599890Y-60588213D01*
X86474949Y-60760182D01*
X86470484Y-60768946D01*
X86422509Y-60819742D01*
X86354688Y-60836536D01*
X86288553Y-60813998D01*
X86249516Y-60768946D01*
X86245050Y-60760182D01*
X86120109Y-60588213D01*
X85969786Y-60437890D01*
X85797820Y-60312951D01*
X85608414Y-60216444D01*
X85608413Y-60216443D01*
X85608412Y-60216443D01*
X85406243Y-60150754D01*
X85406241Y-60150753D01*
X85406240Y-60150753D01*
X85244957Y-60125208D01*
X85196287Y-60117500D01*
X84983713Y-60117500D01*
X84935042Y-60125208D01*
X84773760Y-60150753D01*
X84571585Y-60216444D01*
X84382179Y-60312951D01*
X84210215Y-60437889D01*
X84096285Y-60551819D01*
X84034962Y-60585303D01*
X83965270Y-60580319D01*
X83909337Y-60538447D01*
X83892422Y-60507470D01*
X83843354Y-60375913D01*
X83843350Y-60375906D01*
X83757190Y-60260812D01*
X83757187Y-60260809D01*
X83642093Y-60174649D01*
X83642086Y-60174645D01*
X83507379Y-60124403D01*
X83507372Y-60124401D01*
X83447844Y-60118000D01*
X82800000Y-60118000D01*
X82800000Y-61034988D01*
X82742993Y-61002075D01*
X82615826Y-60968000D01*
X82484174Y-60968000D01*
X82357007Y-61002075D01*
X82300000Y-61034988D01*
X82300000Y-60118000D01*
X81652155Y-60118000D01*
X81592627Y-60124401D01*
X81592620Y-60124403D01*
X81457913Y-60174645D01*
X81457906Y-60174649D01*
X81342812Y-60260809D01*
X81342809Y-60260812D01*
X81256649Y-60375906D01*
X81256645Y-60375913D01*
X81206403Y-60510620D01*
X81206401Y-60510627D01*
X81200000Y-60570155D01*
X75358202Y-60570155D01*
X75290522Y-60522134D01*
X75279650Y-60513464D01*
X75039225Y-60298607D01*
X75029392Y-60288774D01*
X74814535Y-60048349D01*
X74805865Y-60037477D01*
X74619280Y-59774508D01*
X74611882Y-59762734D01*
X74455911Y-59480527D01*
X74449881Y-59468006D01*
X74326488Y-59170108D01*
X74321895Y-59156983D01*
X74232631Y-58847141D01*
X74229537Y-58833584D01*
X74217154Y-58760703D01*
X74175524Y-58515692D01*
X74173970Y-58501895D01*
X74155890Y-58179944D01*
X74155890Y-58166048D01*
X74162311Y-58051711D01*
X75304500Y-58051711D01*
X75304500Y-58294288D01*
X75336161Y-58534785D01*
X75398947Y-58769104D01*
X75491773Y-58993205D01*
X75491776Y-58993212D01*
X75613064Y-59203289D01*
X75613066Y-59203292D01*
X75613067Y-59203293D01*
X75760733Y-59395736D01*
X75760739Y-59395743D01*
X75932256Y-59567260D01*
X75932262Y-59567265D01*
X76124711Y-59714936D01*
X76334788Y-59836224D01*
X76558900Y-59929054D01*
X76793211Y-59991838D01*
X76973586Y-60015584D01*
X77033711Y-60023500D01*
X77033712Y-60023500D01*
X77276289Y-60023500D01*
X77324388Y-60017167D01*
X77516789Y-59991838D01*
X77751100Y-59929054D01*
X77975212Y-59836224D01*
X78185289Y-59714936D01*
X78377738Y-59567265D01*
X78549265Y-59395738D01*
X78696936Y-59203289D01*
X78818224Y-58993212D01*
X78911054Y-58769100D01*
X78973838Y-58534789D01*
X79005500Y-58294288D01*
X79005500Y-58051712D01*
X79004050Y-58040701D01*
X78995594Y-57976468D01*
X78973838Y-57811211D01*
X78911054Y-57576900D01*
X78818224Y-57352788D01*
X78696936Y-57142711D01*
X78549265Y-56950262D01*
X78549260Y-56950256D01*
X78377743Y-56778739D01*
X78377736Y-56778733D01*
X78185293Y-56631067D01*
X78185292Y-56631066D01*
X78185289Y-56631064D01*
X77975212Y-56509776D01*
X77975205Y-56509773D01*
X77751104Y-56416947D01*
X77516785Y-56354161D01*
X77276289Y-56322500D01*
X77276288Y-56322500D01*
X77033712Y-56322500D01*
X77033711Y-56322500D01*
X76793214Y-56354161D01*
X76558895Y-56416947D01*
X76334794Y-56509773D01*
X76334785Y-56509777D01*
X76124706Y-56631067D01*
X75932263Y-56778733D01*
X75932256Y-56778739D01*
X75760739Y-56950256D01*
X75760733Y-56950263D01*
X75613067Y-57142706D01*
X75491777Y-57352785D01*
X75491773Y-57352794D01*
X75398947Y-57576895D01*
X75336161Y-57811214D01*
X75304500Y-58051711D01*
X74162311Y-58051711D01*
X74173970Y-57844102D01*
X74175524Y-57830309D01*
X74229537Y-57512410D01*
X74232631Y-57498858D01*
X74274712Y-57352794D01*
X74321896Y-57189012D01*
X74326488Y-57175891D01*
X74340234Y-57142706D01*
X74449884Y-56877985D01*
X74455903Y-56865486D01*
X74611885Y-56583259D01*
X74619280Y-56571491D01*
X74805872Y-56308512D01*
X74814527Y-56297658D01*
X75029402Y-56057214D01*
X75039214Y-56047402D01*
X75279658Y-55832527D01*
X75290512Y-55823872D01*
X75553496Y-55637276D01*
X75565259Y-55629885D01*
X75847486Y-55473903D01*
X75859985Y-55467884D01*
X76157895Y-55344486D01*
X76171012Y-55339896D01*
X76480863Y-55250629D01*
X76494410Y-55247537D01*
X76812309Y-55193524D01*
X76826102Y-55191970D01*
X77148055Y-55173890D01*
X77161945Y-55173890D01*
X77483895Y-55191970D01*
G37*
%TD.AperFunction*%
%TD*%
M02*
