%TF.GenerationSoftware,KiCad,Pcbnew,9.0.6*%
%TF.CreationDate,2026-04-05T23:13:46+08:00*%
%TF.ProjectId,CrowdAware Node v1.0,43726f77-6441-4776-9172-65204e6f6465,A*%
%TF.SameCoordinates,Original*%
%TF.FileFunction,Legend,Top*%
%TF.FilePolarity,Positive*%
%FSLAX46Y46*%
G04 Gerber Fmt 4.6, Leading zero omitted, Abs format (unit mm)*
G04 Created by KiCad (PCBNEW 9.0.6) date 2026-04-05 23:13:46*
%MOMM*%
%LPD*%
G01*
G04 APERTURE LIST*
%ADD10C,0.160000*%
%ADD11C,0.200000*%
%ADD12C,0.150000*%
%ADD13C,0.120000*%
%ADD14C,0.127000*%
G04 APERTURE END LIST*
D10*
X92710000Y-65532000D02*
X89916000Y-65532000D01*
X92202000Y-67818000D02*
X92710000Y-68326000D01*
X92710000Y-65532000D02*
X92710000Y-68326000D01*
X93218000Y-67818000D02*
X92710000Y-68326000D01*
X90424000Y-66040000D02*
X89916000Y-65532000D01*
X89916000Y-65532000D02*
X90424000Y-65024000D01*
X90424000Y-65024000D02*
X89916000Y-65532000D01*
X106900358Y-81296299D02*
X106900358Y-80296299D01*
X106900358Y-80772489D02*
X107471786Y-80772489D01*
X107471786Y-81296299D02*
X107471786Y-80296299D01*
X107947977Y-81296299D02*
X107947977Y-80296299D01*
X108519405Y-81296299D02*
X108090834Y-80724870D01*
X108519405Y-80296299D02*
X107947977Y-80867727D01*
X108947977Y-80296299D02*
X108947977Y-81105822D01*
X108947977Y-81105822D02*
X108995596Y-81201060D01*
X108995596Y-81201060D02*
X109043215Y-81248680D01*
X109043215Y-81248680D02*
X109138453Y-81296299D01*
X109138453Y-81296299D02*
X109328929Y-81296299D01*
X109328929Y-81296299D02*
X109424167Y-81248680D01*
X109424167Y-81248680D02*
X109471786Y-81201060D01*
X109471786Y-81201060D02*
X109519405Y-81105822D01*
X109519405Y-81105822D02*
X109519405Y-80296299D01*
X110757501Y-81296299D02*
X110757501Y-80296299D01*
X111233691Y-80629632D02*
X111233691Y-81296299D01*
X111233691Y-80724870D02*
X111281310Y-80677251D01*
X111281310Y-80677251D02*
X111376548Y-80629632D01*
X111376548Y-80629632D02*
X111519405Y-80629632D01*
X111519405Y-80629632D02*
X111614643Y-80677251D01*
X111614643Y-80677251D02*
X111662262Y-80772489D01*
X111662262Y-80772489D02*
X111662262Y-81296299D01*
X112138453Y-80629632D02*
X112138453Y-81296299D01*
X112138453Y-80724870D02*
X112186072Y-80677251D01*
X112186072Y-80677251D02*
X112281310Y-80629632D01*
X112281310Y-80629632D02*
X112424167Y-80629632D01*
X112424167Y-80629632D02*
X112519405Y-80677251D01*
X112519405Y-80677251D02*
X112567024Y-80772489D01*
X112567024Y-80772489D02*
X112567024Y-81296299D01*
X113186072Y-81296299D02*
X113090834Y-81248680D01*
X113090834Y-81248680D02*
X113043215Y-81201060D01*
X113043215Y-81201060D02*
X112995596Y-81105822D01*
X112995596Y-81105822D02*
X112995596Y-80820108D01*
X112995596Y-80820108D02*
X113043215Y-80724870D01*
X113043215Y-80724870D02*
X113090834Y-80677251D01*
X113090834Y-80677251D02*
X113186072Y-80629632D01*
X113186072Y-80629632D02*
X113328929Y-80629632D01*
X113328929Y-80629632D02*
X113424167Y-80677251D01*
X113424167Y-80677251D02*
X113471786Y-80724870D01*
X113471786Y-80724870D02*
X113519405Y-80820108D01*
X113519405Y-80820108D02*
X113519405Y-81105822D01*
X113519405Y-81105822D02*
X113471786Y-81201060D01*
X113471786Y-81201060D02*
X113424167Y-81248680D01*
X113424167Y-81248680D02*
X113328929Y-81296299D01*
X113328929Y-81296299D02*
X113186072Y-81296299D01*
X113852739Y-80296299D02*
X114090834Y-81296299D01*
X114090834Y-81296299D02*
X114281310Y-80582013D01*
X114281310Y-80582013D02*
X114471786Y-81296299D01*
X114471786Y-81296299D02*
X114709882Y-80296299D01*
X115090834Y-81296299D02*
X115090834Y-80629632D01*
X115090834Y-80296299D02*
X115043215Y-80343918D01*
X115043215Y-80343918D02*
X115090834Y-80391537D01*
X115090834Y-80391537D02*
X115138453Y-80343918D01*
X115138453Y-80343918D02*
X115090834Y-80296299D01*
X115090834Y-80296299D02*
X115090834Y-80391537D01*
X115567024Y-80629632D02*
X115567024Y-81296299D01*
X115567024Y-80724870D02*
X115614643Y-80677251D01*
X115614643Y-80677251D02*
X115709881Y-80629632D01*
X115709881Y-80629632D02*
X115852738Y-80629632D01*
X115852738Y-80629632D02*
X115947976Y-80677251D01*
X115947976Y-80677251D02*
X115995595Y-80772489D01*
X115995595Y-80772489D02*
X115995595Y-81296299D01*
X116900357Y-80629632D02*
X116900357Y-81439156D01*
X116900357Y-81439156D02*
X116852738Y-81534394D01*
X116852738Y-81534394D02*
X116805119Y-81582013D01*
X116805119Y-81582013D02*
X116709881Y-81629632D01*
X116709881Y-81629632D02*
X116567024Y-81629632D01*
X116567024Y-81629632D02*
X116471786Y-81582013D01*
X116900357Y-81248680D02*
X116805119Y-81296299D01*
X116805119Y-81296299D02*
X116614643Y-81296299D01*
X116614643Y-81296299D02*
X116519405Y-81248680D01*
X116519405Y-81248680D02*
X116471786Y-81201060D01*
X116471786Y-81201060D02*
X116424167Y-81105822D01*
X116424167Y-81105822D02*
X116424167Y-80820108D01*
X116424167Y-80820108D02*
X116471786Y-80724870D01*
X116471786Y-80724870D02*
X116519405Y-80677251D01*
X116519405Y-80677251D02*
X116614643Y-80629632D01*
X116614643Y-80629632D02*
X116805119Y-80629632D01*
X116805119Y-80629632D02*
X116900357Y-80677251D01*
X118138453Y-81296299D02*
X118138453Y-80296299D01*
X118757500Y-81296299D02*
X118662262Y-81248680D01*
X118662262Y-81248680D02*
X118614643Y-81201060D01*
X118614643Y-81201060D02*
X118567024Y-81105822D01*
X118567024Y-81105822D02*
X118567024Y-80820108D01*
X118567024Y-80820108D02*
X118614643Y-80724870D01*
X118614643Y-80724870D02*
X118662262Y-80677251D01*
X118662262Y-80677251D02*
X118757500Y-80629632D01*
X118757500Y-80629632D02*
X118900357Y-80629632D01*
X118900357Y-80629632D02*
X118995595Y-80677251D01*
X118995595Y-80677251D02*
X119043214Y-80724870D01*
X119043214Y-80724870D02*
X119090833Y-80820108D01*
X119090833Y-80820108D02*
X119090833Y-81105822D01*
X119090833Y-81105822D02*
X119043214Y-81201060D01*
X119043214Y-81201060D02*
X118995595Y-81248680D01*
X118995595Y-81248680D02*
X118900357Y-81296299D01*
X118900357Y-81296299D02*
X118757500Y-81296299D01*
X119376548Y-80296299D02*
X119947976Y-80296299D01*
X119662262Y-81296299D02*
X119662262Y-80296299D01*
X120900358Y-80296299D02*
X121471786Y-80296299D01*
X121186072Y-81296299D02*
X121186072Y-80296299D01*
X122186072Y-81248680D02*
X122090834Y-81296299D01*
X122090834Y-81296299D02*
X121900358Y-81296299D01*
X121900358Y-81296299D02*
X121805120Y-81248680D01*
X121805120Y-81248680D02*
X121757501Y-81153441D01*
X121757501Y-81153441D02*
X121757501Y-80772489D01*
X121757501Y-80772489D02*
X121805120Y-80677251D01*
X121805120Y-80677251D02*
X121900358Y-80629632D01*
X121900358Y-80629632D02*
X122090834Y-80629632D01*
X122090834Y-80629632D02*
X122186072Y-80677251D01*
X122186072Y-80677251D02*
X122233691Y-80772489D01*
X122233691Y-80772489D02*
X122233691Y-80867727D01*
X122233691Y-80867727D02*
X121757501Y-80962965D01*
X123090834Y-81296299D02*
X123090834Y-80772489D01*
X123090834Y-80772489D02*
X123043215Y-80677251D01*
X123043215Y-80677251D02*
X122947977Y-80629632D01*
X122947977Y-80629632D02*
X122757501Y-80629632D01*
X122757501Y-80629632D02*
X122662263Y-80677251D01*
X123090834Y-81248680D02*
X122995596Y-81296299D01*
X122995596Y-81296299D02*
X122757501Y-81296299D01*
X122757501Y-81296299D02*
X122662263Y-81248680D01*
X122662263Y-81248680D02*
X122614644Y-81153441D01*
X122614644Y-81153441D02*
X122614644Y-81058203D01*
X122614644Y-81058203D02*
X122662263Y-80962965D01*
X122662263Y-80962965D02*
X122757501Y-80915346D01*
X122757501Y-80915346D02*
X122995596Y-80915346D01*
X122995596Y-80915346D02*
X123090834Y-80867727D01*
X123567025Y-81296299D02*
X123567025Y-80629632D01*
X123567025Y-80724870D02*
X123614644Y-80677251D01*
X123614644Y-80677251D02*
X123709882Y-80629632D01*
X123709882Y-80629632D02*
X123852739Y-80629632D01*
X123852739Y-80629632D02*
X123947977Y-80677251D01*
X123947977Y-80677251D02*
X123995596Y-80772489D01*
X123995596Y-80772489D02*
X123995596Y-81296299D01*
X123995596Y-80772489D02*
X124043215Y-80677251D01*
X124043215Y-80677251D02*
X124138453Y-80629632D01*
X124138453Y-80629632D02*
X124281310Y-80629632D01*
X124281310Y-80629632D02*
X124376549Y-80677251D01*
X124376549Y-80677251D02*
X124424168Y-80772489D01*
X124424168Y-80772489D02*
X124424168Y-81296299D01*
D11*
X107406006Y-77599457D02*
X107348863Y-77656600D01*
X107348863Y-77656600D02*
X107177435Y-77713742D01*
X107177435Y-77713742D02*
X107063149Y-77713742D01*
X107063149Y-77713742D02*
X106891720Y-77656600D01*
X106891720Y-77656600D02*
X106777435Y-77542314D01*
X106777435Y-77542314D02*
X106720292Y-77428028D01*
X106720292Y-77428028D02*
X106663149Y-77199457D01*
X106663149Y-77199457D02*
X106663149Y-77028028D01*
X106663149Y-77028028D02*
X106720292Y-76799457D01*
X106720292Y-76799457D02*
X106777435Y-76685171D01*
X106777435Y-76685171D02*
X106891720Y-76570885D01*
X106891720Y-76570885D02*
X107063149Y-76513742D01*
X107063149Y-76513742D02*
X107177435Y-76513742D01*
X107177435Y-76513742D02*
X107348863Y-76570885D01*
X107348863Y-76570885D02*
X107406006Y-76628028D01*
X107920292Y-77713742D02*
X107920292Y-76913742D01*
X107920292Y-77142314D02*
X107977435Y-77028028D01*
X107977435Y-77028028D02*
X108034578Y-76970885D01*
X108034578Y-76970885D02*
X108148863Y-76913742D01*
X108148863Y-76913742D02*
X108263149Y-76913742D01*
X108834577Y-77713742D02*
X108720292Y-77656600D01*
X108720292Y-77656600D02*
X108663149Y-77599457D01*
X108663149Y-77599457D02*
X108606006Y-77485171D01*
X108606006Y-77485171D02*
X108606006Y-77142314D01*
X108606006Y-77142314D02*
X108663149Y-77028028D01*
X108663149Y-77028028D02*
X108720292Y-76970885D01*
X108720292Y-76970885D02*
X108834577Y-76913742D01*
X108834577Y-76913742D02*
X109006006Y-76913742D01*
X109006006Y-76913742D02*
X109120292Y-76970885D01*
X109120292Y-76970885D02*
X109177435Y-77028028D01*
X109177435Y-77028028D02*
X109234577Y-77142314D01*
X109234577Y-77142314D02*
X109234577Y-77485171D01*
X109234577Y-77485171D02*
X109177435Y-77599457D01*
X109177435Y-77599457D02*
X109120292Y-77656600D01*
X109120292Y-77656600D02*
X109006006Y-77713742D01*
X109006006Y-77713742D02*
X108834577Y-77713742D01*
X109634577Y-76913742D02*
X109863149Y-77713742D01*
X109863149Y-77713742D02*
X110091720Y-77142314D01*
X110091720Y-77142314D02*
X110320291Y-77713742D01*
X110320291Y-77713742D02*
X110548863Y-76913742D01*
X111520292Y-77713742D02*
X111520292Y-76513742D01*
X111520292Y-77656600D02*
X111406006Y-77713742D01*
X111406006Y-77713742D02*
X111177434Y-77713742D01*
X111177434Y-77713742D02*
X111063149Y-77656600D01*
X111063149Y-77656600D02*
X111006006Y-77599457D01*
X111006006Y-77599457D02*
X110948863Y-77485171D01*
X110948863Y-77485171D02*
X110948863Y-77142314D01*
X110948863Y-77142314D02*
X111006006Y-77028028D01*
X111006006Y-77028028D02*
X111063149Y-76970885D01*
X111063149Y-76970885D02*
X111177434Y-76913742D01*
X111177434Y-76913742D02*
X111406006Y-76913742D01*
X111406006Y-76913742D02*
X111520292Y-76970885D01*
X112034577Y-77370885D02*
X112606006Y-77370885D01*
X111920291Y-77713742D02*
X112320291Y-76513742D01*
X112320291Y-76513742D02*
X112720291Y-77713742D01*
X113006005Y-76913742D02*
X113234577Y-77713742D01*
X113234577Y-77713742D02*
X113463148Y-77142314D01*
X113463148Y-77142314D02*
X113691719Y-77713742D01*
X113691719Y-77713742D02*
X113920291Y-76913742D01*
X114891720Y-77713742D02*
X114891720Y-77085171D01*
X114891720Y-77085171D02*
X114834577Y-76970885D01*
X114834577Y-76970885D02*
X114720291Y-76913742D01*
X114720291Y-76913742D02*
X114491720Y-76913742D01*
X114491720Y-76913742D02*
X114377434Y-76970885D01*
X114891720Y-77656600D02*
X114777434Y-77713742D01*
X114777434Y-77713742D02*
X114491720Y-77713742D01*
X114491720Y-77713742D02*
X114377434Y-77656600D01*
X114377434Y-77656600D02*
X114320291Y-77542314D01*
X114320291Y-77542314D02*
X114320291Y-77428028D01*
X114320291Y-77428028D02*
X114377434Y-77313742D01*
X114377434Y-77313742D02*
X114491720Y-77256600D01*
X114491720Y-77256600D02*
X114777434Y-77256600D01*
X114777434Y-77256600D02*
X114891720Y-77199457D01*
X115463148Y-77713742D02*
X115463148Y-76913742D01*
X115463148Y-77142314D02*
X115520291Y-77028028D01*
X115520291Y-77028028D02*
X115577434Y-76970885D01*
X115577434Y-76970885D02*
X115691719Y-76913742D01*
X115691719Y-76913742D02*
X115806005Y-76913742D01*
X116663148Y-77656600D02*
X116548862Y-77713742D01*
X116548862Y-77713742D02*
X116320291Y-77713742D01*
X116320291Y-77713742D02*
X116206005Y-77656600D01*
X116206005Y-77656600D02*
X116148862Y-77542314D01*
X116148862Y-77542314D02*
X116148862Y-77085171D01*
X116148862Y-77085171D02*
X116206005Y-76970885D01*
X116206005Y-76970885D02*
X116320291Y-76913742D01*
X116320291Y-76913742D02*
X116548862Y-76913742D01*
X116548862Y-76913742D02*
X116663148Y-76970885D01*
X116663148Y-76970885D02*
X116720291Y-77085171D01*
X116720291Y-77085171D02*
X116720291Y-77199457D01*
X116720291Y-77199457D02*
X116148862Y-77313742D01*
X118148862Y-77713742D02*
X118148862Y-76513742D01*
X118148862Y-76513742D02*
X118834576Y-77713742D01*
X118834576Y-77713742D02*
X118834576Y-76513742D01*
X119577433Y-77713742D02*
X119463148Y-77656600D01*
X119463148Y-77656600D02*
X119406005Y-77599457D01*
X119406005Y-77599457D02*
X119348862Y-77485171D01*
X119348862Y-77485171D02*
X119348862Y-77142314D01*
X119348862Y-77142314D02*
X119406005Y-77028028D01*
X119406005Y-77028028D02*
X119463148Y-76970885D01*
X119463148Y-76970885D02*
X119577433Y-76913742D01*
X119577433Y-76913742D02*
X119748862Y-76913742D01*
X119748862Y-76913742D02*
X119863148Y-76970885D01*
X119863148Y-76970885D02*
X119920291Y-77028028D01*
X119920291Y-77028028D02*
X119977433Y-77142314D01*
X119977433Y-77142314D02*
X119977433Y-77485171D01*
X119977433Y-77485171D02*
X119920291Y-77599457D01*
X119920291Y-77599457D02*
X119863148Y-77656600D01*
X119863148Y-77656600D02*
X119748862Y-77713742D01*
X119748862Y-77713742D02*
X119577433Y-77713742D01*
X121006005Y-77713742D02*
X121006005Y-76513742D01*
X121006005Y-77656600D02*
X120891719Y-77713742D01*
X120891719Y-77713742D02*
X120663147Y-77713742D01*
X120663147Y-77713742D02*
X120548862Y-77656600D01*
X120548862Y-77656600D02*
X120491719Y-77599457D01*
X120491719Y-77599457D02*
X120434576Y-77485171D01*
X120434576Y-77485171D02*
X120434576Y-77142314D01*
X120434576Y-77142314D02*
X120491719Y-77028028D01*
X120491719Y-77028028D02*
X120548862Y-76970885D01*
X120548862Y-76970885D02*
X120663147Y-76913742D01*
X120663147Y-76913742D02*
X120891719Y-76913742D01*
X120891719Y-76913742D02*
X121006005Y-76970885D01*
X122034576Y-77656600D02*
X121920290Y-77713742D01*
X121920290Y-77713742D02*
X121691719Y-77713742D01*
X121691719Y-77713742D02*
X121577433Y-77656600D01*
X121577433Y-77656600D02*
X121520290Y-77542314D01*
X121520290Y-77542314D02*
X121520290Y-77085171D01*
X121520290Y-77085171D02*
X121577433Y-76970885D01*
X121577433Y-76970885D02*
X121691719Y-76913742D01*
X121691719Y-76913742D02*
X121920290Y-76913742D01*
X121920290Y-76913742D02*
X122034576Y-76970885D01*
X122034576Y-76970885D02*
X122091719Y-77085171D01*
X122091719Y-77085171D02*
X122091719Y-77199457D01*
X122091719Y-77199457D02*
X121520290Y-77313742D01*
D10*
X106805120Y-78851632D02*
X107043215Y-79518299D01*
X107043215Y-79518299D02*
X107281310Y-78851632D01*
X108186072Y-79518299D02*
X107614644Y-79518299D01*
X107900358Y-79518299D02*
X107900358Y-78518299D01*
X107900358Y-78518299D02*
X107805120Y-78661156D01*
X107805120Y-78661156D02*
X107709882Y-78756394D01*
X107709882Y-78756394D02*
X107614644Y-78804013D01*
X108614644Y-79423060D02*
X108662263Y-79470680D01*
X108662263Y-79470680D02*
X108614644Y-79518299D01*
X108614644Y-79518299D02*
X108567025Y-79470680D01*
X108567025Y-79470680D02*
X108614644Y-79423060D01*
X108614644Y-79423060D02*
X108614644Y-79518299D01*
X109281310Y-78518299D02*
X109376548Y-78518299D01*
X109376548Y-78518299D02*
X109471786Y-78565918D01*
X109471786Y-78565918D02*
X109519405Y-78613537D01*
X109519405Y-78613537D02*
X109567024Y-78708775D01*
X109567024Y-78708775D02*
X109614643Y-78899251D01*
X109614643Y-78899251D02*
X109614643Y-79137346D01*
X109614643Y-79137346D02*
X109567024Y-79327822D01*
X109567024Y-79327822D02*
X109519405Y-79423060D01*
X109519405Y-79423060D02*
X109471786Y-79470680D01*
X109471786Y-79470680D02*
X109376548Y-79518299D01*
X109376548Y-79518299D02*
X109281310Y-79518299D01*
X109281310Y-79518299D02*
X109186072Y-79470680D01*
X109186072Y-79470680D02*
X109138453Y-79423060D01*
X109138453Y-79423060D02*
X109090834Y-79327822D01*
X109090834Y-79327822D02*
X109043215Y-79137346D01*
X109043215Y-79137346D02*
X109043215Y-78899251D01*
X109043215Y-78899251D02*
X109090834Y-78708775D01*
X109090834Y-78708775D02*
X109138453Y-78613537D01*
X109138453Y-78613537D02*
X109186072Y-78565918D01*
X109186072Y-78565918D02*
X109281310Y-78518299D01*
X110805120Y-79518299D02*
X110805120Y-78851632D01*
X110805120Y-79042108D02*
X110852739Y-78946870D01*
X110852739Y-78946870D02*
X110900358Y-78899251D01*
X110900358Y-78899251D02*
X110995596Y-78851632D01*
X110995596Y-78851632D02*
X111090834Y-78851632D01*
X111805120Y-79470680D02*
X111709882Y-79518299D01*
X111709882Y-79518299D02*
X111519406Y-79518299D01*
X111519406Y-79518299D02*
X111424168Y-79470680D01*
X111424168Y-79470680D02*
X111376549Y-79375441D01*
X111376549Y-79375441D02*
X111376549Y-78994489D01*
X111376549Y-78994489D02*
X111424168Y-78899251D01*
X111424168Y-78899251D02*
X111519406Y-78851632D01*
X111519406Y-78851632D02*
X111709882Y-78851632D01*
X111709882Y-78851632D02*
X111805120Y-78899251D01*
X111805120Y-78899251D02*
X111852739Y-78994489D01*
X111852739Y-78994489D02*
X111852739Y-79089727D01*
X111852739Y-79089727D02*
X111376549Y-79184965D01*
X112186073Y-78851632D02*
X112424168Y-79518299D01*
X112424168Y-79518299D02*
X112662263Y-78851632D01*
X113043216Y-79423060D02*
X113090835Y-79470680D01*
X113090835Y-79470680D02*
X113043216Y-79518299D01*
X113043216Y-79518299D02*
X112995597Y-79470680D01*
X112995597Y-79470680D02*
X113043216Y-79423060D01*
X113043216Y-79423060D02*
X113043216Y-79518299D01*
X114233692Y-79232584D02*
X114709882Y-79232584D01*
X114138454Y-79518299D02*
X114471787Y-78518299D01*
X114471787Y-78518299D02*
X114805120Y-79518299D01*
X88640120Y-65909299D02*
X89163929Y-65242632D01*
X88640120Y-65242632D02*
X89163929Y-65909299D01*
X92450120Y-68798632D02*
X92688215Y-69465299D01*
X92926310Y-68798632D02*
X92688215Y-69465299D01*
X92688215Y-69465299D02*
X92592977Y-69703394D01*
X92592977Y-69703394D02*
X92545358Y-69751013D01*
X92545358Y-69751013D02*
X92450120Y-69798632D01*
D12*
X128067666Y-83782819D02*
X128067666Y-84497104D01*
X128067666Y-84497104D02*
X128020047Y-84639961D01*
X128020047Y-84639961D02*
X127924809Y-84735200D01*
X127924809Y-84735200D02*
X127781952Y-84782819D01*
X127781952Y-84782819D02*
X127686714Y-84782819D01*
X129067666Y-84782819D02*
X128496238Y-84782819D01*
X128781952Y-84782819D02*
X128781952Y-83782819D01*
X128781952Y-83782819D02*
X128686714Y-83925676D01*
X128686714Y-83925676D02*
X128591476Y-84020914D01*
X128591476Y-84020914D02*
X128496238Y-84068533D01*
X96484333Y-76960580D02*
X96436714Y-77008200D01*
X96436714Y-77008200D02*
X96293857Y-77055819D01*
X96293857Y-77055819D02*
X96198619Y-77055819D01*
X96198619Y-77055819D02*
X96055762Y-77008200D01*
X96055762Y-77008200D02*
X95960524Y-76912961D01*
X95960524Y-76912961D02*
X95912905Y-76817723D01*
X95912905Y-76817723D02*
X95865286Y-76627247D01*
X95865286Y-76627247D02*
X95865286Y-76484390D01*
X95865286Y-76484390D02*
X95912905Y-76293914D01*
X95912905Y-76293914D02*
X95960524Y-76198676D01*
X95960524Y-76198676D02*
X96055762Y-76103438D01*
X96055762Y-76103438D02*
X96198619Y-76055819D01*
X96198619Y-76055819D02*
X96293857Y-76055819D01*
X96293857Y-76055819D02*
X96436714Y-76103438D01*
X96436714Y-76103438D02*
X96484333Y-76151057D01*
X96865286Y-76151057D02*
X96912905Y-76103438D01*
X96912905Y-76103438D02*
X97008143Y-76055819D01*
X97008143Y-76055819D02*
X97246238Y-76055819D01*
X97246238Y-76055819D02*
X97341476Y-76103438D01*
X97341476Y-76103438D02*
X97389095Y-76151057D01*
X97389095Y-76151057D02*
X97436714Y-76246295D01*
X97436714Y-76246295D02*
X97436714Y-76341533D01*
X97436714Y-76341533D02*
X97389095Y-76484390D01*
X97389095Y-76484390D02*
X96817667Y-77055819D01*
X96817667Y-77055819D02*
X97436714Y-77055819D01*
X100254714Y-64785379D02*
X100730904Y-64785379D01*
X100159476Y-65071094D02*
X100492809Y-64071094D01*
X100492809Y-64071094D02*
X100826142Y-65071094D01*
X101683285Y-65071094D02*
X101111857Y-65071094D01*
X101397571Y-65071094D02*
X101397571Y-64071094D01*
X101397571Y-64071094D02*
X101302333Y-64213951D01*
X101302333Y-64213951D02*
X101207095Y-64309189D01*
X101207095Y-64309189D02*
X101111857Y-64356808D01*
X103596333Y-81373819D02*
X103263000Y-80897628D01*
X103024905Y-81373819D02*
X103024905Y-80373819D01*
X103024905Y-80373819D02*
X103405857Y-80373819D01*
X103405857Y-80373819D02*
X103501095Y-80421438D01*
X103501095Y-80421438D02*
X103548714Y-80469057D01*
X103548714Y-80469057D02*
X103596333Y-80564295D01*
X103596333Y-80564295D02*
X103596333Y-80707152D01*
X103596333Y-80707152D02*
X103548714Y-80802390D01*
X103548714Y-80802390D02*
X103501095Y-80850009D01*
X103501095Y-80850009D02*
X103405857Y-80897628D01*
X103405857Y-80897628D02*
X103024905Y-80897628D01*
X104548714Y-81373819D02*
X103977286Y-81373819D01*
X104263000Y-81373819D02*
X104263000Y-80373819D01*
X104263000Y-80373819D02*
X104167762Y-80516676D01*
X104167762Y-80516676D02*
X104072524Y-80611914D01*
X104072524Y-80611914D02*
X103977286Y-80659533D01*
X96484333Y-78992580D02*
X96436714Y-79040200D01*
X96436714Y-79040200D02*
X96293857Y-79087819D01*
X96293857Y-79087819D02*
X96198619Y-79087819D01*
X96198619Y-79087819D02*
X96055762Y-79040200D01*
X96055762Y-79040200D02*
X95960524Y-78944961D01*
X95960524Y-78944961D02*
X95912905Y-78849723D01*
X95912905Y-78849723D02*
X95865286Y-78659247D01*
X95865286Y-78659247D02*
X95865286Y-78516390D01*
X95865286Y-78516390D02*
X95912905Y-78325914D01*
X95912905Y-78325914D02*
X95960524Y-78230676D01*
X95960524Y-78230676D02*
X96055762Y-78135438D01*
X96055762Y-78135438D02*
X96198619Y-78087819D01*
X96198619Y-78087819D02*
X96293857Y-78087819D01*
X96293857Y-78087819D02*
X96436714Y-78135438D01*
X96436714Y-78135438D02*
X96484333Y-78183057D01*
X97436714Y-79087819D02*
X96865286Y-79087819D01*
X97151000Y-79087819D02*
X97151000Y-78087819D01*
X97151000Y-78087819D02*
X97055762Y-78230676D01*
X97055762Y-78230676D02*
X96960524Y-78325914D01*
X96960524Y-78325914D02*
X96865286Y-78373533D01*
X94198333Y-81373819D02*
X93865000Y-80897628D01*
X93626905Y-81373819D02*
X93626905Y-80373819D01*
X93626905Y-80373819D02*
X94007857Y-80373819D01*
X94007857Y-80373819D02*
X94103095Y-80421438D01*
X94103095Y-80421438D02*
X94150714Y-80469057D01*
X94150714Y-80469057D02*
X94198333Y-80564295D01*
X94198333Y-80564295D02*
X94198333Y-80707152D01*
X94198333Y-80707152D02*
X94150714Y-80802390D01*
X94150714Y-80802390D02*
X94103095Y-80850009D01*
X94103095Y-80850009D02*
X94007857Y-80897628D01*
X94007857Y-80897628D02*
X93626905Y-80897628D01*
X94579286Y-80469057D02*
X94626905Y-80421438D01*
X94626905Y-80421438D02*
X94722143Y-80373819D01*
X94722143Y-80373819D02*
X94960238Y-80373819D01*
X94960238Y-80373819D02*
X95055476Y-80421438D01*
X95055476Y-80421438D02*
X95103095Y-80469057D01*
X95103095Y-80469057D02*
X95150714Y-80564295D01*
X95150714Y-80564295D02*
X95150714Y-80659533D01*
X95150714Y-80659533D02*
X95103095Y-80802390D01*
X95103095Y-80802390D02*
X94531667Y-81373819D01*
X94531667Y-81373819D02*
X95150714Y-81373819D01*
D13*
%TO.C,C2*%
X99044733Y-76091000D02*
X99337267Y-76091000D01*
X99044733Y-77111000D02*
X99337267Y-77111000D01*
D14*
%TO.C,A1*%
X98791000Y-64981999D02*
X98791004Y-65728504D01*
X99591003Y-64982007D02*
X98791000Y-64981999D01*
X99591003Y-65728500D02*
X99591003Y-64982007D01*
X94541003Y-70361992D02*
G75*
G02*
X98791004Y-65728502I4651027J-216D01*
G01*
X99190992Y-75011997D02*
G75*
G02*
X94541004Y-70361992I10J4649998D01*
G01*
X99591003Y-65728500D02*
G75*
G02*
X103840997Y-70362007I-400675J-4633377D01*
G01*
X103840997Y-70362008D02*
G75*
G02*
X99190992Y-75011996I-4649998J10D01*
G01*
D11*
X95698281Y-66492585D02*
G75*
G02*
X95498283Y-66492585I-99999J0D01*
G01*
X95498283Y-66492585D02*
G75*
G02*
X95698281Y-66492585I99999J0D01*
G01*
D13*
%TO.C,R1*%
X101477724Y-80396500D02*
X100968276Y-80396500D01*
X101477724Y-81441500D02*
X100968276Y-81441500D01*
%TO.C,C1*%
X99044733Y-78123000D02*
X99337267Y-78123000D01*
X99044733Y-79143000D02*
X99337267Y-79143000D01*
%TO.C,R2*%
X96650276Y-80396500D02*
X97159724Y-80396500D01*
X96650276Y-81441500D02*
X97159724Y-81441500D01*
%TD*%
M02*
