%TF.GenerationSoftware,KiCad,Pcbnew,10.0.0*%
%TF.CreationDate,2026-04-06T13:10:34+08:00*%
%TF.ProjectId,CrowdAware Node v1.0,43726f77-6441-4776-9172-65204e6f6465,B*%
%TF.SameCoordinates,Original*%
%TF.FileFunction,Soldermask,Bot*%
%TF.FilePolarity,Negative*%
%FSLAX46Y46*%
G04 Gerber Fmt 4.6, Leading zero omitted, Abs format (unit mm)*
G04 Created by KiCad (PCBNEW 10.0.0) date 2026-04-06 13:10:34*
%MOMM*%
%LPD*%
G01*
G04 APERTURE LIST*
G04 Aperture macros list*
%AMRoundRect*
0 Rectangle with rounded corners*
0 $1 Rounding radius*
0 $2 $3 $4 $5 $6 $7 $8 $9 X,Y pos of 4 corners*
0 Add a 4 corners polygon primitive as box body*
4,1,4,$2,$3,$4,$5,$6,$7,$8,$9,$2,$3,0*
0 Add four circle primitives for the rounded corners*
1,1,$1+$1,$2,$3*
1,1,$1+$1,$4,$5*
1,1,$1+$1,$6,$7*
1,1,$1+$1,$8,$9*
0 Add four rect primitives between the rounded corners*
20,1,$1+$1,$2,$3,$4,$5,0*
20,1,$1+$1,$4,$5,$6,$7,0*
20,1,$1+$1,$6,$7,$8,$9,0*
20,1,$1+$1,$8,$9,$2,$3,0*%
G04 Aperture macros list end*
%ADD10C,3.200000*%
%ADD11RoundRect,0.102000X0.550000X0.550000X-0.550000X0.550000X-0.550000X-0.550000X0.550000X-0.550000X0*%
%ADD12C,1.304000*%
%ADD13C,1.700000*%
%ADD14R,1.700000X1.700000*%
G04 APERTURE END LIST*
D10*
%TO.C,REF\u002A\u002A*%
X131155000Y-87673000D03*
%TD*%
%TO.C,REF\u002A\u002A*%
X77155000Y-58173000D03*
%TD*%
%TO.C,REF\u002A\u002A*%
X131155000Y-58173000D03*
%TD*%
%TO.C,REF\u002A\u002A*%
X77155000Y-87673000D03*
%TD*%
D11*
%TO.C,A1*%
X90017434Y-77008725D03*
D12*
X90017436Y-71613273D03*
X87782566Y-71613275D03*
X87782564Y-77008727D03*
%TD*%
D13*
%TO.C,J1*%
X125730000Y-84328000D03*
X125730000Y-61468000D03*
X123190000Y-84328000D03*
X123190000Y-61468000D03*
X120650000Y-84328000D03*
X120650000Y-61468000D03*
X118110000Y-84328000D03*
X118110000Y-61468000D03*
X115570000Y-84328000D03*
X115570000Y-61468000D03*
X113030000Y-84328000D03*
X113030000Y-61468000D03*
X110490000Y-84328000D03*
X110490000Y-61468000D03*
X107950000Y-84328000D03*
X107950000Y-61468000D03*
X105410000Y-84328000D03*
X105410000Y-61468000D03*
X102870000Y-84328000D03*
X102870000Y-61468000D03*
X100330000Y-84328000D03*
X100330000Y-61468000D03*
X97790000Y-84328000D03*
X97790000Y-61468000D03*
X95250000Y-84328000D03*
X95250000Y-61468000D03*
X92710000Y-84328000D03*
X92710000Y-61468000D03*
X90170000Y-84328000D03*
X90170000Y-61468000D03*
X87630000Y-84328000D03*
X87630000Y-61468000D03*
X85090000Y-84328000D03*
X85090000Y-61468000D03*
D14*
X82550000Y-84328000D03*
X82550000Y-61468000D03*
%TD*%
M02*
