M48
; DRILL file {KiCad 9.0.6} date 2026-04-05T23:14:26+0800
; FORMAT={-:-/ absolute / metric / decimal}
; #@! TF.CreationDate,2026-04-05T23:14:26+08:00
; #@! TF.GenerationSoftware,Kicad,Pcbnew,9.0.6
; #@! TF.FileFunction,Plated,1,2,PTH
FMAT,2
METRIC
; #@! TA.AperFunction,Plated,PTH,ViaDrill
T1C0.300
; #@! TA.AperFunction,Plated,PTH,ComponentDrill
T2C0.700
; #@! TA.AperFunction,Plated,PTH,ComponentDrill
T3C1.000
%
G90
G05
T1
X95.504Y-79.751
X98.327Y-79.751
X99.039Y-80.767
X102.746Y-79.751
T2
X98.074Y-73.06
X98.074Y-67.664
X100.308Y-73.06
X100.308Y-67.664
T3
X82.55Y-61.468
X82.55Y-84.328
X85.09Y-61.468
X85.09Y-84.328
X87.63Y-61.468
X87.63Y-84.328
X90.17Y-61.468
X90.17Y-84.328
X92.71Y-61.468
X92.71Y-84.328
X95.25Y-61.468
X95.25Y-84.328
X97.79Y-61.468
X97.79Y-84.328
X100.33Y-61.468
X100.33Y-84.328
X102.87Y-61.468
X102.87Y-84.328
X105.41Y-61.468
X105.41Y-84.328
X107.95Y-61.468
X107.95Y-84.328
X110.49Y-61.468
X110.49Y-84.328
X113.03Y-61.468
X113.03Y-84.328
X115.57Y-61.468
X115.57Y-84.328
X118.11Y-61.468
X118.11Y-84.328
X120.65Y-61.468
X120.65Y-84.328
X123.19Y-61.468
X123.19Y-84.328
X125.73Y-61.468
X125.73Y-84.328
M30
